<svg width="114" height="114" viewBox="0 0 114 114" fill="none" xmlns="http://www.w3.org/2000/svg">
<circle cx="57" cy="57" r="56" fill="#CABCA0" stroke="#908672" stroke-width="2"/>
<g clip-path="url(#clip0_29_310)">
<path d="M38.7858 30.4142L30.4142 38.7857C29.6332 39.5668 29.6332 40.8331 30.4142 41.6142L72.3858 83.5856C73.1669 84.3667 74.4332 84.3667 75.2142 83.5856L83.5858 75.2141C84.3669 74.433 84.3669 73.1667 83.5858 72.3856L41.6142 30.4142C40.8332 29.6331 39.5669 29.6331 38.7858 30.4142Z" fill="white"/>
<path d="M83.5856 38.786L75.214 30.4145C74.433 29.6334 73.1666 29.6334 72.3856 30.4145L30.414 72.3859C29.6329 73.167 29.6329 74.4333 30.414 75.2144L38.7856 83.5859C39.5666 84.367 40.833 84.367 41.614 83.5859L83.5856 41.6144C84.3667 40.8334 84.3667 39.5671 83.5856 38.786Z" fill="white"/>
</g>
<defs>
<clipPath id="clip0_29_310">
<rect width="56" height="56" fill="white" transform="translate(29 29)"/>
</clipPath>
</defs>
</svg>
