<svg width="375" height="415" viewBox="0 0 375 415" fill="none" xmlns="http://www.w3.org/2000/svg">
<g filter="url(#filter0_ii_234_3563)">
<path d="M34.5535 61.1038L349.11 66.7318L340.76 411.221L29.8545 408.533L34.5535 61.1038Z" fill="url(#paint0_linear_234_3563)"/>
</g>
<g filter="url(#filter1_ddii_234_3563)">
<path d="M312.644 43.398C310.987 48.5133 309.185 53.6156 307.841 57.247L330.94 76.8582L323.717 109.713L349.913 117.839L346.617 272.934L323.47 297.926L345.515 324.791L344.075 392.448L101.14 402.292L99.9745 393.75L50.722 378.365L51.7456 358.118L25.7695 344.75V205.12L56.4229 192.27L45.2528 156.649L53.7623 134.931L25.7695 107.946V38.0874L312.644 43.398Z" fill="#DACBAE"/>
<path d="M29.4531 41.843L307.569 46.9911C306.423 50.3574 305.3 53.5054 304.386 55.9663L303.491 58.3877L305.458 60.0585L326.866 78.2341L320.122 108.921L319.392 112.231L322.627 113.234L346.171 120.538L342.963 271.456L320.766 295.419L318.582 297.778L320.623 300.267L341.803 326.077L340.469 388.902L104.337 398.472L103.624 393.252L103.307 390.929L101.072 390.233L54.5452 375.696L55.4244 358.302L55.5445 355.928L53.4298 354.837L29.4531 342.501V207.573L57.8459 195.671L60.943 194.373L59.9374 191.166L49.1563 156.785L57.1917 136.277L58.0901 133.984L56.318 132.276L29.4531 106.378V41.843Z" stroke="#B4A78E" stroke-opacity="0.5" stroke-width="2"/>
</g>
<g filter="url(#filter2_ddii_234_3563)">
<path d="M166.463 56.5178L184.969 67.5759L179.418 52.8318V36.2448L159.061 15.9714L147.957 28.8726L170.165 47.3026L166.463 56.5178Z" fill="url(#paint1_linear_234_3563)"/>
</g>
<g filter="url(#filter3_ddii_234_3563)">
<path d="M142.188 36.1151C132.934 37.9581 131.084 26.8999 145.889 12.1558C168.095 -4.43122 168.097 12.1558 168.097 15.8418C168.097 19.5281 151.441 34.2721 142.188 36.1151Z" fill="url(#paint2_linear_234_3563)"/>
</g>
<g style="mix-blend-mode:multiply" opacity="0.15" filter="url(#filter4_ii_234_3563)">
<path fill-rule="evenodd" clip-rule="evenodd" d="M344.882 354.446L344.075 392.448L224.28 397.304L237.124 377.204L274.137 369.831L283.39 355.088L311.149 356.927L325.952 347.714L344.882 354.446Z" fill="url(#paint3_linear_234_3563)"/>
</g>
<g style="mix-blend-mode:multiply" opacity="0.15" filter="url(#filter5_ii_234_3563)">
<path fill-rule="evenodd" clip-rule="evenodd" d="M311.411 60.2778L330.94 76.859L323.721 109.713L349.914 117.84L348.175 199.645L330.023 191.059L342.602 172.628L338.9 156.041L330.023 143.14L312.991 122.867L305.591 78.6348L311.411 60.2778Z" fill="url(#paint4_linear_234_3563)"/>
</g>
<g style="mix-blend-mode:multiply" opacity="0.15" filter="url(#filter6_ii_234_3563)">
<path fill-rule="evenodd" clip-rule="evenodd" d="M121.296 39.8559L109.431 54.5694H81.6715L76.1194 73.1041L40.9579 67.5752L25.7695 81.1878V38.0874L121.296 39.8559Z" fill="url(#paint5_linear_234_3563)"/>
</g>
<g style="mix-blend-mode:multiply" opacity="0.15" filter="url(#filter7_ii_234_3563)">
<path fill-rule="evenodd" clip-rule="evenodd" d="M150.992 400.271L134.962 384.574L110.636 380.651L90.9237 367.987L56.8208 380.268L99.9791 393.75L101.145 402.292L150.992 400.271ZM55.2045 379.763L50.7266 378.365L50.9944 373.067L55.2045 379.763Z" fill="url(#paint6_linear_234_3563)"/>
</g>
<mask id="mask0_234_3563" style="mask-type:alpha" maskUnits="userSpaceOnUse" x="25" y="38" width="325" height="365">
<g style="mix-blend-mode:color" opacity="0.1">
<path d="M312.644 43.398C310.987 48.5133 309.185 53.6156 307.841 57.247L330.94 76.8582L323.717 109.713L349.913 117.839L346.617 272.934L323.47 297.926L345.515 324.791L344.075 392.448L101.14 402.292L99.9745 393.75L50.722 378.365L51.7456 358.118L25.7695 344.75V205.12L56.4229 192.27L45.2528 156.649L53.7623 134.931L25.7695 107.946V38.0874L312.644 43.398Z" fill="#DACBAE"/>
</g>
</mask>
<g mask="url(#mask0_234_3563)">
<path d="M312.644 43.398C310.987 48.5133 309.185 53.6156 307.841 57.247L330.94 76.8582L323.717 109.713L349.913 117.839L346.617 272.934L323.47 297.926L345.515 324.791L344.075 392.448L101.14 402.292L99.9745 393.75L50.722 378.365L51.7456 358.118L25.7695 344.75V205.12L56.4229 192.27L45.2528 156.649L53.7623 134.931L25.7695 107.946V38.0874L312.644 43.398Z" fill="#D4A64D"/>
<path d="M187.84 318.372C254.225 318.372 308.04 274.415 308.04 220.19C308.04 165.965 254.225 122.008 187.84 122.008C121.456 122.008 67.6406 165.965 67.6406 220.19C67.6406 274.415 121.456 318.372 187.84 318.372Z" fill="#BD8F36"/>
<path d="M41.0812 490.562C98.349 490.562 144.774 440.137 144.774 377.934C144.774 315.732 98.349 265.306 41.0812 265.306C-16.1866 265.306 -62.6113 315.732 -62.6113 377.934C-62.6113 440.137 -16.1866 490.562 41.0812 490.562Z" fill="#745E35"/>
<path d="M88.5096 231.984C151.289 231.984 202.181 178.806 202.181 113.207C202.181 47.6087 151.289 -5.56958 88.5096 -5.56958C25.7305 -5.56958 -25.1621 47.6087 -25.1621 113.207C-25.1621 178.806 25.7305 231.984 88.5096 231.984Z" fill="#907135"/>
<path d="M310.784 471.825C361.845 471.825 403.237 433.204 403.237 385.562C403.237 337.92 361.845 299.298 310.784 299.298C259.724 299.298 218.332 337.92 218.332 385.562C218.332 433.204 259.724 471.825 310.784 471.825Z" fill="#51442A"/>
<path d="M284.622 225.696C342.93 225.696 390.198 167.617 390.198 95.9741C390.198 24.3308 342.93 -33.7476 284.622 -33.7476C226.315 -33.7476 179.047 24.3308 179.047 95.9741C179.047 167.617 226.315 225.696 284.622 225.696Z" fill="#3A3324"/>
<path d="M312.644 43.398C310.987 48.5133 309.185 53.6156 307.841 57.247L330.94 76.8582L323.717 109.713L349.913 117.839L346.617 272.934L323.47 297.926L345.515 324.791L344.075 392.448L101.14 402.292L99.9745 393.75L50.722 378.365L51.7456 358.118L25.7695 344.75V205.12L56.4229 192.27L45.2528 156.649L53.7623 134.931L25.7695 107.946V38.0874L312.644 43.398Z" fill="#DACBAE" fill-opacity="0.01"/>
</g>
<defs>
<filter id="filter0_ii_234_3563" x="29.8545" y="55.8985" width="319.256" height="360.528" filterUnits="userSpaceOnUse" color-interpolation-filters="sRGB">
<feFlood flood-opacity="0" result="BackgroundImageFix"/>
<feBlend mode="normal" in="SourceGraphic" in2="BackgroundImageFix" result="shape"/>
<feColorMatrix in="SourceAlpha" type="matrix" values="0 0 0 0 0 0 0 0 0 0 0 0 0 0 0 0 0 0 127 0" result="hardAlpha"/>
<feOffset dy="-5.20528"/>
<feGaussianBlur stdDeviation="2.60264"/>
<feComposite in2="hardAlpha" operator="arithmetic" k2="-1" k3="1"/>
<feColorMatrix type="matrix" values="0 0 0 0 0.796413 0 0 0 0 0.737964 0 0 0 0 0.624963 0 0 0 0.5 0"/>
<feBlend mode="normal" in2="shape" result="effect1_innerShadow_234_3563"/>
<feColorMatrix in="SourceAlpha" type="matrix" values="0 0 0 0 0 0 0 0 0 0 0 0 0 0 0 0 0 0 127 0" result="hardAlpha"/>
<feOffset dy="5.20528"/>
<feGaussianBlur stdDeviation="2.60264"/>
<feComposite in2="hardAlpha" operator="arithmetic" k2="-1" k3="1"/>
<feColorMatrix type="matrix" values="0 0 0 0 0.413233 0 0 0 0 0.382906 0 0 0 0 0.324273 0 0 0 0.5 0"/>
<feBlend mode="normal" in2="effect1_innerShadow_234_3563" result="effect2_innerShadow_234_3563"/>
</filter>
<filter id="filter1_ddii_234_3563" x="0.701475" y="0.812502" width="373.846" height="413.907" filterUnits="userSpaceOnUse" color-interpolation-filters="sRGB">
<feFlood flood-opacity="0" result="BackgroundImageFix"/>
<feColorMatrix in="SourceAlpha" type="matrix" values="0 0 0 0 0 0 0 0 0 0 0 0 0 0 0 0 0 0 127 0" result="hardAlpha"/>
<feOffset dx="-0.216856" dy="-12.4237"/>
<feGaussianBlur stdDeviation="12.4256"/>
<feColorMatrix type="matrix" values="0 0 0 0 0.17098 0 0 0 0 0.159216 0 0 0 0 0.136471 0 0 0 0.142 0"/>
<feBlend mode="normal" in2="BackgroundImageFix" result="effect1_dropShadow_234_3563"/>
<feColorMatrix in="SourceAlpha" type="matrix" values="0 0 0 0 0 0 0 0 0 0 0 0 0 0 0 0 0 0 127 0" result="hardAlpha"/>
<feOffset dy="3"/>
<feGaussianBlur stdDeviation="2"/>
<feComposite in2="hardAlpha" operator="out"/>
<feColorMatrix type="matrix" values="0 0 0 0 0 0 0 0 0 0 0 0 0 0 0 0 0 0 0.25 0"/>
<feBlend mode="normal" in2="effect1_dropShadow_234_3563" result="effect2_dropShadow_234_3563"/>
<feBlend mode="normal" in="SourceGraphic" in2="effect2_dropShadow_234_3563" result="shape"/>
<feColorMatrix in="SourceAlpha" type="matrix" values="0 0 0 0 0 0 0 0 0 0 0 0 0 0 0 0 0 0 127 0" result="hardAlpha"/>
<feOffset dx="-0.0539731" dy="-3.09212"/>
<feGaussianBlur stdDeviation="1.54629"/>
<feComposite in2="hardAlpha" operator="arithmetic" k2="-1" k3="1"/>
<feColorMatrix type="matrix" values="0 0 0 0 0.888243 0 0 0 0 0.827125 0 0 0 0 0.708965 0 0 0 1 0"/>
<feBlend mode="normal" in2="shape" result="effect3_innerShadow_234_3563"/>
<feColorMatrix in="SourceAlpha" type="matrix" values="0 0 0 0 0 0 0 0 0 0 0 0 0 0 0 0 0 0 127 0" result="hardAlpha"/>
<feOffset dx="0.0539731" dy="3.09212"/>
<feGaussianBlur stdDeviation="1.54629"/>
<feComposite in2="hardAlpha" operator="arithmetic" k2="-1" k3="1"/>
<feColorMatrix type="matrix" values="0 0 0 0 0.813226 0 0 0 0 0.75727 0 0 0 0 0.649088 0 0 0 1 0"/>
<feBlend mode="normal" in2="effect3_innerShadow_234_3563" result="effect4_innerShadow_234_3563"/>
</filter>
<filter id="filter2_ddii_234_3563" x="143.957" y="12.9714" width="45.0127" height="59.6045" filterUnits="userSpaceOnUse" color-interpolation-filters="sRGB">
<feFlood flood-opacity="0" result="BackgroundImageFix"/>
<feColorMatrix in="SourceAlpha" type="matrix" values="0 0 0 0 0 0 0 0 0 0 0 0 0 0 0 0 0 0 127 0" result="hardAlpha"/>
<feOffset dy="1.6"/>
<feGaussianBlur stdDeviation="1.6"/>
<feColorMatrix type="matrix" values="0 0 0 0 0.112157 0 0 0 0 0.104314 0 0 0 0 0.0964706 0 0 0 0.1665 0"/>
<feBlend mode="normal" in2="BackgroundImageFix" result="effect1_dropShadow_234_3563"/>
<feColorMatrix in="SourceAlpha" type="matrix" values="0 0 0 0 0 0 0 0 0 0 0 0 0 0 0 0 0 0 127 0" result="hardAlpha"/>
<feOffset dy="1"/>
<feGaussianBlur stdDeviation="2"/>
<feComposite in2="hardAlpha" operator="out"/>
<feColorMatrix type="matrix" values="0 0 0 0 0 0 0 0 0 0 0 0 0 0 0 0 0 0 0.25 0"/>
<feBlend mode="normal" in2="effect1_dropShadow_234_3563" result="effect2_dropShadow_234_3563"/>
<feBlend mode="normal" in="SourceGraphic" in2="effect2_dropShadow_234_3563" result="shape"/>
<feColorMatrix in="SourceAlpha" type="matrix" values="0 0 0 0 0 0 0 0 0 0 0 0 0 0 0 0 0 0 127 0" result="hardAlpha"/>
<feOffset dy="0.423111"/>
<feGaussianBlur stdDeviation="0.211556"/>
<feComposite in2="hardAlpha" operator="arithmetic" k2="-1" k3="1"/>
<feColorMatrix type="matrix" values="0 0 0 0 0.626957 0 0 0 0 0.583114 0 0 0 0 0.539271 0 0 0 1 0"/>
<feBlend mode="normal" in2="shape" result="effect3_innerShadow_234_3563"/>
<feColorMatrix in="SourceAlpha" type="matrix" values="0 0 0 0 0 0 0 0 0 0 0 0 0 0 0 0 0 0 127 0" result="hardAlpha"/>
<feOffset dy="-0.423111"/>
<feGaussianBlur stdDeviation="0.211556"/>
<feComposite in2="hardAlpha" operator="arithmetic" k2="-1" k3="1"/>
<feColorMatrix type="matrix" values="0 0 0 0 0.478069 0 0 0 0 0.444637 0 0 0 0 0.411206 0 0 0 1 0"/>
<feBlend mode="normal" in2="effect3_innerShadow_234_3563" result="effect4_innerShadow_234_3563"/>
</filter>
<filter id="filter3_ddii_234_3563" x="132.675" y="3.74928" width="37.7509" height="36.059" filterUnits="userSpaceOnUse" color-interpolation-filters="sRGB">
<feFlood flood-opacity="0" result="BackgroundImageFix"/>
<feColorMatrix in="SourceAlpha" type="matrix" values="0 0 0 0 0 0 0 0 0 0 0 0 0 0 0 0 0 0 127 0" result="hardAlpha"/>
<feOffset dy="1.16405"/>
<feGaussianBlur stdDeviation="1.16405"/>
<feColorMatrix type="matrix" values="0 0 0 0 0.165222 0 0 0 0 0.159485 0 0 0 0 0.153748 0 0 0 0.1385 0"/>
<feBlend mode="normal" in2="BackgroundImageFix" result="effect1_dropShadow_234_3563"/>
<feColorMatrix in="SourceAlpha" type="matrix" values="0 0 0 0 0 0 0 0 0 0 0 0 0 0 0 0 0 0 127 0" result="hardAlpha"/>
<feOffset dy="2"/>
<feComposite in2="hardAlpha" operator="out"/>
<feColorMatrix type="matrix" values="0 0 0 0 0 0 0 0 0 0 0 0 0 0 0 0 0 0 0.1 0"/>
<feBlend mode="normal" in2="effect1_dropShadow_234_3563" result="effect2_dropShadow_234_3563"/>
<feBlend mode="normal" in="SourceGraphic" in2="effect2_dropShadow_234_3563" result="shape"/>
<feColorMatrix in="SourceAlpha" type="matrix" values="0 0 0 0 0 0 0 0 0 0 0 0 0 0 0 0 0 0 127 0" result="hardAlpha"/>
<feOffset dy="0.287133"/>
<feGaussianBlur stdDeviation="0.143566"/>
<feComposite in2="hardAlpha" operator="arithmetic" k2="-1" k3="1"/>
<feColorMatrix type="matrix" values="0 0 0 0 0.910374 0 0 0 0 0.878764 0 0 0 0 0.847154 0 0 0 1 0"/>
<feBlend mode="normal" in2="shape" result="effect3_innerShadow_234_3563"/>
<feColorMatrix in="SourceAlpha" type="matrix" values="0 0 0 0 0 0 0 0 0 0 0 0 0 0 0 0 0 0 127 0" result="hardAlpha"/>
<feOffset dy="-0.287133"/>
<feGaussianBlur stdDeviation="0.143566"/>
<feComposite in2="hardAlpha" operator="arithmetic" k2="-1" k3="1"/>
<feColorMatrix type="matrix" values="0 0 0 0 0.720782 0 0 0 0 0.695755 0 0 0 0 0.670728 0 0 0 1 0"/>
<feBlend mode="normal" in2="effect3_innerShadow_234_3563" result="effect4_innerShadow_234_3563"/>
</filter>
<filter id="filter4_ii_234_3563" x="224.28" y="347.041" width="120.602" height="50.9351" filterUnits="userSpaceOnUse" color-interpolation-filters="sRGB">
<feFlood flood-opacity="0" result="BackgroundImageFix"/>
<feBlend mode="normal" in="SourceGraphic" in2="BackgroundImageFix" result="shape"/>
<feColorMatrix in="SourceAlpha" type="matrix" values="0 0 0 0 0 0 0 0 0 0 0 0 0 0 0 0 0 0 127 0" result="hardAlpha"/>
<feOffset dy="-0.672871"/>
<feGaussianBlur stdDeviation="0.336436"/>
<feComposite in2="hardAlpha" operator="arithmetic" k2="-1" k3="1"/>
<feColorMatrix type="matrix" values="0 0 0 0 0.292776 0 0 0 0 0.250345 0 0 0 0 0.250345 0 0 0 0.5 0"/>
<feBlend mode="normal" in2="shape" result="effect1_innerShadow_234_3563"/>
<feColorMatrix in="SourceAlpha" type="matrix" values="0 0 0 0 0 0 0 0 0 0 0 0 0 0 0 0 0 0 127 0" result="hardAlpha"/>
<feOffset dy="0.672871"/>
<feGaussianBlur stdDeviation="0.336436"/>
<feComposite in2="hardAlpha" operator="arithmetic" k2="-1" k3="1"/>
<feColorMatrix type="matrix" values="0 0 0 0 0.242853 0 0 0 0 0.207657 0 0 0 0 0.207657 0 0 0 0.5 0"/>
<feBlend mode="normal" in2="effect1_innerShadow_234_3563" result="effect2_innerShadow_234_3563"/>
</filter>
<filter id="filter5_ii_234_3563" x="305.591" y="59.605" width="44.3232" height="140.713" filterUnits="userSpaceOnUse" color-interpolation-filters="sRGB">
<feFlood flood-opacity="0" result="BackgroundImageFix"/>
<feBlend mode="normal" in="SourceGraphic" in2="BackgroundImageFix" result="shape"/>
<feColorMatrix in="SourceAlpha" type="matrix" values="0 0 0 0 0 0 0 0 0 0 0 0 0 0 0 0 0 0 127 0" result="hardAlpha"/>
<feOffset dy="-0.672871"/>
<feGaussianBlur stdDeviation="0.336436"/>
<feComposite in2="hardAlpha" operator="arithmetic" k2="-1" k3="1"/>
<feColorMatrix type="matrix" values="0 0 0 0 0.292776 0 0 0 0 0.250345 0 0 0 0 0.250345 0 0 0 0.5 0"/>
<feBlend mode="normal" in2="shape" result="effect1_innerShadow_234_3563"/>
<feColorMatrix in="SourceAlpha" type="matrix" values="0 0 0 0 0 0 0 0 0 0 0 0 0 0 0 0 0 0 127 0" result="hardAlpha"/>
<feOffset dy="0.672871"/>
<feGaussianBlur stdDeviation="0.336436"/>
<feComposite in2="hardAlpha" operator="arithmetic" k2="-1" k3="1"/>
<feColorMatrix type="matrix" values="0 0 0 0 0.242853 0 0 0 0 0.207657 0 0 0 0 0.207657 0 0 0 0.5 0"/>
<feBlend mode="normal" in2="effect1_innerShadow_234_3563" result="effect2_innerShadow_234_3563"/>
</filter>
<filter id="filter6_ii_234_3563" x="25.7695" y="37.4145" width="95.5264" height="44.4461" filterUnits="userSpaceOnUse" color-interpolation-filters="sRGB">
<feFlood flood-opacity="0" result="BackgroundImageFix"/>
<feBlend mode="normal" in="SourceGraphic" in2="BackgroundImageFix" result="shape"/>
<feColorMatrix in="SourceAlpha" type="matrix" values="0 0 0 0 0 0 0 0 0 0 0 0 0 0 0 0 0 0 127 0" result="hardAlpha"/>
<feOffset dy="-0.672871"/>
<feGaussianBlur stdDeviation="0.336436"/>
<feComposite in2="hardAlpha" operator="arithmetic" k2="-1" k3="1"/>
<feColorMatrix type="matrix" values="0 0 0 0 0.292776 0 0 0 0 0.250345 0 0 0 0 0.250345 0 0 0 0.5 0"/>
<feBlend mode="normal" in2="shape" result="effect1_innerShadow_234_3563"/>
<feColorMatrix in="SourceAlpha" type="matrix" values="0 0 0 0 0 0 0 0 0 0 0 0 0 0 0 0 0 0 127 0" result="hardAlpha"/>
<feOffset dy="0.672871"/>
<feGaussianBlur stdDeviation="0.336436"/>
<feComposite in2="hardAlpha" operator="arithmetic" k2="-1" k3="1"/>
<feColorMatrix type="matrix" values="0 0 0 0 0.242853 0 0 0 0 0.207657 0 0 0 0 0.207657 0 0 0 0.5 0"/>
<feBlend mode="normal" in2="effect1_innerShadow_234_3563" result="effect2_innerShadow_234_3563"/>
</filter>
<filter id="filter7_ii_234_3563" x="50.7266" y="367.314" width="100.265" height="35.6502" filterUnits="userSpaceOnUse" color-interpolation-filters="sRGB">
<feFlood flood-opacity="0" result="BackgroundImageFix"/>
<feBlend mode="normal" in="SourceGraphic" in2="BackgroundImageFix" result="shape"/>
<feColorMatrix in="SourceAlpha" type="matrix" values="0 0 0 0 0 0 0 0 0 0 0 0 0 0 0 0 0 0 127 0" result="hardAlpha"/>
<feOffset dy="-0.672871"/>
<feGaussianBlur stdDeviation="0.336436"/>
<feComposite in2="hardAlpha" operator="arithmetic" k2="-1" k3="1"/>
<feColorMatrix type="matrix" values="0 0 0 0 0.292776 0 0 0 0 0.250345 0 0 0 0 0.250345 0 0 0 0.5 0"/>
<feBlend mode="normal" in2="shape" result="effect1_innerShadow_234_3563"/>
<feColorMatrix in="SourceAlpha" type="matrix" values="0 0 0 0 0 0 0 0 0 0 0 0 0 0 0 0 0 0 127 0" result="hardAlpha"/>
<feOffset dy="0.672871"/>
<feGaussianBlur stdDeviation="0.336436"/>
<feComposite in2="hardAlpha" operator="arithmetic" k2="-1" k3="1"/>
<feColorMatrix type="matrix" values="0 0 0 0 0.242853 0 0 0 0 0.207657 0 0 0 0 0.207657 0 0 0 0.5 0"/>
<feBlend mode="normal" in2="effect1_innerShadow_234_3563" result="effect2_innerShadow_234_3563"/>
</filter>
<linearGradient id="paint0_linear_234_3563" x1="191.831" y1="63.9178" x2="185.616" y2="411.32" gradientUnits="userSpaceOnUse">
<stop stop-color="#746C5B"/>
<stop offset="0.784722" stop-color="#C0B297"/>
<stop offset="1" stop-color="#958A75"/>
</linearGradient>
<linearGradient id="paint1_linear_234_3563" x1="166.463" y1="15.9714" x2="166.463" y2="67.5759" gradientUnits="userSpaceOnUse">
<stop stop-color="#7E756C"/>
<stop offset="1" stop-color="#9C9186"/>
</linearGradient>
<linearGradient id="paint2_linear_234_3563" x1="151.55" y1="4.91337" x2="151.55" y2="36.316" gradientUnits="userSpaceOnUse">
<stop stop-color="#E3DBD3"/>
<stop offset="1" stop-color="#BDB7B0"/>
</linearGradient>
<linearGradient id="paint3_linear_234_3563" x1="285.753" y1="347.714" x2="285.753" y2="393.517" gradientUnits="userSpaceOnUse">
<stop stop-color="#3F3636"/>
<stop offset="1" stop-color="#493F3F"/>
</linearGradient>
<linearGradient id="paint4_linear_234_3563" x1="327.75" y1="57.3731" x2="327.75" y2="199.608" gradientUnits="userSpaceOnUse">
<stop stop-color="#3F3636"/>
<stop offset="1" stop-color="#493F3F"/>
</linearGradient>
<linearGradient id="paint5_linear_234_3563" x1="74.9974" y1="34.4015" x2="74.9974" y2="81.1882" gradientUnits="userSpaceOnUse">
<stop stop-color="#3F3636"/>
<stop offset="1" stop-color="#493F3F"/>
</linearGradient>
<linearGradient id="paint6_linear_234_3563" x1="99.0498" y1="367.987" x2="99.0498" y2="398.609" gradientUnits="userSpaceOnUse">
<stop stop-color="#3F3636"/>
<stop offset="1" stop-color="#493F3F"/>
</linearGradient>
</defs>
</svg>
