<svg width="197" height="263" viewBox="0 0 197 263" fill="none" xmlns="http://www.w3.org/2000/svg">
<path d="M136.495 89.9446H138.995V87.4446V62.4602C138.995 39.88 120.689 21.2349 98.375 21.2349C76.0533 21.2349 57.7463 39.8796 57.7463 62.4602V87.4446V89.9446H60.2463H136.495ZM157.359 87.4446V89.9446H159.859H172.156C184.265 89.9446 194.25 100.031 194.25 112.429V237.349C194.25 249.747 184.265 259.833 172.156 259.833H24.5937C12.4772 259.833 2.5 249.748 2.5 237.349V112.429C2.5 100.03 12.4772 89.9446 24.5937 89.9446H36.8906H39.3906V87.4446V62.4602C39.3906 28.8258 65.3532 2.5 98.375 2.5C131.389 2.5 157.359 28.826 157.359 62.4602V87.4446ZM71.2812 174.889C71.2812 189.973 83.4222 202.373 98.375 202.373C113.319 202.373 125.469 189.974 125.469 174.889C125.469 159.804 113.319 147.405 98.375 147.405C83.4223 147.405 71.2812 159.805 71.2812 174.889Z" fill="#A8A769" stroke="#796262" stroke-width="5"/>
</svg>
