<svg width="346" height="214" viewBox="0 0 346 214" fill="none" xmlns="http://www.w3.org/2000/svg">
<g filter="url(#filter0_di_27_280)">
<path d="M324.375 0H21.625C9.68184 0 0 5.90424 0 13.1875V197.812C0 205.096 9.68184 211 21.625 211H324.375C336.318 211 346 205.096 346 197.812V13.1875C346 5.90424 336.318 0 324.375 0Z" fill="#787B4A"/>
<path d="M21.625 0.5H324.375C330.27 0.5 335.583 1.95818 339.406 4.28941C343.237 6.62598 345.5 9.78649 345.5 13.1875V197.812C345.5 201.214 343.237 204.374 339.406 206.711C335.583 209.042 330.27 210.5 324.375 210.5H21.625C15.7299 210.5 10.4169 209.042 6.59414 206.711C2.76262 204.374 0.5 201.214 0.5 197.812V13.1875C0.5 9.78649 2.76262 6.62598 6.59414 4.28941C10.4169 1.95818 15.7299 0.5 21.625 0.5Z" stroke="#FF0000" stroke-opacity="0.15"/>
</g>
<g style="mix-blend-mode:screen">
<path d="M21.625 0C9.68194 0 0 5.90536 0 13.1875V181.988C0 189.27 9.68194 195.175 21.625 195.175H47.575L69.2 189.9L97.3125 195.175H214.087L233.55 189.9L281.125 195.175H324.375C336.316 195.175 346 189.27 346 181.988V13.1875C346 5.90536 336.316 0 324.375 0H21.625Z" fill="#646736"/>
<path d="M69.2922 189.409L69.1862 189.389L69.0815 189.414L47.5149 194.675H21.625C15.73 194.675 10.417 193.217 6.59419 190.885C2.76263 188.548 0.5 185.388 0.5 181.988V13.1875C0.5 9.78706 2.76263 6.62654 6.59419 4.28983C10.417 1.95845 15.73 0.5 21.625 0.5H324.375C330.269 0.5 335.582 1.95844 339.405 4.28983C343.237 6.62657 345.5 9.7871 345.5 13.1875V181.988C345.5 185.388 343.237 188.548 339.405 190.885C335.582 193.217 330.269 194.675 324.375 194.675H281.153L233.605 189.403L233.511 189.393L233.419 189.417L214.021 194.675H97.359L69.2922 189.409Z" stroke="#FF0000" stroke-opacity="0.15"/>
<path d="M71.1077 186.118L68.918 185.709L66.7905 186.226L46.3255 191.219H21.625C13.2648 191.219 6.48749 187.086 6.48749 181.987V13.1875C6.48749 8.0892 13.2648 3.95624 21.625 3.95624H324.375C332.735 3.95624 339.512 8.0892 339.512 13.1875V181.987C339.512 187.086 332.735 191.219 324.375 191.219H281.709L234.71 186.007L232.743 185.788L230.915 186.284L212.711 191.219H98.2882L71.1077 186.118Z" stroke="#FF0000" stroke-opacity="0.15" stroke-width="3"/>
</g>
<g style="mix-blend-mode:lighten" opacity="0.5">
<path fill-rule="evenodd" clip-rule="evenodd" d="M0.11158 11.8398C1.21921 5.19064 10.4284 0 21.625 0H324.375C336.316 0 346 5.90536 346 13.1875V15.585L333.025 14.5063L287.612 22.4188L179.487 14.5063L47.575 27.6938L0 21.8912V13.1875C0 12.7312 0.0376223 12.2829 0.11158 11.8398Z" fill="#CACC8E"/>
<path d="M0.604757 11.9221L0.604783 11.9219C1.12425 8.80359 3.56154 5.95126 7.32735 3.86377C11.0836 1.78159 16.0994 0.5 21.625 0.5H324.375C330.269 0.5 335.582 1.95844 339.405 4.28983C343.237 6.62657 345.5 9.7871 345.5 13.1875V15.0417L333.066 14.008L333.002 14.0026L332.939 14.0137L287.587 21.9156L179.524 14.0076L179.481 14.0044L179.438 14.0087L47.5805 27.1907L0.5 21.4485V13.1875C0.5 12.7589 0.53532 12.3381 0.604757 11.9221Z" stroke="#FF0000" stroke-opacity="0.15"/>
</g>
<g style="mix-blend-mode:color" opacity="0.2">
<path d="M324.375 0H21.625C9.68184 0 0 5.90424 0 13.1875V197.812C0 205.096 9.68184 211 21.625 211H324.375C336.318 211 346 205.096 346 197.812V13.1875C346 5.90424 336.318 0 324.375 0Z" fill="#F8FF8E" fill-opacity="0.5"/>
<path d="M21.625 0.5H324.375C330.27 0.5 335.583 1.95818 339.406 4.28941C343.237 6.62598 345.5 9.78649 345.5 13.1875V197.812C345.5 201.214 343.237 204.374 339.406 206.711C335.583 209.042 330.27 210.5 324.375 210.5H21.625C15.7299 210.5 10.4169 209.042 6.59414 206.711C2.76262 204.374 0.5 201.214 0.5 197.812V13.1875C0.5 9.78649 2.76262 6.62598 6.59414 4.28941C10.4169 1.95818 15.7299 0.5 21.625 0.5Z" stroke="#FF0000" stroke-opacity="0.15"/>
</g>
<mask id="mask0_27_280" style="mask-type:alpha" maskUnits="userSpaceOnUse" x="0" y="0" width="346" height="211">
<g opacity="0.1">
<path d="M324.375 0H21.625C9.68184 0 0 5.90424 0 13.1875V197.812C0 205.096 9.68184 211 21.625 211H324.375C336.318 211 346 205.096 346 197.812V13.1875C346 5.90424 336.318 0 324.375 0Z" fill="#5D6035"/>
<path d="M21.625 0.5H324.375C330.27 0.5 335.583 1.95818 339.406 4.28941C343.237 6.62598 345.5 9.78649 345.5 13.1875V197.812C345.5 201.214 343.237 204.374 339.406 206.711C335.583 209.042 330.27 210.5 324.375 210.5H21.625C15.7299 210.5 10.4169 209.042 6.59414 206.711C2.76262 204.374 0.5 201.214 0.5 197.812V13.1875C0.5 9.78649 2.76262 6.62598 6.59414 4.28941C10.4169 1.95818 15.7299 0.5 21.625 0.5Z" stroke="#FF0000" stroke-opacity="0.15"/>
</g>
</mask>
<g mask="url(#mask0_27_280)">
<g filter="url(#filter1_d_27_280)">
<path d="M670.375 6.10352e-05H21.625C9.68184 6.10352e-05 0 5.90431 0 13.1876V197.813C0 205.096 9.68184 211 21.625 211H670.375C682.318 211 692 205.096 692 197.813V13.1876C692 5.90431 682.318 6.10352e-05 670.375 6.10352e-05Z" fill="#704A7B"/>
<path d="M21.625 0.500061H670.375C676.27 0.500061 681.583 1.95824 685.406 4.28948C689.237 6.62604 691.5 9.78655 691.5 13.1876V197.813C691.5 201.214 689.237 204.374 685.406 206.711C681.583 209.042 676.27 210.5 670.375 210.5H21.625C15.7299 210.5 10.4169 209.042 6.59414 206.711C2.76262 204.374 0.5 201.214 0.5 197.813V13.1876C0.5 9.78655 2.76262 6.62604 6.59414 4.28947C10.4169 1.95824 15.7299 0.500061 21.625 0.500061Z" stroke="#FF0000" stroke-opacity="0.15"/>
</g>
<path d="M77.0633 243.093C174.563 243.093 253.602 205.797 253.602 159.79C253.602 113.784 174.563 76.4885 77.0633 76.4885C-20.4361 76.4885 -99.475 113.784 -99.475 159.79C-99.475 205.797 -20.4361 243.093 77.0633 243.093Z" fill="#7B6E4A"/>
<path d="M253.102 159.79C253.102 182.487 233.587 203.187 201.681 218.242C169.815 233.279 125.756 242.593 77.0633 242.593C28.3705 242.593 -15.6881 233.279 -47.5547 218.242C-79.4602 203.187 -98.975 182.487 -98.975 159.79C-98.975 137.094 -79.4602 116.394 -47.5547 101.339C-15.6881 86.3026 28.3705 76.9885 77.0633 76.9885C125.756 76.9885 169.815 86.3026 201.681 101.339C233.587 116.394 253.102 137.094 253.102 159.79Z" stroke="#FF0000" stroke-opacity="0.15"/>
<path d="M318.441 131.518C427.429 131.518 515.782 92.6294 515.782 44.6582C515.782 -3.31294 427.429 -42.2012 318.441 -42.2012C209.453 -42.2012 121.101 -3.31294 121.101 44.6582C121.101 92.6294 209.453 131.518 318.441 131.518Z" fill="#4A7B51"/>
<path d="M515.282 44.6582C515.282 56.4866 509.838 67.7939 499.913 78.1214C489.987 88.4514 475.599 97.7769 457.781 105.62C422.146 121.304 372.883 131.018 318.441 131.018C264 131.018 214.736 121.304 179.102 105.62C161.284 97.7769 146.896 88.4514 136.969 78.1214C127.045 67.7939 121.601 56.4866 121.601 44.6582C121.601 32.8298 127.045 21.5226 136.969 11.195C146.896 0.865051 161.284 -8.4605 179.102 -16.3031C214.736 -31.9876 264 -41.7012 318.441 -41.7012C372.883 -41.7012 422.146 -31.9876 457.781 -16.3031C475.599 -8.4605 489.987 0.865051 499.913 11.195C509.838 21.5226 515.282 32.8298 515.282 44.6582Z" stroke="#FF0000" stroke-opacity="0.15"/>
<path d="M133.48 297.562C228.697 297.562 305.886 254.568 305.886 201.532C305.886 148.495 228.697 105.501 133.48 105.501C38.2635 105.501 -38.925 148.495 -38.925 201.532C-38.925 254.568 38.2635 297.562 133.48 297.562Z" fill="#5F4A7B"/>
<path d="M305.386 201.532C305.386 227.786 286.274 251.66 255.146 268.998C224.034 286.328 181.02 297.062 133.48 297.062C85.9407 297.062 42.9264 286.328 11.8147 268.998C-19.3138 251.66 -38.425 227.786 -38.425 201.532C-38.425 175.277 -19.3138 151.403 11.8147 134.065C42.9264 116.735 85.9407 106.001 133.48 106.001C181.02 106.001 224.034 116.735 255.146 134.065C286.274 151.403 305.386 175.277 305.386 201.532Z" stroke="#FF0000" stroke-opacity="0.15"/>
<path d="M139.886 157.222C252.972 157.222 344.646 106.085 344.646 43.0046C344.646 -20.0759 252.972 -71.2128 139.886 -71.2128C26.7994 -71.2128 -64.875 -20.0759 -64.875 43.0046C-64.875 106.085 26.7994 157.222 139.886 157.222Z" fill="#4A7B61"/>
<path d="M344.146 43.0046C344.146 74.2819 321.413 102.702 284.43 123.332C247.463 143.952 196.36 156.722 139.886 156.722C83.4115 156.722 32.3084 143.952 -4.65843 123.332C-41.6418 102.702 -64.375 74.2819 -64.375 43.0046C-64.375 11.7273 -41.6418 -16.693 -4.65843 -37.3226C32.3084 -57.9431 83.4115 -70.7128 139.886 -70.7128C196.36 -70.7128 247.463 -57.9431 284.43 -37.3226C321.413 -16.693 344.146 11.7273 344.146 43.0046Z" stroke="#FF0000" stroke-opacity="0.15"/>
<path d="M31.233 96.6792C141.639 96.6792 231.141 57.3244 231.141 8.77776C231.141 -39.7689 141.639 -79.1237 31.233 -79.1237C-79.1731 -79.1237 -168.675 -39.7689 -168.675 8.77776C-168.675 57.3244 -79.1731 96.6792 31.233 96.6792Z" fill="#7B534A"/>
<path d="M230.641 8.77776C230.641 20.7499 225.125 32.1941 215.071 42.6464C205.014 53.1011 190.438 62.5389 172.388 70.4758C136.289 86.3489 86.3835 96.1792 31.233 96.1792C-23.9175 96.1792 -73.8229 86.3489 -109.922 70.4758C-127.972 62.5389 -142.548 53.1011 -152.605 42.6464C-162.659 32.1941 -168.175 20.7499 -168.175 8.77776C-168.175 -3.19436 -162.659 -14.6386 -152.605 -25.0908C-142.548 -35.5455 -127.972 -44.9834 -109.922 -52.9203C-73.8229 -68.7934 -23.9175 -78.6237 31.233 -78.6237C86.3835 -78.6237 136.289 -68.7934 172.388 -52.9203C190.438 -44.9834 205.014 -35.5455 215.071 -25.0908C225.125 -14.6386 230.641 -3.19436 230.641 8.77776Z" stroke="#FF0000" stroke-opacity="0.15"/>
<path d="M324.375 6.10352e-05H21.625C9.68184 6.10352e-05 0 5.90431 0 13.1876V197.813C0 205.096 9.68184 211 21.625 211H324.375C336.318 211 346 205.096 346 197.813V13.1876C346 5.90431 336.318 6.10352e-05 324.375 6.10352e-05Z" fill="#787B4A" fill-opacity="0.01"/>
<path d="M21.625 0.500061H324.375C330.27 0.500061 335.583 1.95824 339.406 4.28947C343.237 6.62604 345.5 9.78655 345.5 13.1876V197.813C345.5 201.214 343.237 204.374 339.406 206.711C335.583 209.042 330.27 210.5 324.375 210.5H21.625C15.7299 210.5 10.4169 209.042 6.59414 206.711C2.76262 204.374 0.5 201.214 0.5 197.813V13.1876C0.5 9.78655 2.76262 6.62604 6.59414 4.28947C10.4169 1.95824 15.7299 0.500061 21.625 0.500061Z" stroke="#FF0000" stroke-opacity="0.15"/>
</g>
<path fill-rule="evenodd" clip-rule="evenodd" d="M314.138 140.667H297.861V135.333C297.861 130.8 301.537 127.067 306 127.067C310.461 127.067 314.138 130.8 314.138 135.333V140.667ZM306 164.667C303.111 164.667 300.75 162.267 300.75 159.333C300.75 156.4 303.111 154 306 154C308.888 154 311.25 156.4 311.25 159.333C311.25 162.267 308.888 164.667 306 164.667ZM321.75 140.667H319.125V135.333C319.125 127.867 313.35 122 306 122C298.648 122 292.875 127.867 292.875 135.333V140.667H290.25C287.361 140.667 285 143.067 285 146V172.667C285 175.6 287.361 178 290.25 178H321.75C324.638 178 327 175.6 327 172.667V146C327 143.067 324.638 140.667 321.75 140.667Z" fill="#D9FF00"/>
<path d="M314.138 141.167H314.638V140.667V135.333C314.638 130.531 310.744 126.567 306 126.567C301.254 126.567 297.361 130.531 297.361 135.333V140.667V141.167H297.861H314.138ZM318.625 140.667V141.167H319.125H321.75C324.354 141.167 326.5 143.335 326.5 146V172.667C326.5 175.331 324.354 177.5 321.75 177.5H290.25C287.644 177.5 285.5 175.331 285.5 172.667V146C285.5 143.335 287.644 141.167 290.25 141.167H292.875H293.375V140.667V135.333C293.375 128.135 298.932 122.5 306 122.5C313.066 122.5 318.625 128.135 318.625 135.333V140.667ZM300.25 159.333C300.25 162.535 302.827 165.167 306 165.167C309.171 165.167 311.75 162.535 311.75 159.333C311.75 156.131 309.171 153.5 306 153.5C302.827 153.5 300.25 156.131 300.25 159.333Z" stroke="#FF0000" stroke-opacity="0.15"/>
<defs>
<filter id="filter0_di_27_280" x="0" y="-1.5" width="346" height="215.5" filterUnits="userSpaceOnUse" color-interpolation-filters="sRGB">
<feFlood flood-opacity="0" result="BackgroundImageFix"/>
<feColorMatrix in="SourceAlpha" type="matrix" values="0 0 0 0 0 0 0 0 0 0 0 0 0 0 0 0 0 0 127 0" result="hardAlpha"/>
<feOffset dy="3"/>
<feComposite in2="hardAlpha" operator="out"/>
<feColorMatrix type="matrix" values="0 0 0 0 0 0 0 0 0 0 0 0 0 0 0 0 0 0 0.2 0"/>
<feBlend mode="normal" in2="BackgroundImageFix" result="effect1_dropShadow_27_280"/>
<feBlend mode="normal" in="SourceGraphic" in2="effect1_dropShadow_27_280" result="shape"/>
<feColorMatrix in="SourceAlpha" type="matrix" values="0 0 0 0 0 0 0 0 0 0 0 0 0 0 0 0 0 0 127 0" result="hardAlpha"/>
<feOffset dy="-1.5"/>
<feGaussianBlur stdDeviation="2.5"/>
<feComposite in2="hardAlpha" operator="arithmetic" k2="-1" k3="1"/>
<feColorMatrix type="matrix" values="0 0 0 0 0 0 0 0 0 0 0 0 0 0 0 0 0 0 0.3 0"/>
<feBlend mode="normal" in2="shape" result="effect2_innerShadow_27_280"/>
</filter>
<filter id="filter1_d_27_280" x="0" y="6.10352e-05" width="692" height="214" filterUnits="userSpaceOnUse" color-interpolation-filters="sRGB">
<feFlood flood-opacity="0" result="BackgroundImageFix"/>
<feColorMatrix in="SourceAlpha" type="matrix" values="0 0 0 0 0 0 0 0 0 0 0 0 0 0 0 0 0 0 127 0" result="hardAlpha"/>
<feOffset dy="3"/>
<feComposite in2="hardAlpha" operator="out"/>
<feColorMatrix type="matrix" values="0 0 0 0 0 0 0 0 0 0 0 0 0 0 0 0 0 0 0.2 0"/>
<feBlend mode="normal" in2="BackgroundImageFix" result="effect1_dropShadow_27_280"/>
<feBlend mode="normal" in="SourceGraphic" in2="effect1_dropShadow_27_280" result="shape"/>
</filter>
</defs>
</svg>
