<svg width="440" height="301" viewBox="0 0 440 301" fill="none" xmlns="http://www.w3.org/2000/svg">
<g filter="url(#filter0_di_231_140)">
<path d="M245.976 80.3706H29V163.079L30.7902 165.586L35.8029 164.512L39.0253 165.586V183.488L41.8897 184.92L44.038 185.636H200.505L203.369 184.92H205.875V188.501L208.024 189.933H214.011H422.852V187.785L425 186.353V107.94L416.407 104.718V90.3959L413.542 86.8155L407.814 85.3833H245.976V80.3706Z" fill="#3E3737"/>
</g>
<g filter="url(#filter1_dii_231_140)">
<path d="M245.976 78.2224L229.506 77.1483L211.962 76.4322L176.873 76.7902L174.367 77.5063L172.219 78.2224L169.712 76.7902L137.488 75.7161L119.228 75.358L100.609 75L63.3725 75.7161L30.0741 76.7902L30.4322 78.9385L29 79.6546V158.425L30.0741 159.857L29.7161 162.005H39.0253V182.056H205.875V186.353H425V106.508L424.284 105.434V102.928L420.703 101.137H416.407V86.4575L414.975 84.3092V81.8029L373.441 80.3707L351.6 81.0868L330.476 80.3707H303.622L285.72 81.0868H262.805L245.976 81.8029V78.2224Z" fill="#473E3F"/>
</g>
<path opacity="0.4" d="M259.228 182.988C261.507 180.549 267.077 180.548 269.608 184.819C269.608 187.869 265.051 185.428 263.279 185.428C261.861 185.428 259.819 185.835 258.975 186.038C258.3 185.835 257.406 184.941 259.228 182.988Z" fill="url(#paint0_radial_231_140)"/>
<path opacity="0.4" d="M176.87 81.5867C174.591 84.0265 169.022 84.0272 166.49 79.7564C166.49 76.7066 171.047 79.147 172.819 79.147C174.237 79.147 176.279 78.7403 177.123 78.5369C177.798 78.7403 178.692 79.6347 176.87 81.5867Z" fill="url(#paint1_radial_231_140)"/>
<g filter="url(#filter2_dii_231_140)">
<path d="M168.641 76.79H38.3092L36.519 77.5061L35.0868 79.2964L32.2224 80.0125L32.5805 81.8027L30.4322 84.6671L29.7161 91.1119L29 92.5441V148.604L30.7902 152.696L29.7161 155.56L31.1483 159.141L30.4322 161.289L35.0868 160.931L36.519 162.005H39.0253V176.327L40.4575 178.833V180.266L42.9638 180.982L46.1863 182.056H205.875V186.352H259.918L260.456 183.488H264.018L267.782 186.352H416.612L418.913 184.562L421.42 183.846V182.414L423.568 179.191L424.284 172.747L425 169.644V110.446L423.568 107.582V103.949L421.42 103.286L420.331 102.251L417.839 101.402L417.123 101.137H416.407V92.3909L415.415 90.8255L415.801 88.7968L413.542 85.0251L413.487 83.1153L410.743 81.8027H245.976V78.5803L177.925 76.79L174.926 80.3705H171.363L168.641 76.79Z" fill="url(#paint2_linear_231_140)"/>
</g>
<g filter="url(#filter3_diii_231_140)">
<path fill-rule="evenodd" clip-rule="evenodd" d="M29 93.2344L73.3978 100.779L122.45 91.47L165.058 103.286L223.778 92.5441L277.485 103.286L336.92 92.5441L397.788 106.15L416.407 98.8801V92.3909L415.415 90.8255L415.801 88.7968L413.487 85.1447V83.1153L410.743 81.8027H245.977V78.5803L177.925 76.79L174.926 80.3705H171.363L168.641 76.79H38.3092L36.519 77.5061L35.0868 79.2964L32.2224 80.0125L32.5805 81.8027L30.4322 84.6671L29.7161 91.1119L29 92.5441V93.2344Z" fill="#5B4D4E"/>
</g>
<mask id="mask0_231_140" style="mask-type:alpha" maskUnits="userSpaceOnUse" x="29" y="76" width="396" height="111">
<path d="M168.641 76.79H38.3092L36.519 77.5061L35.0868 79.2964L32.2224 80.0125L32.5805 81.8027L30.4322 84.6671L29.7161 91.1119L29 92.5441V148.604L30.7902 152.696L29.7161 155.56L31.1483 159.141L30.4322 161.289L35.0868 160.931L36.519 162.005H39.0253V176.327L40.4575 178.833V180.266L42.9638 180.982L46.1863 182.056H205.875V186.352H259.918L260.456 183.488H264.018L267.782 186.352H416.612L418.913 184.562L421.42 183.846V182.414L423.568 179.191L424.284 172.747L425 169.644V109.014L423.568 106.508L423.926 104.002L421.162 103.949L420.331 102.251L417.839 101.402V101.137H416.407V92.3909L415.415 90.8255L415.801 88.7968L413.487 85.1447V83.1153L410.743 81.8027H245.976V78.5803L177.925 76.79L174.926 80.3705H171.363L168.641 76.79Z" fill="#594F50"/>
</mask>
<g mask="url(#mask0_231_140)">
<path opacity="0.15" d="M49.0508 145.177L50.841 125.484L60.8663 132.287H68.0273L74.8302 138.016L79.1267 140.164V151.98L74.8302 154.128L65.5209 156.634H55.8537L51.9152 148.041L49.0508 145.177Z" fill="#45332F"/>
<path opacity="0.15" d="M210.888 114.385L212.678 94.6924L222.703 101.495H229.864L236.667 107.224L240.964 109.372V121.188L236.667 123.336L227.358 125.842H217.691L213.752 117.249L210.888 114.385Z" fill="#45332F"/>
<path opacity="0.15" d="M292.521 150.19L294.312 130.497L304.337 137.3H311.498L318.301 143.029L322.597 145.177V156.993L318.301 159.141L308.992 161.647H299.324L295.386 153.054L292.521 150.19Z" fill="#45332F"/>
<path opacity="0.15" d="M189.963 198.107L179.365 181.414L191.459 180.686L197.132 176.316L206.017 176.703L210.732 175.784L217.942 185.145L215.849 189.469L210.003 197.134L202.345 203.033L193.981 198.629L189.963 198.107Z" fill="#45332F"/>
<path opacity="0.15" d="M420.487 200.701L402.722 192.019L412.647 185.072L415.196 178.38L422.971 174.062L426.508 170.811L437.55 175.017L438.028 179.796L437.057 189.388L433.616 198.422L424.184 199.044L420.487 200.701Z" fill="#45332F"/>
<path opacity="0.15" d="M401.368 85.0254L403.158 65.3328L413.184 72.1357H420.345L427.148 77.8644L431.444 80.0127V91.8282L427.148 93.9765L417.838 96.4829H408.171L404.233 87.8897L401.368 85.0254Z" fill="#45332F"/>
<path opacity="0.15" d="M34.264 61.3896L53.4367 66.2283L45.1543 75.0706L44.0379 82.1435L37.3181 87.9703L34.5268 91.8795L22.8552 90.0377L21.4029 85.4583L20.3789 75.8727L21.8856 66.3235L30.9878 63.7728L34.264 61.3896Z" fill="#45332F"/>
<path opacity="0.27" d="M67.6683 111.163L59.0752 107.787L66.2361 108.912V103.286L69.1005 107.787L76.2615 104.411L67.6683 111.163Z" fill="url(#paint3_radial_231_140)"/>
<path opacity="0.3" d="M187.904 146.494L183.621 136.458L188.736 143.082L193.89 137.288L192.225 144.11L201.463 146.099L187.904 146.494Z" fill="url(#paint4_radial_231_140)"/>
<path opacity="0.3" d="M220.196 174.179H181.527L203.791 177.759L220.196 174.179Z" fill="url(#paint5_radial_231_140)"/>
<path opacity="0.3" d="M296.818 175.611H321.166L307.147 178.476L296.818 175.611Z" fill="url(#paint6_radial_231_140)"/>
<path opacity="0.3" d="M415.095 175.377C416.223 172.765 418.466 167.435 418.413 167.018L412.613 173.044L401.508 176.036L415.095 175.377Z" fill="url(#paint7_radial_231_140)"/>
<path opacity="0.3" d="M42.25 159.578C44.235 161.088 48.2881 164.105 48.6218 164.097L44.278 157.19L42.724 144.953L42.25 159.578Z" fill="url(#paint8_radial_231_140)"/>
<path opacity="0.3" d="M136.414 174.179H95.5967L105.423 177.043L109.959 176.327L118.273 177.043L136.414 174.179Z" fill="url(#paint9_radial_231_140)"/>
<path opacity="0.3" d="M349.094 174.895H389.911L380.085 177.759L375.549 177.043L367.235 177.759L349.094 174.895Z" fill="url(#paint10_radial_231_140)"/>
</g>
<g opacity="0.8" filter="url(#filter4_ii_231_140)">
<path fill-rule="evenodd" clip-rule="evenodd" d="M37.7977 162.005L36.5187 160.215L32.5802 159.499L30.4319 155.919L31.8641 152.696L29.7158 150.19V150.241L30.79 152.696L29.7158 155.561L31.148 159.141L30.4319 161.289L35.0865 160.931L36.5187 162.005H37.7977Z" fill="#3E2F2C"/>
</g>
<g opacity="0.8" filter="url(#filter5_ii_231_140)">
<path fill-rule="evenodd" clip-rule="evenodd" d="M424.653 171.142L422.493 174.537V177.401L421.419 180.624L420.166 183.235L414.258 185.342L413.57 186.353H416.611L418.912 184.562L421.419 183.846V182.414L423.567 179.192L424.283 172.747L424.653 171.142Z" fill="#3E2F2C"/>
</g>
<g opacity="0.75" filter="url(#filter6_ii_231_140)">
<path fill-rule="evenodd" clip-rule="evenodd" d="M29 93.8568L31.1483 89.3218V86.8154V85.0252L33.2966 83.235V81.0867L34.0127 80.3706L36.1609 79.6545L36.519 78.2223L37.7127 77.0286L36.519 77.5062L35.0868 79.2964L32.2224 80.0125L32.5805 81.8028L30.4322 84.6671L29.7161 91.112L29 92.5442V93.8568Z" fill="#3E2F2C"/>
</g>
<g opacity="0.76" filter="url(#filter7_ii_231_140)">
<path fill-rule="evenodd" clip-rule="evenodd" d="M409.961 81.8027L412.467 83.2349V84.3091L413.183 86.4573L414.258 88.9637V91.47L416.406 93.3498V92.3909L415.414 90.8255L415.8 88.7968L413.541 85.0252L413.486 83.1153L410.742 81.8027H409.961ZM417.427 101.25L418.196 102.211L420.702 104.002L422.493 104.718L422.135 107.224L424.999 111.879V110.446L423.567 107.582V103.949L421.418 103.286L420.33 102.252L417.838 101.402L417.427 101.25Z" fill="#3E2F2C"/>
</g>
<g opacity="0.8" filter="url(#filter8_ii_231_140)">
<path fill-rule="evenodd" clip-rule="evenodd" d="M48.3356 182.056L41.8907 179.908L41.5327 178.476L41.1746 176.685L39.0264 174.895V176.327L40.4586 178.834V180.266L42.9649 180.982L46.1873 182.056H48.3356Z" fill="#3E2F2C"/>
</g>
<g filter="url(#filter9_d_231_140)">
<mask id="path-28-outside-1_231_140" maskUnits="userSpaceOnUse" x="63" y="85" width="334" height="88" fill="black">
<rect fill="white" x="63" y="85" width="334" height="88"/>
<path d="M69.348 117.258L76.041 124.71V145.962C76.041 147.825 76.593 148.377 78.249 148.377H81.492V153H74.799C71.418 153 69.693 151.827 69.693 149.55V125.814C65.346 120.501 64.932 120.018 64.932 119.121C64.932 118.362 65.622 117.465 69.348 112.566H77.697V117.189H69.348V117.258ZM91.9859 117.258L98.6789 124.71V148.239C98.6789 151.62 96.9539 153 93.9179 153H92.6759C88.8809 153 84.6029 151.62 84.6029 145.548C84.6029 140.097 88.9499 138.165 92.3309 137.889V125.814C87.9839 120.501 87.5699 120.018 87.5699 119.121C87.5699 118.362 88.2599 117.465 91.9859 112.566H100.335V117.189H91.9859V117.258ZM92.3309 148.377V142.581C91.0199 142.581 89.2259 143.271 89.2259 145.479C89.2259 147.687 90.8819 148.377 92.3309 148.377ZM103.308 96.075C111.726 96.075 115.866 100.077 115.866 108.219V161.763C115.866 167.145 111.45 169.836 102.756 169.836C94.0619 169.836 89.7149 167.145 89.7149 161.763V156.381H97.7879V160.383H96.0629V161.487C96.0629 163.764 98.2709 165.213 102.756 165.213C107.241 165.213 109.518 163.764 109.518 161.487V108.219C109.518 103.044 106.62 100.422 102.135 100.422C99.4439 100.422 97.3739 101.388 95.9939 103.113H89.6459V86.277H95.9939V98.007C97.7189 96.903 100.065 96.075 103.308 96.075ZM129.327 153V136.026H135.675V141.201C140.919 141.201 143.265 143.34 145.197 145.065C146.646 146.376 148.302 148.377 150.165 148.377C151.89 148.377 154.029 146.79 154.029 142.719C154.029 138.993 151.959 136.923 147.336 136.164C135.468 134.232 129.396 130.23 129.396 123.468C129.396 117.258 133.329 112.566 144.507 112.566C155.754 112.566 159.687 116.775 159.687 121.536C159.687 125.262 157.272 128.781 150.441 128.781H149.958V124.641C152.235 124.641 153.339 123.261 153.339 121.329C153.339 119.259 151.062 117.189 144.921 117.189C138.021 117.189 135.675 119.328 135.675 123.468C135.675 127.746 139.746 130.23 147.681 131.541C156.789 133.059 160.377 136.854 160.377 142.857C160.377 149.205 155.616 153 150.165 153C146.853 153 144.921 151.344 142.575 149.205C140.298 147.135 138.849 145.824 135.675 145.824V153H129.327ZM173.195 117.189V112.566H214.802C221.771 112.566 223.358 115.533 223.358 121.398V153H217.01V121.398C217.01 118.224 215.906 117.189 211.628 117.189H173.195ZM174.989 153.276C171.056 153.276 168.71 150.792 167.813 145.755L171.401 144.375C172.16 146.376 172.988 147.411 174.23 147.411C174.989 147.411 175.541 146.859 175.541 145.686C175.541 142.581 173.195 138.165 173.195 133.749C173.195 126.504 178.232 121.881 188.306 121.881C198.449 121.881 203.486 125.538 203.486 132.783V153H197.138V132.783C197.138 128.643 194.24 126.573 188.306 126.573C182.441 126.573 179.474 129.609 179.474 133.749C179.474 137.82 181.889 140.166 181.889 145.755C181.889 151.068 178.853 153.276 174.989 153.276ZM300.903 153V121.398C300.903 118.224 299.799 117.189 295.521 117.189H280.686V117.258L287.379 124.71V142.098C287.379 149.343 282.687 153 273.234 153C263.85 153 259.158 149.343 259.158 142.098V132.783C259.158 128.643 256.467 126.573 251.154 126.573C245.841 126.573 243.219 128.643 243.219 132.783V137.889C247.428 137.889 250.533 140.097 250.533 145.203C250.533 149.964 247.359 153 243.357 153H241.425C238.941 153 236.871 151.62 236.871 148.86V132.783C236.871 128.367 238.389 125.469 241.494 123.744C238.872 120.432 238.527 120.018 238.527 119.121C238.527 118.362 239.217 117.465 242.943 112.566H262.125V117.189H242.943V117.258L247.221 122.088C248.394 121.95 249.705 121.881 251.154 121.881C260.676 121.881 265.506 125.538 265.506 132.783V142.098C265.506 146.238 268.059 148.377 273.234 148.377C278.478 148.377 281.031 146.238 281.031 142.098V125.814C276.684 120.501 276.27 120.018 276.27 119.121C276.27 118.362 276.96 117.465 280.686 112.566H298.695C305.664 112.566 307.251 115.533 307.251 121.398V153H300.903ZM243.219 148.377C245.289 148.377 246.255 147.204 246.255 145.272C246.255 143.616 245.289 142.65 243.219 142.581V148.377ZM321.936 109.185C317.865 109.185 314.001 107.322 314.001 103.044C314.001 99.042 316.968 96.765 322.971 96.765V101.112C320.487 101.112 319.176 101.733 319.176 103.113C319.176 104.01 319.797 104.838 321.591 104.838C325.8 104.838 328.491 101.25 328.491 94.074H333.528C333.528 104.355 328.836 109.185 321.936 109.185ZM320.349 117.258L327.042 124.71V145.962C327.042 147.825 327.594 148.377 329.25 148.377H332.493V153H325.8C322.419 153 320.694 151.827 320.694 149.55V125.814C316.347 120.501 315.933 120.018 315.933 119.121C315.933 118.362 316.623 117.465 320.349 112.566H328.698V117.189H320.349V117.258ZM355.752 153C344.574 153 340.641 148.308 340.641 142.098V133.266L352.578 131.541C360.582 130.368 364.584 127.746 364.584 122.985C364.584 119.328 362.307 117.189 355.752 117.189C349.266 117.189 346.92 119.535 346.92 121.536C346.92 123.192 348.093 123.951 350.301 123.951V128.781H347.403C344.022 128.781 340.641 126.849 340.641 122.295C340.641 117.465 344.574 112.566 355.752 112.566C366.999 112.566 370.932 117.258 370.932 122.778C370.932 130.23 364.929 134.37 352.923 136.164L346.989 137.061V142.098C346.989 146.238 349.266 148.377 355.752 148.377C362.307 148.377 364.584 146.238 364.584 142.098V136.854H370.932V142.098C370.932 148.308 366.999 153 355.752 153ZM368.05 171.836C365.29 171.836 363.703 169.766 363.358 167.696H342.727V163.556H363.358V156.656H369.016V163.556C371.293 163.97 372.328 165.833 372.328 167.558C372.328 169.904 370.672 171.836 368.05 171.836ZM386.786 117.258L393.479 124.71V148.239C393.479 151.62 391.754 153 388.718 153H387.476C383.681 153 379.403 151.62 379.403 145.548C379.403 140.097 383.75 138.165 387.131 137.889V125.814C382.784 120.501 382.37 120.018 382.37 119.121C382.37 118.362 383.06 117.465 386.786 112.566H395.135V117.189H386.786V117.258ZM387.131 148.377V142.581C385.82 142.581 384.026 143.271 384.026 145.479C384.026 147.687 385.682 148.377 387.131 148.377Z"/>
</mask>
<path d="M69.348 117.258L76.041 124.71V145.962C76.041 147.825 76.593 148.377 78.249 148.377H81.492V153H74.799C71.418 153 69.693 151.827 69.693 149.55V125.814C65.346 120.501 64.932 120.018 64.932 119.121C64.932 118.362 65.622 117.465 69.348 112.566H77.697V117.189H69.348V117.258ZM91.9859 117.258L98.6789 124.71V148.239C98.6789 151.62 96.9539 153 93.9179 153H92.6759C88.8809 153 84.6029 151.62 84.6029 145.548C84.6029 140.097 88.9499 138.165 92.3309 137.889V125.814C87.9839 120.501 87.5699 120.018 87.5699 119.121C87.5699 118.362 88.2599 117.465 91.9859 112.566H100.335V117.189H91.9859V117.258ZM92.3309 148.377V142.581C91.0199 142.581 89.2259 143.271 89.2259 145.479C89.2259 147.687 90.8819 148.377 92.3309 148.377ZM103.308 96.075C111.726 96.075 115.866 100.077 115.866 108.219V161.763C115.866 167.145 111.45 169.836 102.756 169.836C94.0619 169.836 89.7149 167.145 89.7149 161.763V156.381H97.7879V160.383H96.0629V161.487C96.0629 163.764 98.2709 165.213 102.756 165.213C107.241 165.213 109.518 163.764 109.518 161.487V108.219C109.518 103.044 106.62 100.422 102.135 100.422C99.4439 100.422 97.3739 101.388 95.9939 103.113H89.6459V86.277H95.9939V98.007C97.7189 96.903 100.065 96.075 103.308 96.075ZM129.327 153V136.026H135.675V141.201C140.919 141.201 143.265 143.34 145.197 145.065C146.646 146.376 148.302 148.377 150.165 148.377C151.89 148.377 154.029 146.79 154.029 142.719C154.029 138.993 151.959 136.923 147.336 136.164C135.468 134.232 129.396 130.23 129.396 123.468C129.396 117.258 133.329 112.566 144.507 112.566C155.754 112.566 159.687 116.775 159.687 121.536C159.687 125.262 157.272 128.781 150.441 128.781H149.958V124.641C152.235 124.641 153.339 123.261 153.339 121.329C153.339 119.259 151.062 117.189 144.921 117.189C138.021 117.189 135.675 119.328 135.675 123.468C135.675 127.746 139.746 130.23 147.681 131.541C156.789 133.059 160.377 136.854 160.377 142.857C160.377 149.205 155.616 153 150.165 153C146.853 153 144.921 151.344 142.575 149.205C140.298 147.135 138.849 145.824 135.675 145.824V153H129.327ZM173.195 117.189V112.566H214.802C221.771 112.566 223.358 115.533 223.358 121.398V153H217.01V121.398C217.01 118.224 215.906 117.189 211.628 117.189H173.195ZM174.989 153.276C171.056 153.276 168.71 150.792 167.813 145.755L171.401 144.375C172.16 146.376 172.988 147.411 174.23 147.411C174.989 147.411 175.541 146.859 175.541 145.686C175.541 142.581 173.195 138.165 173.195 133.749C173.195 126.504 178.232 121.881 188.306 121.881C198.449 121.881 203.486 125.538 203.486 132.783V153H197.138V132.783C197.138 128.643 194.24 126.573 188.306 126.573C182.441 126.573 179.474 129.609 179.474 133.749C179.474 137.82 181.889 140.166 181.889 145.755C181.889 151.068 178.853 153.276 174.989 153.276ZM300.903 153V121.398C300.903 118.224 299.799 117.189 295.521 117.189H280.686V117.258L287.379 124.71V142.098C287.379 149.343 282.687 153 273.234 153C263.85 153 259.158 149.343 259.158 142.098V132.783C259.158 128.643 256.467 126.573 251.154 126.573C245.841 126.573 243.219 128.643 243.219 132.783V137.889C247.428 137.889 250.533 140.097 250.533 145.203C250.533 149.964 247.359 153 243.357 153H241.425C238.941 153 236.871 151.62 236.871 148.86V132.783C236.871 128.367 238.389 125.469 241.494 123.744C238.872 120.432 238.527 120.018 238.527 119.121C238.527 118.362 239.217 117.465 242.943 112.566H262.125V117.189H242.943V117.258L247.221 122.088C248.394 121.95 249.705 121.881 251.154 121.881C260.676 121.881 265.506 125.538 265.506 132.783V142.098C265.506 146.238 268.059 148.377 273.234 148.377C278.478 148.377 281.031 146.238 281.031 142.098V125.814C276.684 120.501 276.27 120.018 276.27 119.121C276.27 118.362 276.96 117.465 280.686 112.566H298.695C305.664 112.566 307.251 115.533 307.251 121.398V153H300.903ZM243.219 148.377C245.289 148.377 246.255 147.204 246.255 145.272C246.255 143.616 245.289 142.65 243.219 142.581V148.377ZM321.936 109.185C317.865 109.185 314.001 107.322 314.001 103.044C314.001 99.042 316.968 96.765 322.971 96.765V101.112C320.487 101.112 319.176 101.733 319.176 103.113C319.176 104.01 319.797 104.838 321.591 104.838C325.8 104.838 328.491 101.25 328.491 94.074H333.528C333.528 104.355 328.836 109.185 321.936 109.185ZM320.349 117.258L327.042 124.71V145.962C327.042 147.825 327.594 148.377 329.25 148.377H332.493V153H325.8C322.419 153 320.694 151.827 320.694 149.55V125.814C316.347 120.501 315.933 120.018 315.933 119.121C315.933 118.362 316.623 117.465 320.349 112.566H328.698V117.189H320.349V117.258ZM355.752 153C344.574 153 340.641 148.308 340.641 142.098V133.266L352.578 131.541C360.582 130.368 364.584 127.746 364.584 122.985C364.584 119.328 362.307 117.189 355.752 117.189C349.266 117.189 346.92 119.535 346.92 121.536C346.92 123.192 348.093 123.951 350.301 123.951V128.781H347.403C344.022 128.781 340.641 126.849 340.641 122.295C340.641 117.465 344.574 112.566 355.752 112.566C366.999 112.566 370.932 117.258 370.932 122.778C370.932 130.23 364.929 134.37 352.923 136.164L346.989 137.061V142.098C346.989 146.238 349.266 148.377 355.752 148.377C362.307 148.377 364.584 146.238 364.584 142.098V136.854H370.932V142.098C370.932 148.308 366.999 153 355.752 153ZM368.05 171.836C365.29 171.836 363.703 169.766 363.358 167.696H342.727V163.556H363.358V156.656H369.016V163.556C371.293 163.97 372.328 165.833 372.328 167.558C372.328 169.904 370.672 171.836 368.05 171.836ZM386.786 117.258L393.479 124.71V148.239C393.479 151.62 391.754 153 388.718 153H387.476C383.681 153 379.403 151.62 379.403 145.548C379.403 140.097 383.75 138.165 387.131 137.889V125.814C382.784 120.501 382.37 120.018 382.37 119.121C382.37 118.362 383.06 117.465 386.786 112.566H395.135V117.189H386.786V117.258ZM387.131 148.377V142.581C385.82 142.581 384.026 143.271 384.026 145.479C384.026 147.687 385.682 148.377 387.131 148.377Z" fill="url(#paint11_linear_231_140)"/>
<path d="M69.348 117.258H68.348V117.641L68.604 117.926L69.348 117.258ZM76.041 124.71H77.041V124.327L76.785 124.042L76.041 124.71ZM81.492 148.377H82.492V147.377H81.492V148.377ZM81.492 153V154H82.492V153H81.492ZM69.693 125.814H70.693V125.457L70.467 125.181L69.693 125.814ZM69.348 112.566V111.566H68.8522L68.5521 111.961L69.348 112.566ZM77.697 112.566H78.697V111.566H77.697V112.566ZM77.697 117.189V118.189H78.697V117.189H77.697ZM69.348 117.189V116.189H68.348V117.189H69.348ZM68.604 117.926L75.297 125.378L76.785 124.042L70.092 116.59L68.604 117.926ZM75.041 124.71V145.962H77.041V124.71H75.041ZM75.041 145.962C75.041 146.926 75.1678 147.878 75.7918 148.549C76.4379 149.244 77.3674 149.377 78.249 149.377V147.377C77.4746 147.377 77.3001 147.234 77.2562 147.187C77.1902 147.116 77.041 146.861 77.041 145.962H75.041ZM78.249 149.377H81.492V147.377H78.249V149.377ZM80.492 148.377V153H82.492V148.377H80.492ZM81.492 152H74.799V154H81.492V152ZM74.799 152C73.1946 152 72.1529 151.716 71.5386 151.301C70.9904 150.93 70.693 150.396 70.693 149.55H68.693C68.693 150.981 69.2581 152.172 70.4176 152.957C71.5111 153.697 73.0224 154 74.799 154V152ZM70.693 149.55V125.814H68.693V149.55H70.693ZM70.467 125.181C68.2792 122.507 67.1172 121.092 66.4935 120.227C66.1822 119.795 66.0485 119.559 65.9868 119.411C65.9412 119.303 65.932 119.24 65.932 119.121H63.932C63.932 119.45 63.9746 119.785 64.1425 120.185C64.2941 120.546 64.5356 120.931 64.8713 121.396C65.5413 122.325 66.7598 123.808 68.919 126.447L70.467 125.181ZM65.932 119.121C65.932 119.087 65.9191 118.908 66.5677 117.961C67.188 117.056 68.2711 115.634 70.1439 113.171L68.5521 111.961C66.6989 114.397 65.574 115.873 64.9178 116.831C64.2899 117.747 63.932 118.396 63.932 119.121H65.932ZM69.348 113.566H77.697V111.566H69.348V113.566ZM76.697 112.566V117.189H78.697V112.566H76.697ZM77.697 116.189H69.348V118.189H77.697V116.189ZM68.348 117.189V117.258H70.348V117.189H68.348ZM91.9859 117.258H90.9859V117.641L91.242 117.926L91.9859 117.258ZM98.6789 124.71H99.6789V124.327L99.4229 124.042L98.6789 124.71ZM92.3309 137.889L92.4123 138.886L93.3309 138.811V137.889H92.3309ZM92.3309 125.814H93.3309V125.457L93.1049 125.181L92.3309 125.814ZM91.9859 112.566V111.566H91.4901L91.19 111.961L91.9859 112.566ZM100.335 112.566H101.335V111.566H100.335V112.566ZM100.335 117.189V118.189H101.335V117.189H100.335ZM91.9859 117.189V116.189H90.9859V117.189H91.9859ZM92.3309 148.377V149.377H93.3309V148.377H92.3309ZM92.3309 142.581H93.3309V141.581H92.3309V142.581ZM91.242 117.926L97.935 125.378L99.4229 124.042L92.7299 116.59L91.242 117.926ZM97.6789 124.71V148.239H99.6789V124.71H97.6789ZM97.6789 148.239C97.6789 149.77 97.29 150.649 96.7494 151.161C96.1984 151.683 95.3044 152 93.9179 152V154C95.5674 154 97.054 153.627 98.1245 152.614C99.2054 151.59 99.6789 150.089 99.6789 148.239H97.6789ZM93.9179 152H92.6759V154H93.9179V152ZM92.6759 152C90.87 152 89.0969 151.666 87.798 150.738C86.5603 149.853 85.6029 148.319 85.6029 145.548H83.6029C83.6029 148.849 84.7846 151.041 86.6346 152.364C88.4235 153.644 90.6869 154 92.6759 154V152ZM85.6029 145.548C85.6029 143.128 86.5497 141.571 87.821 140.561C89.1311 139.52 90.8542 139.013 92.4123 138.886L92.2496 136.892C90.4266 137.041 88.2857 137.638 86.5771 138.995C84.8296 140.383 83.6029 142.517 83.6029 145.548H85.6029ZM93.3309 137.889V125.814H91.3309V137.889H93.3309ZM93.1049 125.181C90.9172 122.507 89.7552 121.092 89.1314 120.227C88.8202 119.795 88.6865 119.559 88.6247 119.411C88.5791 119.303 88.5699 119.24 88.5699 119.121H86.5699C86.5699 119.45 86.6125 119.785 86.7804 120.185C86.9321 120.546 87.1736 120.931 87.5092 121.396C88.1792 122.325 89.3977 123.808 91.557 126.447L93.1049 125.181ZM88.5699 119.121C88.5699 119.087 88.5571 118.908 89.2056 117.961C89.8259 117.056 90.909 115.634 92.7819 113.171L91.19 111.961C89.3368 114.397 88.212 115.873 87.5557 116.831C86.9278 117.747 86.5699 118.396 86.5699 119.121H88.5699ZM91.9859 113.566H100.335V111.566H91.9859V113.566ZM99.3349 112.566V117.189H101.335V112.566H99.3349ZM100.335 116.189H91.9859V118.189H100.335V116.189ZM90.9859 117.189V117.258H92.9859V117.189H90.9859ZM93.3309 148.377V142.581H91.3309V148.377H93.3309ZM92.3309 141.581C91.5253 141.581 90.524 141.789 89.6959 142.395C88.8223 143.035 88.2259 144.061 88.2259 145.479H90.2259C90.2259 144.689 90.5265 144.266 90.8777 144.009C91.2743 143.718 91.8255 143.581 92.3309 143.581V141.581ZM88.2259 145.479C88.2259 146.867 88.7643 147.9 89.6332 148.555C90.4569 149.175 91.4702 149.377 92.3309 149.377V147.377C91.7426 147.377 91.2035 147.234 90.8369 146.957C90.5155 146.715 90.2259 146.299 90.2259 145.479H88.2259ZM89.7149 156.381V155.381H88.7149V156.381H89.7149ZM97.7879 156.381H98.7879V155.381H97.7879V156.381ZM97.7879 160.383V161.383H98.7879V160.383H97.7879ZM96.0629 160.383V159.383H95.0629V160.383H96.0629ZM95.9939 103.113V104.113H96.4745L96.7747 103.738L95.9939 103.113ZM89.6459 103.113H88.6459V104.113H89.6459V103.113ZM89.6459 86.277V85.277H88.6459V86.277H89.6459ZM95.9939 86.277H96.9939V85.277H95.9939V86.277ZM95.9939 98.007H94.9939V99.8343L96.5329 98.8493L95.9939 98.007ZM103.308 97.075C107.375 97.075 110.218 98.0426 112.048 99.8126C113.873 101.576 114.866 104.306 114.866 108.219H116.866C116.866 103.989 115.789 100.648 113.439 98.3749C111.095 96.1084 107.659 95.075 103.308 95.075V97.075ZM114.866 108.219V161.763H116.866V108.219H114.866ZM114.866 161.763C114.866 164.124 113.928 165.811 112.048 166.966C110.089 168.169 107.032 168.836 102.756 168.836V170.836C107.174 170.836 110.672 170.158 113.094 168.67C115.596 167.134 116.866 164.784 116.866 161.763H114.866ZM102.756 168.836C98.4796 168.836 95.4413 168.168 93.5015 166.967C91.6407 165.816 90.7149 164.13 90.7149 161.763H88.7149C88.7149 164.778 89.9625 167.129 92.4488 168.668C94.8559 170.158 98.3381 170.836 102.756 170.836V168.836ZM90.7149 161.763V156.381H88.7149V161.763H90.7149ZM89.7149 157.381H97.7879V155.381H89.7149V157.381ZM96.7879 156.381V160.383H98.7879V156.381H96.7879ZM97.7879 159.383H96.0629V161.383H97.7879V159.383ZM95.0629 160.383V161.487H97.0629V160.383H95.0629ZM95.0629 161.487C95.0629 163.018 95.8367 164.261 97.2249 165.068C98.5551 165.842 100.431 166.213 102.756 166.213V164.213C100.595 164.213 99.1251 163.86 98.2301 163.339C97.393 162.853 97.0629 162.233 97.0629 161.487H95.0629ZM102.756 166.213C105.081 166.213 106.971 165.841 108.316 165.072C109.714 164.271 110.518 163.03 110.518 161.487H108.518C108.518 162.221 108.183 162.843 107.322 163.336C106.407 163.86 104.916 164.213 102.756 164.213V166.213ZM110.518 161.487V108.219H108.518V161.487H110.518ZM110.518 108.219C110.518 105.448 109.739 103.217 108.22 101.677C106.7 100.138 104.57 99.422 102.135 99.422V101.422C104.184 101.422 105.746 102.017 106.796 103.082C107.848 104.148 108.518 105.815 108.518 108.219H110.518ZM102.135 99.422C99.1843 99.422 96.8088 100.494 95.213 102.488L96.7747 103.738C97.9389 102.282 99.7034 101.422 102.135 101.422V99.422ZM95.9939 102.113H89.6459V104.113H95.9939V102.113ZM90.6459 103.113V86.277H88.6459V103.113H90.6459ZM89.6459 87.277H95.9939V85.277H89.6459V87.277ZM94.9939 86.277V98.007H96.9939V86.277H94.9939ZM96.5329 98.8493C98.0896 97.853 100.247 97.075 103.308 97.075V95.075C99.8827 95.075 97.3481 95.953 95.4548 97.1647L96.5329 98.8493ZM129.327 153H128.327V154H129.327V153ZM129.327 136.026V135.026H128.327V136.026H129.327ZM135.675 136.026H136.675V135.026H135.675V136.026ZM135.675 141.201H134.675V142.201H135.675V141.201ZM145.197 145.065L145.868 144.323L145.863 144.319L145.197 145.065ZM147.336 136.164L147.498 135.177L147.496 135.177L147.336 136.164ZM149.958 128.781H148.958V129.781H149.958V128.781ZM149.958 124.641V123.641H148.958V124.641H149.958ZM147.681 131.541L147.845 130.555L147.844 130.554L147.681 131.541ZM142.575 149.205L143.249 148.466L143.247 148.465L142.575 149.205ZM135.675 145.824V144.824H134.675V145.824H135.675ZM135.675 153V154H136.675V153H135.675ZM130.327 153V136.026H128.327V153H130.327ZM129.327 137.026H135.675V135.026H129.327V137.026ZM134.675 136.026V141.201H136.675V136.026H134.675ZM135.675 142.201C138.151 142.201 139.892 142.704 141.226 143.378C142.577 144.062 143.557 144.941 144.531 145.811L145.863 144.319C144.905 143.464 143.745 142.411 142.129 141.594C140.496 140.768 138.443 140.201 135.675 140.201V142.201ZM144.526 145.807C145.151 146.372 146.055 147.315 146.9 147.993C147.774 148.694 148.881 149.377 150.165 149.377V147.377C149.586 147.377 148.933 147.06 148.151 146.433C147.34 145.782 146.692 145.069 145.868 144.323L144.526 145.807ZM150.165 149.377C151.336 149.377 152.58 148.839 153.514 147.713C154.447 146.586 155.029 144.927 155.029 142.719H153.029C153.029 144.582 152.541 145.752 151.974 146.437C151.406 147.122 150.719 147.377 150.165 147.377V149.377ZM155.029 142.719C155.029 140.659 154.449 138.927 153.117 137.616C151.814 136.334 149.909 135.573 147.498 135.177L147.174 137.151C149.385 137.514 150.827 138.168 151.714 139.042C152.573 139.887 153.029 141.053 153.029 142.719H155.029ZM147.496 135.177C141.618 134.22 137.307 132.768 134.486 130.806C131.72 128.883 130.396 126.483 130.396 123.468H128.396C128.396 127.215 130.107 130.197 133.344 132.448C136.527 134.661 141.186 136.176 147.175 137.151L147.496 135.177ZM130.396 123.468C130.396 120.585 131.299 118.177 133.393 116.462C135.523 114.718 139.035 113.566 144.507 113.566V111.566C138.801 111.566 134.757 112.76 132.126 114.915C129.46 117.098 128.396 120.141 128.396 123.468H130.396ZM144.507 113.566C150.029 113.566 153.592 114.603 155.747 116.089C157.852 117.541 158.687 119.468 158.687 121.536H160.687C160.687 118.843 159.555 116.285 156.882 114.442C154.258 112.633 150.231 111.566 144.507 111.566V113.566ZM158.687 121.536C158.687 123.182 158.158 124.703 156.947 125.821C155.73 126.945 153.692 127.781 150.441 127.781V129.781C154.021 129.781 156.606 128.858 158.304 127.291C160.008 125.717 160.687 123.616 160.687 121.536H158.687ZM150.441 127.781H149.958V129.781H150.441V127.781ZM150.958 128.781V124.641H148.958V128.781H150.958ZM149.958 125.641C151.303 125.641 152.434 125.228 153.225 124.4C154.008 123.581 154.339 122.48 154.339 121.329H152.339C152.339 122.11 152.118 122.665 151.779 123.019C151.449 123.364 150.89 123.641 149.958 123.641V125.641ZM154.339 121.329C154.339 119.871 153.517 118.537 151.935 117.618C150.386 116.718 148.083 116.189 144.921 116.189V118.189C147.9 118.189 149.806 118.695 150.931 119.348C152.022 119.981 152.339 120.717 152.339 121.329H154.339ZM144.921 116.189C141.412 116.189 138.834 116.724 137.123 117.967C135.331 119.268 134.675 121.198 134.675 123.468H136.675C136.675 121.598 137.192 120.388 138.298 119.585C139.484 118.724 141.53 118.189 144.921 118.189V116.189ZM134.675 123.468C134.675 126.001 135.914 127.982 138.153 129.453C140.338 130.888 143.504 131.865 147.518 132.528L147.844 130.554C143.922 129.906 141.086 128.986 139.251 127.781C137.472 126.613 136.675 125.213 136.675 123.468H134.675ZM147.516 132.527C151.98 133.271 154.933 134.551 156.764 136.25C158.556 137.913 159.377 140.075 159.377 142.857H161.377C161.377 139.636 160.403 136.899 158.125 134.784C155.884 132.705 152.489 131.329 147.845 130.555L147.516 132.527ZM159.377 142.857C159.377 148.586 155.132 152 150.165 152V154C156.099 154 161.377 149.824 161.377 142.857H159.377ZM150.165 152C147.275 152 145.599 150.609 143.249 148.466L141.901 149.944C144.242 152.079 146.431 154 150.165 154V152ZM143.247 148.465C142.13 147.449 141.113 146.519 139.951 145.866C138.746 145.189 137.42 144.824 135.675 144.824V146.824C137.104 146.824 138.089 147.114 138.971 147.61C139.897 148.13 140.742 148.891 141.902 149.945L143.247 148.465ZM134.675 145.824V153H136.675V145.824H134.675ZM135.675 152H129.327V154H135.675V152ZM173.195 117.189H172.195V118.189H173.195V117.189ZM173.195 112.566V111.566H172.195V112.566H173.195ZM223.358 153V154H224.358V153H223.358ZM217.01 153H216.01V154H217.01V153ZM167.813 145.755L167.454 144.822L166.683 145.118L166.828 145.93L167.813 145.755ZM171.401 144.375L172.336 144.02L171.979 143.081L171.042 143.442L171.401 144.375ZM203.486 153V154H204.486V153H203.486ZM197.138 153H196.138V154H197.138V153ZM174.195 117.189V112.566H172.195V117.189H174.195ZM173.195 113.566H214.802V111.566H173.195V113.566ZM214.802 113.566C218.182 113.566 219.952 114.291 220.935 115.435C221.95 116.616 222.358 118.496 222.358 121.398H224.358C224.358 118.434 223.972 115.899 222.451 114.131C220.898 112.324 218.39 111.566 214.802 111.566V113.566ZM222.358 121.398V153H224.358V121.398H222.358ZM223.358 152H217.01V154H223.358V152ZM218.01 153V121.398H216.01V153H218.01ZM218.01 121.398C218.01 119.749 217.735 118.283 216.552 117.326C215.443 116.429 213.769 116.189 211.628 116.189V118.189C213.764 118.189 214.781 118.466 215.294 118.881C215.732 119.235 216.01 119.873 216.01 121.398H218.01ZM211.628 116.189H173.195V118.189H211.628V116.189ZM174.989 152.276C173.254 152.276 171.961 151.739 170.986 150.715C169.983 149.661 169.227 147.995 168.797 145.58L166.828 145.93C167.295 148.552 168.161 150.647 169.538 152.094C170.944 153.571 172.79 154.276 174.989 154.276V152.276ZM168.172 146.688L171.76 145.308L171.042 143.442L167.454 144.822L168.172 146.688ZM170.466 144.73C170.86 145.768 171.309 146.665 171.89 147.312C172.504 147.995 173.279 148.411 174.23 148.411V146.411C173.938 146.411 173.678 146.31 173.378 145.975C173.045 145.604 172.701 144.983 172.336 144.02L170.466 144.73ZM174.23 148.411C174.869 148.411 175.497 148.167 175.944 147.622C176.37 147.101 176.541 146.416 176.541 145.686H174.541C174.541 146.129 174.435 146.307 174.396 146.355C174.377 146.379 174.349 146.411 174.23 146.411V148.411ZM176.541 145.686C176.541 143.956 175.894 141.903 175.329 139.933C174.741 137.884 174.195 135.8 174.195 133.749H172.195C172.195 136.114 172.821 138.446 173.406 140.485C174.014 142.604 174.541 144.311 174.541 145.686H176.541ZM174.195 133.749C174.195 130.375 175.356 127.713 177.606 125.872C179.884 124.007 183.405 122.881 188.306 122.881V120.881C183.132 120.881 179.097 122.066 176.339 124.324C173.552 126.606 172.195 129.878 172.195 133.749H174.195ZM188.306 122.881C193.287 122.881 196.834 123.784 199.115 125.427C201.335 127.025 202.486 129.421 202.486 132.783H204.486C204.486 128.9 203.118 125.845 200.284 123.804C197.51 121.806 193.467 120.881 188.306 120.881V122.881ZM202.486 132.783V153H204.486V132.783H202.486ZM203.486 152H197.138V154H203.486V152ZM198.138 153V132.783H196.138V153H198.138ZM198.138 132.783C198.138 130.449 197.301 128.564 195.524 127.309C193.811 126.1 191.358 125.573 188.306 125.573V127.573C191.188 127.573 193.15 128.081 194.37 128.942C195.525 129.757 196.138 130.977 196.138 132.783H198.138ZM188.306 125.573C185.209 125.573 182.743 126.375 181.036 127.852C179.314 129.343 178.474 131.427 178.474 133.749H180.474C180.474 131.931 181.117 130.427 182.345 129.365C183.588 128.289 185.538 127.573 188.306 127.573V125.573ZM178.474 133.749C178.474 135.981 179.144 137.751 179.733 139.502C180.325 141.261 180.889 143.123 180.889 145.755H182.889C182.889 142.798 182.244 140.693 181.629 138.864C181.011 137.027 180.474 135.588 180.474 133.749H178.474ZM180.889 145.755C180.889 148.221 180.188 149.814 179.188 150.793C178.182 151.779 176.736 152.276 174.989 152.276V154.276C177.105 154.276 179.11 153.669 180.587 152.222C182.071 150.77 182.889 148.602 182.889 145.755H180.889ZM300.903 153H299.903V154H300.903V153ZM280.686 117.189V116.189H279.686V117.189H280.686ZM280.686 117.258H279.686V117.641L279.942 117.926L280.686 117.258ZM287.379 124.71H288.379V124.327L288.123 124.042L287.379 124.71ZM243.219 137.889H242.219V138.889H243.219V137.889ZM241.494 123.744L241.98 124.618L243.009 124.046L242.278 123.123L241.494 123.744ZM242.943 112.566V111.566H242.448L242.147 111.961L242.943 112.566ZM262.125 112.566H263.125V111.566H262.125V112.566ZM262.125 117.189V118.189H263.125V117.189H262.125ZM242.943 117.189V116.189H241.943V117.189H242.943ZM242.943 117.258H241.943V117.637L242.195 117.921L242.943 117.258ZM247.221 122.088L246.473 122.751L246.819 123.142L247.338 123.081L247.221 122.088ZM281.031 125.814H282.031V125.457L281.805 125.181L281.031 125.814ZM280.686 112.566V111.566H280.191L279.89 111.961L280.686 112.566ZM307.251 153V154H308.251V153H307.251ZM243.219 148.377H242.219V149.377H243.219V148.377ZM243.219 142.581L243.253 141.582L242.219 141.547V142.581H243.219ZM301.903 153V121.398H299.903V153H301.903ZM301.903 121.398C301.903 119.749 301.629 118.283 300.445 117.326C299.337 116.429 297.663 116.189 295.521 116.189V118.189C297.658 118.189 298.675 118.466 299.188 118.881C299.626 119.235 299.903 119.873 299.903 121.398H301.903ZM295.521 116.189H280.686V118.189H295.521V116.189ZM279.686 117.189V117.258H281.686V117.189H279.686ZM279.942 117.926L286.635 125.378L288.123 124.042L281.43 116.59L279.942 117.926ZM286.379 124.71V142.098H288.379V124.71H286.379ZM286.379 142.098C286.379 145.487 285.295 147.886 283.24 149.475C281.137 151.101 277.86 152 273.234 152V154C278.062 154 281.858 153.071 284.463 151.057C287.118 149.006 288.379 145.954 288.379 142.098H286.379ZM273.234 152C268.645 152 265.386 151.101 263.29 149.476C261.243 147.887 260.158 145.488 260.158 142.098H258.158C258.158 145.953 259.42 149.005 262.064 151.056C264.661 153.07 268.44 154 273.234 154V152ZM260.158 142.098V132.783H258.158V142.098H260.158ZM260.158 132.783C260.158 130.479 259.396 128.601 257.761 127.335C256.174 126.106 253.913 125.573 251.154 125.573V127.573C253.708 127.573 255.45 128.075 256.537 128.916C257.575 129.72 258.158 130.947 258.158 132.783H260.158ZM251.154 125.573C248.396 125.573 246.149 126.106 244.577 127.339C242.958 128.608 242.219 130.487 242.219 132.783H244.219C244.219 130.939 244.791 129.713 245.812 128.912C246.879 128.075 248.6 127.573 251.154 127.573V125.573ZM242.219 132.783V137.889H244.219V132.783H242.219ZM243.219 138.889C245.16 138.889 246.717 139.398 247.78 140.369C248.827 141.327 249.533 142.859 249.533 145.203H251.533C251.533 142.441 250.687 140.316 249.129 138.893C247.588 137.484 245.487 136.889 243.219 136.889V138.889ZM249.533 145.203C249.533 149.455 246.765 152 243.357 152V154C247.954 154 251.533 150.473 251.533 145.203H249.533ZM243.357 152H241.425V154H243.357V152ZM241.425 152C240.358 152 239.464 151.703 238.857 151.197C238.274 150.711 237.871 149.966 237.871 148.86H235.871C235.871 150.514 236.504 151.839 237.577 152.733C238.626 153.607 240.009 154 241.425 154V152ZM237.871 148.86V132.783H235.871V148.86H237.871ZM237.871 132.783C237.871 130.686 238.232 129.025 238.908 127.712C239.577 126.41 240.585 125.393 241.98 124.618L241.009 122.87C239.299 123.82 237.995 125.114 237.129 126.797C236.27 128.468 235.871 130.464 235.871 132.783H237.871ZM242.278 123.123C240.949 121.443 240.246 120.56 239.863 119.977C239.679 119.697 239.604 119.538 239.57 119.436C239.541 119.35 239.527 119.27 239.527 119.121H237.527C237.527 119.42 237.557 119.729 237.675 120.076C237.787 120.407 237.963 120.727 238.192 121.076C238.637 121.753 239.418 122.733 240.71 124.365L242.278 123.123ZM239.527 119.121C239.527 119.087 239.515 118.908 240.163 117.961C240.783 117.056 241.866 115.634 243.739 113.171L242.147 111.961C240.294 114.397 239.169 115.873 238.513 116.831C237.885 117.747 237.527 118.396 237.527 119.121H239.527ZM242.943 113.566H262.125V111.566H242.943V113.566ZM261.125 112.566V117.189H263.125V112.566H261.125ZM262.125 116.189H242.943V118.189H262.125V116.189ZM241.943 117.189V117.258H243.943V117.189H241.943ZM242.195 117.921L246.473 122.751L247.97 121.425L243.692 116.595L242.195 117.921ZM247.338 123.081C248.465 122.949 249.736 122.881 251.154 122.881V120.881C249.675 120.881 248.324 120.951 247.105 121.095L247.338 123.081ZM251.154 122.881C255.815 122.881 259.148 123.781 261.297 125.412C263.395 127.004 264.506 129.404 264.506 132.783H266.506C266.506 128.917 265.203 125.866 262.506 123.819C259.859 121.81 256.016 120.881 251.154 120.881V122.881ZM264.506 132.783V142.098H266.506V132.783H264.506ZM264.506 142.098C264.506 144.384 265.221 146.274 266.796 147.564C268.334 148.823 270.534 149.377 273.234 149.377V147.377C270.76 147.377 269.096 146.862 268.063 146.016C267.068 145.202 266.506 143.952 266.506 142.098H264.506ZM273.234 149.377C275.967 149.377 278.184 148.824 279.73 147.566C281.316 146.276 282.031 144.384 282.031 142.098H280.031C280.031 143.952 279.47 145.2 278.468 146.014C277.428 146.861 275.746 147.377 273.234 147.377V149.377ZM282.031 142.098V125.814H280.031V142.098H282.031ZM281.805 125.181C279.618 122.507 278.456 121.092 277.832 120.227C277.521 119.795 277.387 119.559 277.325 119.411C277.28 119.303 277.27 119.24 277.27 119.121H275.27C275.27 119.45 275.313 119.785 275.481 120.185C275.633 120.546 275.874 120.931 276.21 121.396C276.88 122.325 278.098 123.808 280.257 126.447L281.805 125.181ZM277.27 119.121C277.27 119.087 277.258 118.908 277.906 117.961C278.526 117.056 279.609 115.634 281.482 113.171L279.89 111.961C278.037 114.397 276.912 115.873 276.256 116.831C275.628 117.747 275.27 118.396 275.27 119.121H277.27ZM280.686 113.566H298.695V111.566H280.686V113.566ZM298.695 113.566C302.076 113.566 303.846 114.291 304.828 115.435C305.844 116.616 306.251 118.496 306.251 121.398H308.251C308.251 118.434 307.865 115.899 306.345 114.131C304.792 112.324 302.284 111.566 298.695 111.566V113.566ZM306.251 121.398V153H308.251V121.398H306.251ZM307.251 152H300.903V154H307.251V152ZM243.219 149.377C244.442 149.377 245.501 149.026 246.244 148.232C246.975 147.45 247.255 146.392 247.255 145.272H245.255C245.255 146.084 245.052 146.578 244.783 146.866C244.525 147.142 244.067 147.377 243.219 147.377V149.377ZM247.255 145.272C247.255 144.245 246.949 143.289 246.188 142.593C245.448 141.917 244.421 141.62 243.253 141.582L243.186 143.58C244.088 143.611 244.579 143.832 244.839 144.07C245.078 144.288 245.255 144.643 245.255 145.272H247.255ZM242.219 142.581V148.377H244.219V142.581H242.219ZM322.971 96.765H323.971V95.765H322.971V96.765ZM322.971 101.112V102.112H323.971V101.112H322.971ZM328.491 94.074V93.074H327.491V94.074H328.491ZM333.528 94.074H334.528V93.074H333.528V94.074ZM320.349 117.258H319.349V117.641L319.605 117.926L320.349 117.258ZM327.042 124.71H328.042V124.327L327.786 124.042L327.042 124.71ZM332.493 148.377H333.493V147.377H332.493V148.377ZM332.493 153V154H333.493V153H332.493ZM320.694 125.814H321.694V125.457L321.468 125.181L320.694 125.814ZM320.349 112.566V111.566H319.853L319.553 111.961L320.349 112.566ZM328.698 112.566H329.698V111.566H328.698V112.566ZM328.698 117.189V118.189H329.698V117.189H328.698ZM320.349 117.189V116.189H319.349V117.189H320.349ZM321.936 108.185C320.033 108.185 318.264 107.747 317.003 106.891C315.784 106.064 315.001 104.83 315.001 103.044H313.001C313.001 105.536 314.149 107.372 315.88 108.546C317.569 109.692 319.768 110.185 321.936 110.185V108.185ZM315.001 103.044C315.001 101.323 315.62 100.075 316.817 99.2165C318.069 98.3195 320.07 97.765 322.971 97.765V95.765C319.869 95.765 317.385 96.349 315.652 97.591C313.865 98.8717 313.001 100.763 313.001 103.044H315.001ZM321.971 96.765V101.112H323.971V96.765H321.971ZM322.971 100.112C321.68 100.112 320.538 100.268 319.685 100.705C319.243 100.932 318.854 101.248 318.578 101.678C318.299 102.113 318.176 102.603 318.176 103.113H320.176C320.176 102.933 320.216 102.828 320.262 102.758C320.309 102.683 320.402 102.585 320.599 102.485C321.023 102.267 321.778 102.112 322.971 102.112V100.112ZM318.176 103.113C318.176 103.803 318.423 104.536 319.067 105.077C319.689 105.6 320.555 105.838 321.591 105.838V103.838C320.833 103.838 320.491 103.662 320.354 103.547C320.239 103.45 320.176 103.32 320.176 103.113H318.176ZM321.591 105.838C324.026 105.838 326.064 104.777 327.451 102.703C328.803 100.679 329.491 97.7639 329.491 94.074H327.491C327.491 97.5601 326.834 100.027 325.788 101.591C324.777 103.105 323.365 103.838 321.591 103.838V105.838ZM328.491 95.074H333.528V93.074H328.491V95.074ZM332.528 94.074C332.528 99.0786 331.384 102.6 329.545 104.852C327.729 107.076 325.136 108.185 321.936 108.185V110.185C325.636 110.185 328.839 108.879 331.094 106.117C333.326 103.385 334.528 99.3504 334.528 94.074H332.528ZM319.605 117.926L326.298 125.378L327.786 124.042L321.093 116.59L319.605 117.926ZM326.042 124.71V145.962H328.042V124.71H326.042ZM326.042 145.962C326.042 146.926 326.169 147.878 326.793 148.549C327.439 149.244 328.368 149.377 329.25 149.377V147.377C328.476 147.377 328.301 147.234 328.257 147.187C328.191 147.116 328.042 146.861 328.042 145.962H326.042ZM329.25 149.377H332.493V147.377H329.25V149.377ZM331.493 148.377V153H333.493V148.377H331.493ZM332.493 152H325.8V154H332.493V152ZM325.8 152C324.196 152 323.154 151.716 322.54 151.301C321.991 150.93 321.694 150.396 321.694 149.55H319.694C319.694 150.981 320.259 152.172 321.419 152.957C322.512 153.697 324.023 154 325.8 154V152ZM321.694 149.55V125.814H319.694V149.55H321.694ZM321.468 125.181C319.28 122.507 318.118 121.092 317.494 120.227C317.183 119.795 317.05 119.559 316.988 119.411C316.942 119.303 316.933 119.24 316.933 119.121H314.933C314.933 119.45 314.976 119.785 315.143 120.185C315.295 120.546 315.537 120.931 315.872 121.396C316.542 122.325 317.761 123.808 319.92 126.447L321.468 125.181ZM316.933 119.121C316.933 119.087 316.92 118.908 317.569 117.961C318.189 117.056 319.272 115.634 321.145 113.171L319.553 111.961C317.7 114.397 316.575 115.873 315.919 116.831C315.291 117.747 314.933 118.396 314.933 119.121H316.933ZM320.349 113.566H328.698V111.566H320.349V113.566ZM327.698 112.566V117.189H329.698V112.566H327.698ZM328.698 116.189H320.349V118.189H328.698V116.189ZM319.349 117.189V117.258H321.349V117.189H319.349ZM340.641 133.266L340.498 132.276L339.641 132.4V133.266H340.641ZM352.578 131.541L352.721 132.531L352.723 132.53L352.578 131.541ZM350.301 123.951H351.301V122.951H350.301V123.951ZM350.301 128.781V129.781H351.301V128.781H350.301ZM352.923 136.164L352.775 135.175L352.773 135.175L352.923 136.164ZM346.989 137.061L346.839 136.072L345.989 136.201V137.061H346.989ZM364.584 136.854V135.854H363.584V136.854H364.584ZM370.932 136.854H371.932V135.854H370.932V136.854ZM355.752 152C350.28 152 346.768 150.848 344.638 149.104C342.544 147.389 341.641 144.981 341.641 142.098H339.641C339.641 145.425 340.705 148.468 343.371 150.651C346.002 152.806 350.046 154 355.752 154V152ZM341.641 142.098V133.266H339.641V142.098H341.641ZM340.784 134.256L352.721 132.531L352.435 130.551L340.498 132.276L340.784 134.256ZM352.723 132.53C356.779 131.936 359.964 130.958 362.155 129.428C364.41 127.854 365.584 125.709 365.584 122.985H363.584C363.584 125.022 362.757 126.569 361.01 127.789C359.199 129.053 356.381 129.973 352.433 130.552L352.723 132.53ZM365.584 122.985C365.584 120.927 364.927 119.13 363.207 117.902C361.564 116.728 359.1 116.189 355.752 116.189V118.189C358.959 118.189 360.911 118.72 362.045 119.529C363.103 120.285 363.584 121.386 363.584 122.985H365.584ZM355.752 116.189C352.406 116.189 349.998 116.791 348.39 117.754C346.766 118.727 345.92 120.105 345.92 121.536H347.92C347.92 120.966 348.247 120.171 349.417 119.47C350.604 118.76 352.612 118.189 355.752 118.189V116.189ZM345.92 121.536C345.92 122.633 346.329 123.57 347.211 124.185C348.025 124.753 349.114 124.951 350.301 124.951V122.951C349.28 122.951 348.678 122.77 348.354 122.544C348.098 122.365 347.92 122.095 347.92 121.536H345.92ZM349.301 123.951V128.781H351.301V123.951H349.301ZM350.301 127.781H347.403V129.781H350.301V127.781ZM347.403 127.781C345.889 127.781 344.442 127.347 343.393 126.476C342.372 125.629 341.641 124.299 341.641 122.295H339.641C339.641 124.845 340.601 126.758 342.115 128.015C343.602 129.249 345.536 129.781 347.403 129.781V127.781ZM341.641 122.295C341.641 120.172 342.494 118.04 344.614 116.412C346.76 114.764 350.294 113.566 355.752 113.566V111.566C350.032 111.566 346.01 112.818 343.396 114.826C340.754 116.855 339.641 119.588 339.641 122.295H341.641ZM355.752 113.566C361.257 113.566 364.799 114.717 366.945 116.391C369.053 118.035 369.932 120.275 369.932 122.778H371.932C371.932 119.761 370.844 116.895 368.174 114.813C365.542 112.761 361.494 111.566 355.752 111.566V113.566ZM369.932 122.778C369.932 126.179 368.588 128.779 365.84 130.785C363.032 132.835 358.718 134.287 352.775 135.175L353.071 137.153C359.133 136.247 363.825 134.732 367.019 132.4C370.274 130.025 371.932 126.828 371.932 122.778H369.932ZM352.773 135.175L346.839 136.072L347.138 138.05L353.072 137.153L352.773 135.175ZM345.989 137.061V142.098H347.989V137.061H345.989ZM345.989 142.098C345.989 144.356 346.62 146.28 348.332 147.585C349.977 148.839 352.441 149.377 355.752 149.377V147.377C352.577 147.377 350.66 146.845 349.544 145.995C348.497 145.196 347.989 143.98 347.989 142.098H345.989ZM355.752 149.377C359.096 149.377 361.576 148.84 363.23 147.587C364.953 146.281 365.584 144.357 365.584 142.098H363.584C363.584 143.979 363.076 145.194 362.022 145.993C360.898 146.845 358.963 147.377 355.752 147.377V149.377ZM365.584 142.098V136.854H363.584V142.098H365.584ZM364.584 137.854H370.932V135.854H364.584V137.854ZM369.932 136.854V142.098H371.932V136.854H369.932ZM369.932 142.098C369.932 144.981 369.029 147.388 366.927 149.103C364.789 150.848 361.26 152 355.752 152V154C361.491 154 365.552 152.806 368.192 150.653C370.868 148.469 371.932 145.425 371.932 142.098H369.932ZM363.358 167.696L364.344 167.532L364.205 166.696H363.358V167.696ZM342.727 167.696H341.727V168.696H342.727V167.696ZM342.727 163.556V162.556H341.727V163.556H342.727ZM363.358 163.556V164.556H364.358V163.556H363.358ZM363.358 156.656V155.656H362.358V156.656H363.358ZM369.016 156.656H370.016V155.656H369.016V156.656ZM369.016 163.556H368.016V164.391L368.837 164.54L369.016 163.556ZM368.05 170.836C365.907 170.836 364.632 169.258 364.344 167.532L362.371 167.86C362.773 170.274 364.672 172.836 368.05 172.836V170.836ZM363.358 166.696H342.727V168.696H363.358V166.696ZM343.727 167.696V163.556H341.727V167.696H343.727ZM342.727 164.556H363.358V162.556H342.727V164.556ZM364.358 163.556V156.656H362.358V163.556H364.358ZM363.358 157.656H369.016V155.656H363.358V157.656ZM368.016 156.656V163.556H370.016V156.656H368.016ZM368.837 164.54C370.543 164.85 371.328 166.213 371.328 167.558H373.328C373.328 165.453 372.042 163.09 369.194 162.572L368.837 164.54ZM371.328 167.558C371.328 169.395 370.077 170.836 368.05 170.836V172.836C371.266 172.836 373.328 170.413 373.328 167.558H371.328ZM386.786 117.258H385.786V117.641L386.042 117.926L386.786 117.258ZM393.479 124.71H394.479V124.327L394.223 124.042L393.479 124.71ZM387.131 137.889L387.212 138.886L388.131 138.811V137.889H387.131ZM387.131 125.814H388.131V125.457L387.905 125.181L387.131 125.814ZM386.786 112.566V111.566H386.29L385.99 111.961L386.786 112.566ZM395.135 112.566H396.135V111.566H395.135V112.566ZM395.135 117.189V118.189H396.135V117.189H395.135ZM386.786 117.189V116.189H385.786V117.189H386.786ZM387.131 148.377V149.377H388.131V148.377H387.131ZM387.131 142.581H388.131V141.581H387.131V142.581ZM386.042 117.926L392.735 125.378L394.223 124.042L387.53 116.59L386.042 117.926ZM392.479 124.71V148.239H394.479V124.71H392.479ZM392.479 148.239C392.479 149.77 392.09 150.649 391.549 151.161C390.998 151.683 390.104 152 388.718 152V154C390.367 154 391.854 153.627 392.924 152.614C394.005 151.59 394.479 150.089 394.479 148.239H392.479ZM388.718 152H387.476V154H388.718V152ZM387.476 152C385.67 152 383.897 151.666 382.598 150.738C381.36 149.853 380.403 148.319 380.403 145.548H378.403C378.403 148.849 379.584 151.041 381.434 152.364C383.223 153.644 385.487 154 387.476 154V152ZM380.403 145.548C380.403 143.128 381.35 141.571 382.621 140.561C383.931 139.52 385.654 139.013 387.212 138.886L387.049 136.892C385.226 137.041 383.086 137.638 381.377 138.995C379.629 140.383 378.403 142.517 378.403 145.548H380.403ZM388.131 137.889V125.814H386.131V137.889H388.131ZM387.905 125.181C385.717 122.507 384.555 121.092 383.931 120.227C383.62 119.795 383.486 119.559 383.424 119.411C383.379 119.303 383.37 119.24 383.37 119.121H381.37C381.37 119.45 381.412 119.785 381.58 120.185C381.732 120.546 381.973 120.931 382.309 121.396C382.979 122.325 384.197 123.808 386.357 126.447L387.905 125.181ZM383.37 119.121C383.37 119.087 383.357 118.908 384.005 117.961C384.626 117.056 385.709 115.634 387.582 113.171L385.99 111.961C384.137 114.397 383.012 115.873 382.356 116.831C381.728 117.747 381.37 118.396 381.37 119.121H383.37ZM386.786 113.566H395.135V111.566H386.786V113.566ZM394.135 112.566V117.189H396.135V112.566H394.135ZM395.135 116.189H386.786V118.189H395.135V116.189ZM385.786 117.189V117.258H387.786V117.189H385.786ZM388.131 148.377V142.581H386.131V148.377H388.131ZM387.131 141.581C386.325 141.581 385.324 141.789 384.496 142.395C383.622 143.035 383.026 144.061 383.026 145.479H385.026C385.026 144.689 385.326 144.266 385.677 144.009C386.074 143.718 386.625 143.581 387.131 143.581V141.581ZM383.026 145.479C383.026 146.867 383.564 147.9 384.433 148.555C385.257 149.175 386.27 149.377 387.131 149.377V147.377C386.542 147.377 386.003 147.234 385.637 146.957C385.315 146.715 385.026 146.299 385.026 145.479H383.026Z" fill="white" mask="url(#path-28-outside-1_231_140)"/>
</g>
<defs>
<filter id="filter0_di_231_140" x="21" y="76.3706" width="412" height="125.562" filterUnits="userSpaceOnUse" color-interpolation-filters="sRGB">
<feFlood flood-opacity="0" result="BackgroundImageFix"/>
<feColorMatrix in="SourceAlpha" type="matrix" values="0 0 0 0 0 0 0 0 0 0 0 0 0 0 0 0 0 0 127 0" result="hardAlpha"/>
<feOffset dy="4"/>
<feGaussianBlur stdDeviation="4"/>
<feComposite in2="hardAlpha" operator="out"/>
<feColorMatrix type="matrix" values="0 0 0 0 0.0296529 0 0 0 0 0.0296529 0 0 0 0 0.0296529 0 0 0 0.3 0"/>
<feBlend mode="normal" in2="BackgroundImageFix" result="effect1_dropShadow_231_140"/>
<feBlend mode="normal" in="SourceGraphic" in2="effect1_dropShadow_231_140" result="shape"/>
<feColorMatrix in="SourceAlpha" type="matrix" values="0 0 0 0 0 0 0 0 0 0 0 0 0 0 0 0 0 0 127 0" result="hardAlpha"/>
<feOffset dy="-4"/>
<feGaussianBlur stdDeviation="2"/>
<feComposite in2="hardAlpha" operator="arithmetic" k2="-1" k3="1"/>
<feColorMatrix type="matrix" values="0 0 0 0 0 0 0 0 0 0 0 0 0 0 0 0 0 0 0.1 0"/>
<feBlend mode="normal" in2="shape" result="effect2_innerShadow_231_140"/>
</filter>
<filter id="filter1_dii_231_140" x="-65.1334" y="0.8666" width="584.267" height="299.619" filterUnits="userSpaceOnUse" color-interpolation-filters="sRGB">
<feFlood flood-opacity="0" result="BackgroundImageFix"/>
<feColorMatrix in="SourceAlpha" type="matrix" values="0 0 0 0 0 0 0 0 0 0 0 0 0 0 0 0 0 0 127 0" result="hardAlpha"/>
<feOffset dy="20"/>
<feGaussianBlur stdDeviation="47.0667"/>
<feColorMatrix type="matrix" values="0 0 0 0 0.0557839 0 0 0 0 0.048457 0 0 0 0 0.0491897 0 0 0 0.219 0"/>
<feBlend mode="normal" in2="BackgroundImageFix" result="effect1_dropShadow_231_140"/>
<feBlend mode="normal" in="SourceGraphic" in2="effect1_dropShadow_231_140" result="shape"/>
<feColorMatrix in="SourceAlpha" type="matrix" values="0 0 0 0 0 0 0 0 0 0 0 0 0 0 0 0 0 0 127 0" result="hardAlpha"/>
<feOffset dy="14.0154"/>
<feGaussianBlur stdDeviation="7.0077"/>
<feComposite in2="hardAlpha" operator="arithmetic" k2="-1" k3="1"/>
<feColorMatrix type="matrix" values="0 0 0 0 0.290196 0 0 0 0 0.25098 0 0 0 0 0.254902 0 0 0 1 0"/>
<feBlend mode="normal" in2="shape" result="effect2_innerShadow_231_140"/>
<feColorMatrix in="SourceAlpha" type="matrix" values="0 0 0 0 0 0 0 0 0 0 0 0 0 0 0 0 0 0 127 0" result="hardAlpha"/>
<feOffset dy="-14.0154"/>
<feGaussianBlur stdDeviation="7.0077"/>
<feComposite in2="hardAlpha" operator="arithmetic" k2="-1" k3="1"/>
<feColorMatrix type="matrix" values="0 0 0 0 0.250486 0 0 0 0 0.21013 0 0 0 0 0.214614 0 0 0 1 0"/>
<feBlend mode="normal" in2="effect2_innerShadow_231_140" result="effect3_innerShadow_231_140"/>
</filter>
<filter id="filter2_dii_231_140" x="-65.1334" y="2.65664" width="584.267" height="297.829" filterUnits="userSpaceOnUse" color-interpolation-filters="sRGB">
<feFlood flood-opacity="0" result="BackgroundImageFix"/>
<feColorMatrix in="SourceAlpha" type="matrix" values="0 0 0 0 0 0 0 0 0 0 0 0 0 0 0 0 0 0 127 0" result="hardAlpha"/>
<feOffset dy="20"/>
<feGaussianBlur stdDeviation="47.0667"/>
<feColorMatrix type="matrix" values="0 0 0 0 0.0698039 0 0 0 0 0.0619608 0 0 0 0 0.0627451 0 0 0 0.2645 0"/>
<feBlend mode="normal" in2="BackgroundImageFix" result="effect1_dropShadow_231_140"/>
<feBlend mode="normal" in="SourceGraphic" in2="effect1_dropShadow_231_140" result="shape"/>
<feColorMatrix in="SourceAlpha" type="matrix" values="0 0 0 0 0 0 0 0 0 0 0 0 0 0 0 0 0 0 127 0" result="hardAlpha"/>
<feOffset dy="15.3751"/>
<feGaussianBlur stdDeviation="7.68756"/>
<feComposite in2="hardAlpha" operator="arithmetic" k2="-1" k3="1"/>
<feColorMatrix type="matrix" values="0 0 0 0 0.341176 0 0 0 0 0.298039 0 0 0 0 0.301961 0 0 0 1 0"/>
<feBlend mode="normal" in2="shape" result="effect2_innerShadow_231_140"/>
<feColorMatrix in="SourceAlpha" type="matrix" values="0 0 0 0 0 0 0 0 0 0 0 0 0 0 0 0 0 0 127 0" result="hardAlpha"/>
<feOffset dy="-15.3751"/>
<feGaussianBlur stdDeviation="7.68756"/>
<feComposite in2="hardAlpha" operator="arithmetic" k2="-1" k3="1"/>
<feColorMatrix type="matrix" values="0 0 0 0 0.273108 0 0 0 0 0.242422 0 0 0 0 0.24549 0 0 0 1 0"/>
<feBlend mode="normal" in2="effect2_innerShadow_231_140" result="effect3_innerShadow_231_140"/>
</filter>
<filter id="filter3_diii_231_140" x="-48.6" y="37.99" width="542.607" height="184.56" filterUnits="userSpaceOnUse" color-interpolation-filters="sRGB">
<feFlood flood-opacity="0" result="BackgroundImageFix"/>
<feColorMatrix in="SourceAlpha" type="matrix" values="0 0 0 0 0 0 0 0 0 0 0 0 0 0 0 0 0 0 127 0" result="hardAlpha"/>
<feOffset dy="38.8"/>
<feGaussianBlur stdDeviation="38.8"/>
<feColorMatrix type="matrix" values="0 0 0 0 0.0713726 0 0 0 0 0.0603922 0 0 0 0 0.0611765 0 0 0 0.128 0"/>
<feBlend mode="normal" in2="BackgroundImageFix" result="effect1_dropShadow_231_140"/>
<feBlend mode="normal" in="SourceGraphic" in2="effect1_dropShadow_231_140" result="shape"/>
<feColorMatrix in="SourceAlpha" type="matrix" values="0 0 0 0 0 0 0 0 0 0 0 0 0 0 0 0 0 0 127 0" result="hardAlpha"/>
<feOffset dy="9.312"/>
<feGaussianBlur stdDeviation="4.656"/>
<feComposite in2="hardAlpha" operator="arithmetic" k2="-1" k3="1"/>
<feColorMatrix type="matrix" values="0 0 0 0 0.36971 0 0 0 0 0.312831 0 0 0 0 0.316894 0 0 0 1 0"/>
<feBlend mode="normal" in2="shape" result="effect2_innerShadow_231_140"/>
<feColorMatrix in="SourceAlpha" type="matrix" values="0 0 0 0 0 0 0 0 0 0 0 0 0 0 0 0 0 0 127 0" result="hardAlpha"/>
<feOffset dy="-9.312"/>
<feGaussianBlur stdDeviation="4.656"/>
<feComposite in2="hardAlpha" operator="arithmetic" k2="-1" k3="1"/>
<feColorMatrix type="matrix" values="0 0 0 0 0.35882 0 0 0 0 0.30998 0 0 0 0 0.313469 0 0 0 1 0"/>
<feBlend mode="normal" in2="effect2_innerShadow_231_140" result="effect3_innerShadow_231_140"/>
<feColorMatrix in="SourceAlpha" type="matrix" values="0 0 0 0 0 0 0 0 0 0 0 0 0 0 0 0 0 0 127 0" result="hardAlpha"/>
<feOffset dy="2"/>
<feGaussianBlur stdDeviation="0.25"/>
<feComposite in2="hardAlpha" operator="arithmetic" k2="-1" k3="1"/>
<feColorMatrix type="matrix" values="0 0 0 0 0.337255 0 0 0 0 0.282353 0 0 0 0 0.286275 0 0 0 0.5 0"/>
<feBlend mode="normal" in2="effect3_innerShadow_231_140" result="effect4_innerShadow_231_140"/>
</filter>
<filter id="filter4_ii_231_140" x="29.7158" y="149.69" width="8.08203" height="12.9521" filterUnits="userSpaceOnUse" color-interpolation-filters="sRGB">
<feFlood flood-opacity="0" result="BackgroundImageFix"/>
<feBlend mode="normal" in="SourceGraphic" in2="BackgroundImageFix" result="shape"/>
<feColorMatrix in="SourceAlpha" type="matrix" values="0 0 0 0 0 0 0 0 0 0 0 0 0 0 0 0 0 0 127 0" result="hardAlpha"/>
<feOffset dy="-0.5"/>
<feGaussianBlur stdDeviation="0.318231"/>
<feComposite in2="hardAlpha" operator="arithmetic" k2="-1" k3="1"/>
<feColorMatrix type="matrix" values="0 0 0 0 0.200486 0 0 0 0 0.128266 0 0 0 0 0.112217 0 0 0 1 0"/>
<feBlend mode="normal" in2="shape" result="effect1_innerShadow_231_140"/>
<feColorMatrix in="SourceAlpha" type="matrix" values="0 0 0 0 0 0 0 0 0 0 0 0 0 0 0 0 0 0 127 0" result="hardAlpha"/>
<feOffset dy="0.64"/>
<feGaussianBlur stdDeviation="0.318231"/>
<feComposite in2="hardAlpha" operator="arithmetic" k2="-1" k3="1"/>
<feColorMatrix type="matrix" values="0 0 0 0 0.200486 0 0 0 0 0.145352 0 0 0 0 0.133101 0 0 0 1 0"/>
<feBlend mode="normal" in2="effect1_innerShadow_231_140" result="effect2_innerShadow_231_140"/>
</filter>
<filter id="filter5_ii_231_140" x="413.57" y="170.506" width="11.083" height="16.4834" filterUnits="userSpaceOnUse" color-interpolation-filters="sRGB">
<feFlood flood-opacity="0" result="BackgroundImageFix"/>
<feBlend mode="normal" in="SourceGraphic" in2="BackgroundImageFix" result="shape"/>
<feColorMatrix in="SourceAlpha" type="matrix" values="0 0 0 0 0 0 0 0 0 0 0 0 0 0 0 0 0 0 127 0" result="hardAlpha"/>
<feOffset dy="0.636462"/>
<feGaussianBlur stdDeviation="0.318231"/>
<feComposite in2="hardAlpha" operator="arithmetic" k2="-1" k3="1"/>
<feColorMatrix type="matrix" values="0 0 0 0 0.22132 0 0 0 0 0.153666 0 0 0 0 0.138632 0 0 0 1 0"/>
<feBlend mode="normal" in2="shape" result="effect1_innerShadow_231_140"/>
<feColorMatrix in="SourceAlpha" type="matrix" values="0 0 0 0 0 0 0 0 0 0 0 0 0 0 0 0 0 0 127 0" result="hardAlpha"/>
<feOffset dy="-0.636462"/>
<feGaussianBlur stdDeviation="0.318231"/>
<feComposite in2="hardAlpha" operator="arithmetic" k2="-1" k3="1"/>
<feColorMatrix type="matrix" values="0 0 0 0 0.204653 0 0 0 0 0.151862 0 0 0 0 0.14013 0 0 0 1 0"/>
<feBlend mode="normal" in2="effect1_innerShadow_231_140" result="effect2_innerShadow_231_140"/>
</filter>
<filter id="filter6_ii_231_140" x="29" y="76.3921" width="8.71289" height="18.101" filterUnits="userSpaceOnUse" color-interpolation-filters="sRGB">
<feFlood flood-opacity="0" result="BackgroundImageFix"/>
<feBlend mode="normal" in="SourceGraphic" in2="BackgroundImageFix" result="shape"/>
<feColorMatrix in="SourceAlpha" type="matrix" values="0 0 0 0 0 0 0 0 0 0 0 0 0 0 0 0 0 0 127 0" result="hardAlpha"/>
<feOffset dy="0.636462"/>
<feGaussianBlur stdDeviation="0.318231"/>
<feComposite in2="hardAlpha" operator="arithmetic" k2="-1" k3="1"/>
<feColorMatrix type="matrix" values="0 0 0 0 0.229653 0 0 0 0 0.170413 0 0 0 0 0.157248 0 0 0 1 0"/>
<feBlend mode="normal" in2="shape" result="effect1_innerShadow_231_140"/>
<feColorMatrix in="SourceAlpha" type="matrix" values="0 0 0 0 0 0 0 0 0 0 0 0 0 0 0 0 0 0 127 0" result="hardAlpha"/>
<feOffset dy="-0.636462"/>
<feGaussianBlur stdDeviation="0.318231"/>
<feComposite in2="hardAlpha" operator="arithmetic" k2="-1" k3="1"/>
<feColorMatrix type="matrix" values="0 0 0 0 0.229653 0 0 0 0 0.159452 0 0 0 0 0.143852 0 0 0 1 0"/>
<feBlend mode="normal" in2="effect1_innerShadow_231_140" result="effect2_innerShadow_231_140"/>
</filter>
<filter id="filter7_ii_231_140" x="409.961" y="81.1663" width="15.0381" height="31.3489" filterUnits="userSpaceOnUse" color-interpolation-filters="sRGB">
<feFlood flood-opacity="0" result="BackgroundImageFix"/>
<feBlend mode="normal" in="SourceGraphic" in2="BackgroundImageFix" result="shape"/>
<feColorMatrix in="SourceAlpha" type="matrix" values="0 0 0 0 0 0 0 0 0 0 0 0 0 0 0 0 0 0 127 0" result="hardAlpha"/>
<feOffset dy="0.636462"/>
<feGaussianBlur stdDeviation="0.318231"/>
<feComposite in2="hardAlpha" operator="arithmetic" k2="-1" k3="1"/>
<feColorMatrix type="matrix" values="0 0 0 0 0.200486 0 0 0 0 0.158339 0 0 0 0 0.148972 0 0 0 1 0"/>
<feBlend mode="normal" in2="shape" result="effect1_innerShadow_231_140"/>
<feColorMatrix in="SourceAlpha" type="matrix" values="0 0 0 0 0 0 0 0 0 0 0 0 0 0 0 0 0 0 127 0" result="hardAlpha"/>
<feOffset dy="-0.636462"/>
<feGaussianBlur stdDeviation="0.318231"/>
<feComposite in2="hardAlpha" operator="arithmetic" k2="-1" k3="1"/>
<feColorMatrix type="matrix" values="0 0 0 0 0.24632 0 0 0 0 0.177742 0 0 0 0 0.162503 0 0 0 1 0"/>
<feBlend mode="normal" in2="effect1_innerShadow_231_140" result="effect2_innerShadow_231_140"/>
</filter>
<filter id="filter8_ii_231_140" x="39.0264" y="174.395" width="9.30957" height="8.29735" filterUnits="userSpaceOnUse" color-interpolation-filters="sRGB">
<feFlood flood-opacity="0" result="BackgroundImageFix"/>
<feBlend mode="normal" in="SourceGraphic" in2="BackgroundImageFix" result="shape"/>
<feColorMatrix in="SourceAlpha" type="matrix" values="0 0 0 0 0 0 0 0 0 0 0 0 0 0 0 0 0 0 127 0" result="hardAlpha"/>
<feOffset dy="-0.5"/>
<feGaussianBlur stdDeviation="0.318231"/>
<feComposite in2="hardAlpha" operator="arithmetic" k2="-1" k3="1"/>
<feColorMatrix type="matrix" values="0 0 0 0 0.200486 0 0 0 0 0.128266 0 0 0 0 0.112217 0 0 0 1 0"/>
<feBlend mode="normal" in2="shape" result="effect1_innerShadow_231_140"/>
<feColorMatrix in="SourceAlpha" type="matrix" values="0 0 0 0 0 0 0 0 0 0 0 0 0 0 0 0 0 0 127 0" result="hardAlpha"/>
<feOffset dy="0.64"/>
<feGaussianBlur stdDeviation="0.318231"/>
<feComposite in2="hardAlpha" operator="arithmetic" k2="-1" k3="1"/>
<feColorMatrix type="matrix" values="0 0 0 0 0.200486 0 0 0 0 0.145352 0 0 0 0 0.133101 0 0 0 1 0"/>
<feBlend mode="normal" in2="effect1_innerShadow_231_140" result="effect2_innerShadow_231_140"/>
</filter>
<filter id="filter9_d_231_140" x="60.9316" y="86.2771" width="338.203" height="93.5588" filterUnits="userSpaceOnUse" color-interpolation-filters="sRGB">
<feFlood flood-opacity="0" result="BackgroundImageFix"/>
<feColorMatrix in="SourceAlpha" type="matrix" values="0 0 0 0 0 0 0 0 0 0 0 0 0 0 0 0 0 0 127 0" result="hardAlpha"/>
<feOffset dy="4"/>
<feGaussianBlur stdDeviation="2"/>
<feComposite in2="hardAlpha" operator="out"/>
<feColorMatrix type="matrix" values="0 0 0 0 0 0 0 0 0 0 0 0 0 0 0 0 0 0 0.25 0"/>
<feBlend mode="normal" in2="BackgroundImageFix" result="effect1_dropShadow_231_140"/>
<feBlend mode="normal" in="SourceGraphic" in2="effect1_dropShadow_231_140" result="shape"/>
</filter>
<radialGradient id="paint0_radial_231_140" cx="0" cy="0" r="1" gradientUnits="userSpaceOnUse" gradientTransform="translate(263.542 180.923) rotate(90) scale(14.8773 25.7882)">
<stop offset="0.0436176" stop-color="#2B2626"/>
<stop offset="0.364455" stop-color="#2A2626" stop-opacity="0.24"/>
</radialGradient>
<radialGradient id="paint1_radial_231_140" cx="0" cy="0" r="1" gradientUnits="userSpaceOnUse" gradientTransform="translate(172.556 83.6527) rotate(-85.6451) scale(14.4232 25.001)">
<stop offset="0.0436176" stop-color="#2B2626"/>
<stop offset="0.294538" stop-color="#2A2626" stop-opacity="0.24"/>
</radialGradient>
<linearGradient id="paint2_linear_231_140" x1="227" y1="76.79" x2="227" y2="186.352" gradientUnits="userSpaceOnUse">
<stop stop-color="#65595A"/>
<stop offset="1" stop-color="#574446"/>
</linearGradient>
<radialGradient id="paint3_radial_231_140" cx="0" cy="0" r="1" gradientUnits="userSpaceOnUse" gradientTransform="translate(71.2488 121.853) rotate(-110.472) scale(45.0432 20.5087)">
<stop offset="0.0436176" stop-color="#2B2626"/>
<stop offset="0.448003" stop-color="#2A2626" stop-opacity="0.24"/>
</radialGradient>
<radialGradient id="paint4_radial_231_140" cx="0" cy="0" r="1" gradientUnits="userSpaceOnUse" gradientTransform="translate(181.185 160.236) rotate(-65.6319) scale(60.9105 24.0085)">
<stop offset="0.0436176" stop-color="#2B2626"/>
<stop offset="0.448003" stop-color="#2A2626" stop-opacity="0.24"/>
</radialGradient>
<radialGradient id="paint5_radial_231_140" cx="0" cy="0" r="1" gradientUnits="userSpaceOnUse" gradientTransform="translate(200.522 150.011) rotate(88.4271) scale(61.7863 118.05)">
<stop offset="0.0436176" stop-color="#2B2626"/>
<stop offset="0.357058" stop-color="#2A2626" stop-opacity="0.24"/>
</radialGradient>
<radialGradient id="paint6_radial_231_140" cx="0" cy="0" r="1" gradientUnits="userSpaceOnUse" gradientTransform="translate(314.064 171.724) rotate(145.49) scale(27.0845 17.5704)">
<stop offset="0.0436176" stop-color="#2B2626"/>
<stop offset="0.448003" stop-color="#2A2626" stop-opacity="0.24"/>
</radialGradient>
<radialGradient id="paint7_radial_231_140" cx="0" cy="0" r="1" gradientUnits="userSpaceOnUse" gradientTransform="translate(415.561 186.093) rotate(-118.454) scale(45.277 21.2529)">
<stop offset="0.0436176" stop-color="#2B2626"/>
<stop offset="0.448003" stop-color="#2A2626" stop-opacity="0.24"/>
</radialGradient>
<radialGradient id="paint8_radial_231_140" cx="0" cy="0" r="1" gradientUnits="userSpaceOnUse" gradientTransform="translate(31.1477 167.734) rotate(-37.5237) scale(44.9758 25.7825)">
<stop offset="0.0436176" stop-color="#2B2626"/>
<stop offset="0.431097" stop-color="#2A2626" stop-opacity="0.24"/>
</radialGradient>
<radialGradient id="paint9_radial_231_140" cx="0" cy="0" r="1" gradientUnits="userSpaceOnUse" gradientTransform="translate(116.363 196.378) rotate(-92.075) scale(49.4429 124.573)">
<stop offset="0.0436176" stop-color="#2B2626"/>
<stop offset="0.357058" stop-color="#2A2626" stop-opacity="0.24"/>
</radialGradient>
<radialGradient id="paint10_radial_231_140" cx="0" cy="0" r="1" gradientUnits="userSpaceOnUse" gradientTransform="translate(369.144 197.094) rotate(-87.925) scale(49.4429 124.573)">
<stop offset="0.0436176" stop-color="#2B2626"/>
<stop offset="0.287123" stop-color="#2A2626" stop-opacity="0.24"/>
</radialGradient>
<linearGradient id="paint11_linear_231_140" x1="230.5" y1="80" x2="230.5" y2="186" gradientUnits="userSpaceOnUse">
<stop stop-color="#8C8D49"/>
<stop offset="1" stop-color="#858646"/>
</linearGradient>
</defs>
</svg>
