<svg width="247" height="159" viewBox="0 0 247 159" fill="none" xmlns="http://www.w3.org/2000/svg">
<g filter="url(#filter0_di_22_9)">
<path d="M231.562 0H15.4375C6.9116 0 0 4.36522 0 9.75V146.25C0 151.635 6.9116 156 15.4375 156H231.562C240.088 156 247 151.635 247 146.25V9.75C247 4.36522 240.088 0 231.562 0Z" fill="#787B4A"/>
</g>
<g style="mix-blend-mode:screen">
<path d="M15.4375 0C6.91168 0 0 4.36605 0 9.75V134.55C0 139.934 6.91168 144.3 15.4375 144.3H33.9625L49.4 140.4L69.4688 144.3H152.831L166.725 140.4L200.688 144.3H231.563C240.087 144.3 247 139.934 247 134.55V9.75C247 4.36605 240.087 0 231.563 0H15.4375Z" fill="#646736"/>
<path d="M50.7619 137.604L49.1987 137.302L47.68 137.684L33.0705 141.375H15.4375C9.46936 141.375 4.63125 138.319 4.63125 134.55V9.75005C4.63125 5.9807 9.46936 2.92505 15.4375 2.92505H231.562C237.531 2.92505 242.369 5.9807 242.369 9.75005V134.55C242.369 138.319 237.531 141.375 231.562 141.375H201.104L167.553 137.522L166.149 137.36L164.844 137.727L151.848 141.375H70.1653L50.7619 137.604Z" stroke="white" stroke-opacity="0.15" stroke-width="3"/>
</g>
<g style="mix-blend-mode:lighten" opacity="0.5">
<path fill-rule="evenodd" clip-rule="evenodd" d="M0.0796538 8.75358C0.870363 3.83763 7.44458 0 15.4375 0H231.563C240.087 0 247 4.36605 247 9.75V11.5225L237.738 10.725L205.319 16.575L128.131 10.725L33.9625 20.475L0 16.185V9.75C0 9.41265 0.0268575 9.08118 0.0796538 8.75358Z" fill="#CACC8E"/>
</g>
<g style="mix-blend-mode:color" opacity="0.2">
<path d="M231.562 0H15.4375C6.9116 0 0 4.36522 0 9.75V146.25C0 151.635 6.9116 156 15.4375 156H231.562C240.088 156 247 151.635 247 146.25V9.75C247 4.36522 240.088 0 231.562 0Z" fill="#F8FF8E" fill-opacity="0.5"/>
</g>
<mask id="mask0_22_9" style="mask-type:alpha" maskUnits="userSpaceOnUse" x="0" y="0" width="247" height="156">
<path opacity="0.1" d="M231.562 0H15.4375C6.9116 0 0 4.36522 0 9.75V146.25C0 151.635 6.9116 156 15.4375 156H231.562C240.088 156 247 151.635 247 146.25V9.75C247 4.36522 240.088 0 231.562 0Z" fill="#5D6035"/>
</mask>
<g mask="url(#mask0_22_9)">
<g filter="url(#filter1_d_22_9)">
<path d="M478.562 0H15.4375C6.9116 0 0 4.36522 0 9.75V146.25C0 151.635 6.9116 156 15.4375 156H478.562C487.088 156 494 151.635 494 146.25V9.75C494 4.36522 487.088 0 478.562 0Z" fill="#704A7B"/>
</g>
<path d="M55.0134 179.727C124.616 179.727 181.039 152.153 181.039 118.139C181.039 84.1246 124.616 56.5507 55.0134 56.5507C-14.5888 56.5507 -71.0125 84.1246 -71.0125 118.139C-71.0125 152.153 -14.5888 179.727 55.0134 179.727Z" fill="#7B6E4A"/>
<path d="M227.327 97.2358C305.13 97.2358 368.203 68.4843 368.203 33.0174C368.203 -2.44939 305.13 -31.2009 227.327 -31.2009C149.523 -31.2009 86.4504 -2.44939 86.4504 33.0174C86.4504 68.4843 149.523 97.2358 227.327 97.2358Z" fill="#4A7B51"/>
<path d="M95.288 219.998C163.261 219.998 218.363 188.211 218.363 148.999C218.363 109.788 163.261 78.0009 95.288 78.0009C27.3153 78.0009 -27.7875 109.788 -27.7875 148.999C-27.7875 188.211 27.3153 219.998 95.288 219.998Z" fill="#5F4A7B"/>
<path d="M99.8605 116.24C180.59 116.24 246.034 78.4326 246.034 31.7948C246.034 -14.8429 180.59 -52.6503 99.8605 -52.6503C19.1314 -52.6503 -46.3125 -14.8429 -46.3125 31.7948C-46.3125 78.4326 19.1314 116.24 99.8605 116.24Z" fill="#4A7B61"/>
<path d="M22.2964 71.4784C101.112 71.4784 165.005 42.382 165.005 6.48962C165.005 -29.4027 101.112 -58.4991 22.2964 -58.4991C-56.5196 -58.4991 -120.413 -29.4027 -120.413 6.48962C-120.413 42.382 -56.5196 71.4784 22.2964 71.4784Z" fill="#7B534A"/>
<path d="M231.562 0H15.4375C6.9116 0 0 4.36522 0 9.75V146.25C0 151.635 6.9116 156 15.4375 156H231.562C240.088 156 247 151.635 247 146.25V9.75C247 4.36522 240.088 0 231.562 0Z" fill="#787B4A" fill-opacity="0.01"/>
</g>
<path d="M146.506 70.9363L112.754 43.973C111.81 43.2199 110.73 42.6642 109.576 42.3377C108.421 42.0112 107.216 41.9202 106.027 42.0701C104.839 42.22 103.691 42.6077 102.649 43.2112C101.607 43.8146 100.691 44.622 99.9544 45.5871C98.4665 47.5363 97.797 50.0099 98.0931 52.4638C98.3892 54.9176 99.6267 57.1507 101.533 58.6719L126.226 78.3851L101.533 98.1114C100.583 98.8595 99.7867 99.7933 99.1918 100.858C98.597 101.924 98.215 103.099 98.0682 104.316C97.9213 105.534 98.0124 106.769 98.3362 107.95C98.66 109.131 99.2101 110.234 99.9544 111.196C100.687 112.167 101.601 112.979 102.644 113.586C103.686 114.193 104.836 114.583 106.027 114.732C107.217 114.88 108.425 114.786 109.58 114.454C110.735 114.122 111.814 113.559 112.754 112.797L146.506 85.8469C147.596 84.9505 148.477 83.8153 149.081 82.525C149.686 81.2349 150 79.8223 150 78.3916C150 76.9609 149.686 75.5483 149.081 74.2581C148.477 72.9678 147.596 71.8328 146.506 70.9363Z" fill="#E1F4B1"/>
<defs>
<filter id="filter0_di_22_9" x="0" y="-1.5" width="247" height="160.5" filterUnits="userSpaceOnUse" color-interpolation-filters="sRGB">
<feFlood flood-opacity="0" result="BackgroundImageFix"/>
<feColorMatrix in="SourceAlpha" type="matrix" values="0 0 0 0 0 0 0 0 0 0 0 0 0 0 0 0 0 0 127 0" result="hardAlpha"/>
<feOffset dy="3"/>
<feComposite in2="hardAlpha" operator="out"/>
<feColorMatrix type="matrix" values="0 0 0 0 0 0 0 0 0 0 0 0 0 0 0 0 0 0 0.2 0"/>
<feBlend mode="normal" in2="BackgroundImageFix" result="effect1_dropShadow_22_9"/>
<feBlend mode="normal" in="SourceGraphic" in2="effect1_dropShadow_22_9" result="shape"/>
<feColorMatrix in="SourceAlpha" type="matrix" values="0 0 0 0 0 0 0 0 0 0 0 0 0 0 0 0 0 0 127 0" result="hardAlpha"/>
<feOffset dy="-1.5"/>
<feGaussianBlur stdDeviation="2.5"/>
<feComposite in2="hardAlpha" operator="arithmetic" k2="-1" k3="1"/>
<feColorMatrix type="matrix" values="0 0 0 0 0 0 0 0 0 0 0 0 0 0 0 0 0 0 0.3 0"/>
<feBlend mode="normal" in2="shape" result="effect2_innerShadow_22_9"/>
</filter>
<filter id="filter1_d_22_9" x="0" y="0" width="494" height="159" filterUnits="userSpaceOnUse" color-interpolation-filters="sRGB">
<feFlood flood-opacity="0" result="BackgroundImageFix"/>
<feColorMatrix in="SourceAlpha" type="matrix" values="0 0 0 0 0 0 0 0 0 0 0 0 0 0 0 0 0 0 127 0" result="hardAlpha"/>
<feOffset dy="3"/>
<feComposite in2="hardAlpha" operator="out"/>
<feColorMatrix type="matrix" values="0 0 0 0 0 0 0 0 0 0 0 0 0 0 0 0 0 0 0.2 0"/>
<feBlend mode="normal" in2="BackgroundImageFix" result="effect1_dropShadow_22_9"/>
<feBlend mode="normal" in="SourceGraphic" in2="effect1_dropShadow_22_9" result="shape"/>
</filter>
</defs>
</svg>
