<svg width="160" height="83" viewBox="0 0 160 83" fill="none" xmlns="http://www.w3.org/2000/svg">
<g filter="url(#filter0_di_231_109)">
<path d="M155 0H5C2.23858 0 0 2.23858 0 5V75C0 77.7614 2.23858 80 5 80H155C157.761 80 160 77.7614 160 75V5C160 2.23858 157.761 0 155 0Z" fill="#787B4A"/>
</g>
<g style="mix-blend-mode:screen">
<path d="M5 0C2.239 0 0 2.239 0 5V69C0 71.761 2.239 74 5 74H11L18 72L29 74H129.5L134 72L145 74H155C157.761 74 160 71.761 160 69V5C160 2.239 157.761 0 155 0H5Z" fill="#646736"/>
<path d="M18.268 70.524L17.924 70.462L17.588 70.558L10.79 72.5H5C3.067 72.5 1.5 70.933 1.5 69V5C1.5 3.067 3.067 1.5 5 1.5H155C156.933 1.5 158.5 3.067 158.5 5V69C158.5 70.933 156.933 72.5 155 72.5H145.135L134.268 70.524L133.813 70.441L133.391 70.629L129.182 72.5H29.135L18.268 70.524Z" stroke="white" stroke-opacity="0.15" stroke-width="3"/>
</g>
<g style="mix-blend-mode:lighten" opacity="0.5">
<path d="M160 7.862V5C160 2.239 157.761 0 155 0H5C2.239 0 0 2.239 0 5V8.29999L11 10.5L41.5 5.5L66.5 8.5L77 5.5L99 8.5L105 5.5L123.5 8.5L141.5 5.5L160 7.862Z" fill="#CACC8E"/>
</g>
<g style="mix-blend-mode:color" opacity="0.2">
<path d="M155 0H5C2.23858 0 0 2.23858 0 5V75C0 77.7614 2.23858 80 5 80H155C157.761 80 160 77.7614 160 75V5C160 2.23858 157.761 0 155 0Z" fill="#F8FF8E" fill-opacity="0.5"/>
</g>
<mask id="mask0_231_109" style="mask-type:alpha" maskUnits="userSpaceOnUse" x="0" y="0" width="160" height="80">
<path opacity="0.1" d="M155 0H5C2.23858 0 0 2.23858 0 5V75C0 77.7614 2.23858 80 5 80H155C157.761 80 160 77.7614 160 75V5C160 2.23858 157.761 0 155 0Z" fill="#5D6035"/>
</mask>
<g mask="url(#mask0_231_109)">
<g filter="url(#filter1_d_231_109)">
<path d="M155 0H5C2.23858 0 0 2.23858 0 5V75C0 77.7614 2.23858 80 5 80H155C157.761 80 160 77.7614 160 75V5C160 2.23858 157.761 0 155 0Z" fill="#704A7B"/>
</g>
<path d="M124.272 98.3178C146.815 98.3178 165.09 84.1773 165.09 66.7341C165.09 49.2909 146.815 35.1504 124.272 35.1504C101.729 35.1504 83.4541 49.2909 83.4541 66.7341C83.4541 84.1773 101.729 98.3178 124.272 98.3178Z" fill="#7B6E4A"/>
<path d="M123.629 46.8645C148.828 46.8645 169.257 32.1201 169.257 13.932C169.257 -4.25611 148.828 -19.0005 123.629 -19.0005C98.4293 -19.0005 78.001 -4.25611 78.001 13.932C78.001 32.1201 98.4293 46.8645 123.629 46.8645Z" fill="#4A7B51"/>
<path d="M30.8625 112.82C52.8779 112.82 70.725 96.5186 70.725 76.4101C70.725 56.3016 52.8779 40.0005 30.8625 40.0005C8.84704 40.0005 -9 56.3016 -9 76.4101C-9 96.5186 8.84704 112.82 30.8625 112.82Z" fill="#5F4A7B"/>
<path d="M32.3435 59.6104C58.4906 59.6104 79.687 40.222 79.687 16.3052C79.687 -7.6116 58.4906 -27 32.3435 -27C6.19641 -27 -15 -7.6116 -15 16.3052C-15 40.222 6.19641 59.6104 32.3435 59.6104Z" fill="#4A7B61"/>
<path d="M148.221 93.6557C173.749 93.6557 194.443 78.7344 194.443 60.3281C194.443 41.9218 173.749 27.0005 148.221 27.0005C122.694 27.0005 102 41.9218 102 60.3281C102 78.7344 122.694 93.6557 148.221 93.6557Z" fill="#7B534A"/>
<path d="M7.2215 36.6557C32.7489 36.6557 53.443 21.7344 53.443 3.32809C53.443 -15.0782 32.7489 -29.9995 7.2215 -29.9995C-18.3059 -29.9995 -39 -15.0782 -39 3.32809C-39 21.7344 -18.3059 36.6557 7.2215 36.6557Z" fill="#7B534A"/>
<path d="M155 0H5C2.23858 0 0 2.23858 0 5V75C0 77.7614 2.23858 80 5 80H155C157.761 80 160 77.7614 160 75V5C160 2.23858 157.761 0 155 0Z" fill="#787B4A" fill-opacity="0.01"/>
</g>
<g filter="url(#filter2_d_231_109)">
<path d="M35.1247 20.746H47.6407C51.6727 20.746 54.8227 21.614 57.0907 23.35C59.3587 25.086 60.4927 27.648 60.4927 31.036C60.4927 34.424 59.3587 36.93 57.0907 38.554C54.8507 40.178 51.7007 40.99 47.6407 40.99H44.9107V49.012C44.9107 49.32 44.7987 49.586 44.5747 49.81C44.3507 50.034 44.0847 50.146 43.7767 50.146H35.1247C34.8167 50.146 34.5507 50.034 34.3267 49.81C34.1027 49.586 33.9907 49.32 33.9907 49.012V21.88C33.9907 21.572 34.1027 21.306 34.3267 21.082C34.5507 20.858 34.8167 20.746 35.1247 20.746ZM44.7007 28.558V33.22H47.6407C48.1447 33.22 48.5927 33.038 48.9847 32.674C49.3767 32.282 49.5727 31.736 49.5727 31.036C49.5727 30.336 49.4187 29.748 49.1107 29.272C48.8027 28.796 48.3127 28.558 47.6407 28.558H44.7007ZM72.4874 50.146H64.9694C64.6614 50.146 64.3954 50.034 64.1714 49.81C63.9474 49.586 63.8354 49.32 63.8354 49.012V21.46C63.8354 21.152 63.9474 20.886 64.1714 20.662C64.3954 20.438 64.6614 20.326 64.9694 20.326H72.4874C72.7954 20.326 73.0614 20.438 73.2854 20.662C73.5094 20.886 73.6214 21.152 73.6214 21.46V49.012C73.6214 49.32 73.5094 49.586 73.2854 49.81C73.0614 50.034 72.7954 50.146 72.4874 50.146ZM77.1917 43.888C77.1917 40.108 80.2577 37.686 86.3897 36.622L90.8417 35.908C90.8417 35.068 90.7717 34.508 90.6317 34.228C90.4917 33.92 90.1557 33.766 89.6237 33.766C89.1197 33.766 88.6157 33.99 88.1117 34.438C87.6077 34.886 87.1317 35.11 86.6837 35.11H79.5437C78.9277 35.11 78.6197 34.816 78.6197 34.228C78.6197 33.612 78.8297 32.968 79.2497 32.296C79.6977 31.596 80.3277 30.91 81.1397 30.238C81.9797 29.566 83.1417 29.006 84.6257 28.558C86.1377 28.11 87.8177 27.886 89.6657 27.886C93.4177 27.886 96.2317 28.67 98.1077 30.238C99.9837 31.806 100.922 34.046 100.922 36.958V49.012C100.922 49.32 100.81 49.586 100.586 49.81C100.362 50.034 100.096 50.146 99.7877 50.146H92.4377C92.1297 50.146 91.8637 50.034 91.6397 49.81C91.4157 49.586 91.3037 49.32 91.3037 49.012V47.836C89.9877 49.656 88.0697 50.566 85.5497 50.566C83.0297 50.566 80.9997 49.936 79.4597 48.676C77.9477 47.388 77.1917 45.792 77.1917 43.888ZM88.2377 44.35C90.0577 44.35 90.9677 43.258 90.9677 41.074L88.4897 41.62C87.2577 41.9 86.6417 42.418 86.6417 43.174C86.6417 43.51 86.7817 43.79 87.0617 44.014C87.3417 44.238 87.7337 44.35 88.2377 44.35ZM104.472 28.306H111.57C112.214 28.306 112.662 28.642 112.914 29.314L116.358 38.89L119.928 29.314C120.208 28.642 120.684 28.306 121.356 28.306H128.37C128.622 28.306 128.846 28.404 129.042 28.6C129.238 28.768 129.336 28.95 129.336 29.146C129.336 29.342 129.322 29.496 129.294 29.608L117.45 57.118C117.17 57.79 116.68 58.126 115.98 58.126H109.092C108.84 58.126 108.616 58.042 108.42 57.874C108.252 57.706 108.168 57.496 108.168 57.244C108.168 57.02 108.182 56.88 108.21 56.824L111.57 48.76L103.464 29.608C103.436 29.524 103.422 29.426 103.422 29.314C103.534 28.642 103.884 28.306 104.472 28.306Z" fill="#E1F4B1"/>
</g>
<defs>
<filter id="filter0_di_231_109" x="0" y="-1.5" width="160" height="84.5" filterUnits="userSpaceOnUse" color-interpolation-filters="sRGB">
<feFlood flood-opacity="0" result="BackgroundImageFix"/>
<feColorMatrix in="SourceAlpha" type="matrix" values="0 0 0 0 0 0 0 0 0 0 0 0 0 0 0 0 0 0 127 0" result="hardAlpha"/>
<feOffset dy="3"/>
<feComposite in2="hardAlpha" operator="out"/>
<feColorMatrix type="matrix" values="0 0 0 0 0 0 0 0 0 0 0 0 0 0 0 0 0 0 0.2 0"/>
<feBlend mode="normal" in2="BackgroundImageFix" result="effect1_dropShadow_231_109"/>
<feBlend mode="normal" in="SourceGraphic" in2="effect1_dropShadow_231_109" result="shape"/>
<feColorMatrix in="SourceAlpha" type="matrix" values="0 0 0 0 0 0 0 0 0 0 0 0 0 0 0 0 0 0 127 0" result="hardAlpha"/>
<feOffset dy="-1.5"/>
<feGaussianBlur stdDeviation="2.5"/>
<feComposite in2="hardAlpha" operator="arithmetic" k2="-1" k3="1"/>
<feColorMatrix type="matrix" values="0 0 0 0 0 0 0 0 0 0 0 0 0 0 0 0 0 0 0.3 0"/>
<feBlend mode="normal" in2="shape" result="effect2_innerShadow_231_109"/>
</filter>
<filter id="filter1_d_231_109" x="0" y="0" width="160" height="83" filterUnits="userSpaceOnUse" color-interpolation-filters="sRGB">
<feFlood flood-opacity="0" result="BackgroundImageFix"/>
<feColorMatrix in="SourceAlpha" type="matrix" values="0 0 0 0 0 0 0 0 0 0 0 0 0 0 0 0 0 0 127 0" result="hardAlpha"/>
<feOffset dy="3"/>
<feComposite in2="hardAlpha" operator="out"/>
<feColorMatrix type="matrix" values="0 0 0 0 0 0 0 0 0 0 0 0 0 0 0 0 0 0 0.2 0"/>
<feBlend mode="normal" in2="BackgroundImageFix" result="effect1_dropShadow_231_109"/>
<feBlend mode="normal" in="SourceGraphic" in2="effect1_dropShadow_231_109" result="shape"/>
</filter>
<filter id="filter2_d_231_109" x="33.9912" y="20.3259" width="95.3447" height="39.8" filterUnits="userSpaceOnUse" color-interpolation-filters="sRGB">
<feFlood flood-opacity="0" result="BackgroundImageFix"/>
<feColorMatrix in="SourceAlpha" type="matrix" values="0 0 0 0 0 0 0 0 0 0 0 0 0 0 0 0 0 0 127 0" result="hardAlpha"/>
<feOffset dy="2"/>
<feComposite in2="hardAlpha" operator="out"/>
<feColorMatrix type="matrix" values="0 0 0 0 0.439216 0 0 0 0 0.478431 0 0 0 0 0.345098 0 0 0 1 0"/>
<feBlend mode="normal" in2="BackgroundImageFix" result="effect1_dropShadow_231_109"/>
<feBlend mode="normal" in="SourceGraphic" in2="effect1_dropShadow_231_109" result="shape"/>
</filter>
</defs>
</svg>
