<svg width="180" height="183" viewBox="0 0 180 183" fill="none" xmlns="http://www.w3.org/2000/svg">
<g filter="url(#filter0_di_14_3)">
<path d="M168.75 0H11.25C5.0368 0 0 5.0368 0 11.25V168.75C0 174.963 5.0368 180 11.25 180H168.75C174.963 180 180 174.963 180 168.75V11.25C180 5.0368 174.963 0 168.75 0Z" fill="#787B4A"/>
</g>
<g style="mix-blend-mode:screen">
<path d="M11.25 0C5.03685 0 0 5.03775 0 11.25V155.25C0 161.462 5.03685 166.5 11.25 166.5H24.75L36 162L50.625 166.5H111.375L121.5 162L146.25 166.5H168.75C174.962 166.5 180 161.462 180 155.25V11.25C180 5.03775 174.962 0 168.75 0H11.25Z" fill="#646736"/>
<path d="M36.9925 158.773L35.8533 158.425L34.7465 158.866L24.1 163.125H11.25C6.90075 163.125 3.375 159.599 3.375 155.25V11.25C3.375 6.90075 6.90075 3.375 11.25 3.375H168.75C173.099 3.375 176.625 6.90075 176.625 11.25V155.25C176.625 159.599 173.099 163.125 168.75 163.125H146.554L122.104 158.679L121.08 158.492L120.129 158.915L110.659 163.125H51.1326L36.9925 158.773Z" stroke="white" stroke-opacity="0.15" stroke-width="3"/>
</g>
<g style="mix-blend-mode:lighten" opacity="0.5">
<path fill-rule="evenodd" clip-rule="evenodd" d="M0.0580473 10.1003C0.634272 4.42803 5.4252 0 11.25 0H168.75C174.962 0 180 5.03775 180 11.25V13.2952L173.25 12.375L149.625 19.125L93.375 12.375L24.75 23.625L0 18.675V11.25C0 10.8608 0.0195723 10.4783 0.0580473 10.1003Z" fill="#CACC8E"/>
</g>
<g style="mix-blend-mode:color" opacity="0.2">
<path d="M168.75 0H11.25C5.0368 0 0 5.0368 0 11.25V168.75C0 174.963 5.0368 180 11.25 180H168.75C174.963 180 180 174.963 180 168.75V11.25C180 5.0368 174.963 0 168.75 0Z" fill="#F8FF8E" fill-opacity="0.5"/>
</g>
<mask id="mask0_14_3" style="mask-type:alpha" maskUnits="userSpaceOnUse" x="0" y="0" width="180" height="180">
<path opacity="0.1" d="M168.75 0H11.25C5.0368 0 0 5.0368 0 11.25V168.75C0 174.963 5.0368 180 11.25 180H168.75C174.963 180 180 174.963 180 168.75V11.25C180 5.0368 174.963 0 168.75 0Z" fill="#5D6035"/>
</mask>
<g mask="url(#mask0_14_3)">
<g filter="url(#filter1_d_14_3)">
<path d="M348.75 0H11.25C5.0368 0 0 5.0368 0 11.25V168.75C0 174.963 5.0368 180 11.25 180H348.75C354.963 180 360 174.963 360 168.75V11.25C360 5.0368 354.963 0 348.75 0Z" fill="#704A7B"/>
</g>
<path d="M40.0907 207.377C90.813 207.377 131.931 175.561 131.931 136.314C131.931 97.0668 90.813 65.2507 40.0907 65.2507C-10.6315 65.2507 -51.75 97.0668 -51.75 136.314C-51.75 175.561 -10.6315 207.377 40.0907 207.377Z" fill="#7B6E4A"/>
<path d="M165.663 112.195C222.362 112.195 268.326 79.0203 268.326 38.097C268.326 -2.82625 222.362 -36.0011 165.663 -36.0011C108.964 -36.0011 63.0003 -2.82625 63.0003 38.097C63.0003 79.0203 108.964 112.195 165.663 112.195Z" fill="#4A7B51"/>
<path d="M69.4406 253.844C118.975 253.844 159.131 217.167 159.131 171.922C159.131 126.678 118.975 90.001 69.4406 90.001C19.9059 90.001 -20.25 126.678 -20.25 171.922C-20.25 217.167 19.9059 253.844 69.4406 253.844Z" fill="#5F4A7B"/>
<path d="M72.7729 134.123C131.604 134.123 179.296 90.4991 179.296 36.6862C179.296 -17.1266 131.604 -60.7504 72.7729 -60.7504C13.9419 -60.7504 -33.75 -17.1266 -33.75 36.6862C-33.75 90.4991 13.9419 134.123 72.7729 134.123Z" fill="#4A7B61"/>
<path d="M16.2484 82.4751C73.6851 82.4751 120.247 48.9023 120.247 7.48802C120.247 -33.9262 73.6851 -67.499 16.2484 -67.499C-41.1883 -67.499 -87.75 -33.9262 -87.75 7.48802C-87.75 48.9023 -41.1883 82.4751 16.2484 82.4751Z" fill="#7B534A"/>
<path d="M168.75 0H11.25C5.0368 0 0 5.0368 0 11.25V168.75C0 174.963 5.0368 180 11.25 180H168.75C174.963 180 180 174.963 180 168.75V11.25C180 5.0368 174.963 0 168.75 0Z" fill="#787B4A" fill-opacity="0.01"/>
</g>
<g filter="url(#filter2_d_14_3)">
<path d="M86.4064 33.8985C87.689 30.0338 93.3109 30.0338 94.5935 33.8985L104.041 62.1956C104.618 63.9227 106.265 65.0942 108.124 65.0942H138.691C142.86 65.0942 144.591 70.2928 141.214 72.6804L116.504 90.17C114.986 91.2366 114.366 93.1305 114.943 94.8598L124.37 123.157C125.674 127.02 121.121 130.232 117.743 127.845L93.0331 110.357C91.5154 109.288 89.4847 109.288 87.9671 110.357L63.2567 127.845C59.8793 130.232 55.3264 127.02 56.6303 123.157L66.057 94.8598C66.6342 93.1305 66.0141 91.2366 64.4964 90.17L39.7862 72.6804C36.4089 70.2928 38.1404 65.0942 42.3087 65.0942H72.8757C74.7354 65.0942 76.3814 63.9227 76.9586 62.1956L86.4064 33.8985Z" fill="#E1F4B1"/>
</g>
<defs>
<filter id="filter0_di_14_3" x="0" y="-1.5" width="180" height="184.5" filterUnits="userSpaceOnUse" color-interpolation-filters="sRGB">
<feFlood flood-opacity="0" result="BackgroundImageFix"/>
<feColorMatrix in="SourceAlpha" type="matrix" values="0 0 0 0 0 0 0 0 0 0 0 0 0 0 0 0 0 0 127 0" result="hardAlpha"/>
<feOffset dy="3"/>
<feComposite in2="hardAlpha" operator="out"/>
<feColorMatrix type="matrix" values="0 0 0 0 0 0 0 0 0 0 0 0 0 0 0 0 0 0 0.2 0"/>
<feBlend mode="normal" in2="BackgroundImageFix" result="effect1_dropShadow_14_3"/>
<feBlend mode="normal" in="SourceGraphic" in2="effect1_dropShadow_14_3" result="shape"/>
<feColorMatrix in="SourceAlpha" type="matrix" values="0 0 0 0 0 0 0 0 0 0 0 0 0 0 0 0 0 0 127 0" result="hardAlpha"/>
<feOffset dy="-1.5"/>
<feGaussianBlur stdDeviation="2.5"/>
<feComposite in2="hardAlpha" operator="arithmetic" k2="-1" k3="1"/>
<feColorMatrix type="matrix" values="0 0 0 0 0 0 0 0 0 0 0 0 0 0 0 0 0 0 0.3 0"/>
<feBlend mode="normal" in2="shape" result="effect2_innerShadow_14_3"/>
</filter>
<filter id="filter1_d_14_3" x="0" y="0" width="360" height="183" filterUnits="userSpaceOnUse" color-interpolation-filters="sRGB">
<feFlood flood-opacity="0" result="BackgroundImageFix"/>
<feColorMatrix in="SourceAlpha" type="matrix" values="0 0 0 0 0 0 0 0 0 0 0 0 0 0 0 0 0 0 127 0" result="hardAlpha"/>
<feOffset dy="3"/>
<feComposite in2="hardAlpha" operator="out"/>
<feColorMatrix type="matrix" values="0 0 0 0 0 0 0 0 0 0 0 0 0 0 0 0 0 0 0.2 0"/>
<feBlend mode="normal" in2="BackgroundImageFix" result="effect1_dropShadow_14_3"/>
<feBlend mode="normal" in="SourceGraphic" in2="effect1_dropShadow_14_3" result="shape"/>
</filter>
<filter id="filter2_d_14_3" x="38" y="31" width="105" height="99.6644" filterUnits="userSpaceOnUse" color-interpolation-filters="sRGB">
<feFlood flood-opacity="0" result="BackgroundImageFix"/>
<feColorMatrix in="SourceAlpha" type="matrix" values="0 0 0 0 0 0 0 0 0 0 0 0 0 0 0 0 0 0 127 0" result="hardAlpha"/>
<feOffset dy="2"/>
<feComposite in2="hardAlpha" operator="out"/>
<feColorMatrix type="matrix" values="0 0 0 0 0.439216 0 0 0 0 0.478431 0 0 0 0 0.345098 0 0 0 1 0"/>
<feBlend mode="normal" in2="BackgroundImageFix" result="effect1_dropShadow_14_3"/>
<feBlend mode="normal" in="SourceGraphic" in2="effect1_dropShadow_14_3" result="shape"/>
</filter>
</defs>
</svg>
