<svg width="62" height="77" viewBox="0 0 62 77" fill="none" xmlns="http://www.w3.org/2000/svg">
<g filter="url(#filter0_di_236_3692)">
<path d="M4.75 74H57.25C59.3211 74 61 72.3211 61 70.25L61 17.75C61 15.6789 59.3211 14 57.25 14L4.75 14C2.67893 14 1 15.6789 1 17.75L1 70.25C1 72.3211 2.67893 74 4.75 74Z" fill="#787B4A"/>
</g>
<g style="mix-blend-mode:screen">
<path d="M57.25 74C59.3207 74 61 72.3207 61 70.25L61 22.25C61 20.1793 59.3207 18.5 57.25 18.5H52.75L49 20L44.125 18.5L23.875 18.5L20.5 20L12.25 18.5H4.75C2.67925 18.5 1 20.1793 1 22.25L1 70.25C1 72.3207 2.67925 74 4.75 74H57.25Z" fill="#646736"/>
<path d="M48.6693 21.0755L49.0488 21.1917L49.4178 21.0448L52.9668 19.625H57.25C58.6997 19.625 59.875 20.8003 59.875 22.25L59.875 70.25C59.875 71.6997 58.6997 72.875 57.25 72.875H4.75C3.30025 72.875 2.125 71.6997 2.125 70.25L2.125 22.25C2.125 20.8003 3.30025 19.625 4.75 19.625H12.1487L20.299 21.107L20.6403 21.1693L20.9568 21.0282L24.1135 19.625L43.9555 19.625L48.6693 21.0755Z" stroke="white" stroke-opacity="0.15" stroke-width="3"/>
</g>
<g style="mix-blend-mode:lighten" opacity="0.5">
<path fill-rule="evenodd" clip-rule="evenodd" d="M60.9805 70.6332C60.7885 72.524 59.1917 74 57.25 74H4.75C2.67925 74 1 72.3207 1 70.25V69.5683L3.25 69.875L11.125 67.625L29.875 69.875L52.75 66.125L61 67.775V70.25C61 70.3797 60.9932 70.5072 60.9805 70.6332Z" fill="#CACC8E"/>
</g>
<g style="mix-blend-mode:color" opacity="0.2">
<path d="M4.75 74H57.25C59.3211 74 61 72.3211 61 70.25L61 17.75C61 15.6789 59.3211 14 57.25 14L4.75 14C2.67893 14 1 15.6789 1 17.75L1 70.25C1 72.3211 2.67893 74 4.75 74Z" fill="#F8FF8E" fill-opacity="0.5"/>
</g>
<mask id="mask0_236_3692" style="mask-type:alpha" maskUnits="userSpaceOnUse" x="1" y="14" width="60" height="60">
<path opacity="0.1" d="M4.75 74H57.25C59.3211 74 61 72.3211 61 70.25L61 17.75C61 15.6789 59.3211 14 57.25 14L4.75 14C2.67893 14 1 15.6789 1 17.75L1 70.25C1 72.3211 2.67893 74 4.75 74Z" fill="#5D6035"/>
</mask>
<g mask="url(#mask0_236_3692)">
<g filter="url(#filter1_d_236_3692)">
<path d="M-55.25 74L57.25 74C59.3211 74 61 72.3211 61 70.25L61 17.75C61 15.6789 59.3211 14 57.25 14L-55.25 14C-57.3211 14 -59 15.6789 -59 17.75V70.25C-59 72.3211 -57.3211 74 -55.25 74Z" fill="#704A7B"/>
</g>
<path d="M47.6364 4.87395C30.729 4.87395 17.0228 15.4794 17.0228 28.5618C17.0228 41.6441 30.729 52.2495 47.6364 52.2495C64.5438 52.2495 78.25 41.6441 78.25 28.5618C78.25 15.4794 64.5438 4.87395 47.6364 4.87395Z" fill="#7B6E4A"/>
<path d="M5.77812 36.6017C-13.1216 36.6017 -28.4428 47.66 -28.4428 61.3011C-28.4428 74.9422 -13.1216 86.0005 5.77812 86.0005C24.6778 86.0005 39.999 74.9422 39.999 61.3011C39.999 47.66 24.6778 36.6017 5.77812 36.6017Z" fill="#4A7B51"/>
<path d="M37.8531 -10.6149C21.3415 -10.6149 7.95627 1.611 7.95627 16.6924C7.95627 31.7737 21.3415 43.9995 37.8531 43.9995C54.3647 43.9995 67.75 31.7737 67.75 16.6924C67.75 1.611 54.3647 -10.6149 37.8531 -10.6149Z" fill="#5F4A7B"/>
<path d="M36.7424 29.2922C17.132 29.2922 1.23474 43.8335 1.23474 61.7711C1.23474 79.7087 17.132 94.25 36.7424 94.25C56.3527 94.25 72.25 79.7087 72.25 61.7711C72.25 43.8335 56.3527 29.2922 36.7424 29.2922Z" fill="#4A7B61"/>
<path d="M55.5839 46.5081C36.4383 46.5081 20.9178 57.6991 20.9178 71.5038C20.9178 85.3086 36.4383 96.4995 55.5839 96.4995C74.7295 96.4995 90.25 85.3086 90.25 71.5038C90.25 57.6991 74.7295 46.5081 55.5839 46.5081Z" fill="#7B534A"/>
<path d="M4.75 74H57.25C59.3211 74 61 72.3211 61 70.25L61 17.75C61 15.6789 59.3211 14 57.25 14L4.75 14C2.67893 14 1 15.6789 1 17.75L1 70.25C1 72.3211 2.67893 74 4.75 74Z" fill="#787B4A" fill-opacity="0.01"/>
</g>
<g filter="url(#filter2_d_236_3692)">
<path fill-rule="evenodd" clip-rule="evenodd" d="M40.1584 42.5956C40.1584 42.5956 38.0488 42.3612 37.6637 44.1295C37.3051 47.5216 34.5776 50.1592 31.2663 50.1592C27.7107 50.1592 24.8281 47.1181 24.8281 43.367C24.8281 40.2384 27.395 38.1973 30.3109 37.6065C30.8063 37.506 31.2663 37.9073 31.2663 38.4393V40.041C31.2663 40.7265 31.9985 41.1286 32.5307 40.7352L38.9709 35.9797C39.186 35.8203 39.3139 35.5619 39.3139 35.2848C39.3139 35.0277 39.203 34.7837 39.0124 34.6228L32.5722 29.1875C32.0455 28.7431 31.2663 29.1387 31.2663 29.8494V31.5875C31.2663 32.0182 30.9608 32.3822 30.5545 32.4296C24.9309 33.0872 20 37.3402 20 43.367C20 49.9317 25.0439 55.2536 31.2663 55.2536C37.1976 55.2536 42.0583 50.4177 42.5 44.2795C42.5 43.2988 41.5647 42.5956 40.1584 42.5956Z" fill="#E1F4B1"/>
</g>
<defs>
<filter id="filter0_di_236_3692" x="1" y="12.5" width="60" height="64.5" filterUnits="userSpaceOnUse" color-interpolation-filters="sRGB">
<feFlood flood-opacity="0" result="BackgroundImageFix"/>
<feColorMatrix in="SourceAlpha" type="matrix" values="0 0 0 0 0 0 0 0 0 0 0 0 0 0 0 0 0 0 127 0" result="hardAlpha"/>
<feOffset dy="3"/>
<feComposite in2="hardAlpha" operator="out"/>
<feColorMatrix type="matrix" values="0 0 0 0 0 0 0 0 0 0 0 0 0 0 0 0 0 0 0.2 0"/>
<feBlend mode="normal" in2="BackgroundImageFix" result="effect1_dropShadow_236_3692"/>
<feBlend mode="normal" in="SourceGraphic" in2="effect1_dropShadow_236_3692" result="shape"/>
<feColorMatrix in="SourceAlpha" type="matrix" values="0 0 0 0 0 0 0 0 0 0 0 0 0 0 0 0 0 0 127 0" result="hardAlpha"/>
<feOffset dy="-1.5"/>
<feGaussianBlur stdDeviation="2.5"/>
<feComposite in2="hardAlpha" operator="arithmetic" k2="-1" k3="1"/>
<feColorMatrix type="matrix" values="0 0 0 0 0 0 0 0 0 0 0 0 0 0 0 0 0 0 0.3 0"/>
<feBlend mode="normal" in2="shape" result="effect2_innerShadow_236_3692"/>
</filter>
<filter id="filter1_d_236_3692" x="-59" y="14" width="120" height="63" filterUnits="userSpaceOnUse" color-interpolation-filters="sRGB">
<feFlood flood-opacity="0" result="BackgroundImageFix"/>
<feColorMatrix in="SourceAlpha" type="matrix" values="0 0 0 0 0 0 0 0 0 0 0 0 0 0 0 0 0 0 127 0" result="hardAlpha"/>
<feOffset dy="3"/>
<feComposite in2="hardAlpha" operator="out"/>
<feColorMatrix type="matrix" values="0 0 0 0 0 0 0 0 0 0 0 0 0 0 0 0 0 0 0.2 0"/>
<feBlend mode="normal" in2="BackgroundImageFix" result="effect1_dropShadow_236_3692"/>
<feBlend mode="normal" in="SourceGraphic" in2="effect1_dropShadow_236_3692" result="shape"/>
</filter>
<filter id="filter2_d_236_3692" x="20" y="29" width="22.5" height="28.2537" filterUnits="userSpaceOnUse" color-interpolation-filters="sRGB">
<feFlood flood-opacity="0" result="BackgroundImageFix"/>
<feColorMatrix in="SourceAlpha" type="matrix" values="0 0 0 0 0 0 0 0 0 0 0 0 0 0 0 0 0 0 127 0" result="hardAlpha"/>
<feOffset dy="2"/>
<feComposite in2="hardAlpha" operator="out"/>
<feColorMatrix type="matrix" values="0 0 0 0 0.439216 0 0 0 0 0.478431 0 0 0 0 0.345098 0 0 0 1 0"/>
<feBlend mode="normal" in2="BackgroundImageFix" result="effect1_dropShadow_236_3692"/>
<feBlend mode="normal" in="SourceGraphic" in2="effect1_dropShadow_236_3692" result="shape"/>
</filter>
</defs>
</svg>
