<svg width="180" height="183" viewBox="0 0 180 183" fill="none" xmlns="http://www.w3.org/2000/svg">
<g filter="url(#filter0_di_14_2)">
<path d="M168.75 0H11.25C5.0368 0 0 5.0368 0 11.25V168.75C0 174.963 5.0368 180 11.25 180H168.75C174.963 180 180 174.963 180 168.75V11.25C180 5.0368 174.963 0 168.75 0Z" fill="#787B4A"/>
</g>
<g style="mix-blend-mode:screen">
<path d="M11.25 0C5.03685 0 0 5.03775 0 11.25V155.25C0 161.462 5.03685 166.5 11.25 166.5H24.75L36 162L50.625 166.5H111.375L121.5 162L146.25 166.5H168.75C174.962 166.5 180 161.462 180 155.25V11.25C180 5.03775 174.962 0 168.75 0H11.25Z" fill="#646736"/>
<path d="M36.9925 158.773L35.8533 158.425L34.7465 158.866L24.1 163.125H11.25C6.90075 163.125 3.375 159.599 3.375 155.25V11.25C3.375 6.90075 6.90075 3.375 11.25 3.375H168.75C173.099 3.375 176.625 6.90075 176.625 11.25V155.25C176.625 159.599 173.099 163.125 168.75 163.125H146.554L122.104 158.679L121.08 158.492L120.129 158.915L110.659 163.125H51.1326L36.9925 158.773Z" stroke="white" stroke-opacity="0.15" stroke-width="3"/>
</g>
<g style="mix-blend-mode:lighten" opacity="0.5">
<path fill-rule="evenodd" clip-rule="evenodd" d="M0.0580473 10.1003C0.634272 4.42803 5.4252 0 11.25 0H168.75C174.962 0 180 5.03775 180 11.25V13.2952L173.25 12.375L149.625 19.125L93.375 12.375L24.75 23.625L0 18.675V11.25C0 10.8608 0.0195723 10.4783 0.0580473 10.1003Z" fill="#CACC8E"/>
</g>
<g style="mix-blend-mode:color" opacity="0.2">
<path d="M168.75 0H11.25C5.0368 0 0 5.0368 0 11.25V168.75C0 174.963 5.0368 180 11.25 180H168.75C174.963 180 180 174.963 180 168.75V11.25C180 5.0368 174.963 0 168.75 0Z" fill="#F8FF8E" fill-opacity="0.5"/>
</g>
<mask id="mask0_14_2" style="mask-type:alpha" maskUnits="userSpaceOnUse" x="0" y="0" width="180" height="180">
<path opacity="0.1" d="M168.75 0H11.25C5.0368 0 0 5.0368 0 11.25V168.75C0 174.963 5.0368 180 11.25 180H168.75C174.963 180 180 174.963 180 168.75V11.25C180 5.0368 174.963 0 168.75 0Z" fill="#5D6035"/>
</mask>
<g mask="url(#mask0_14_2)">
<g filter="url(#filter1_d_14_2)">
<path d="M348.75 0H11.25C5.0368 0 0 5.0368 0 11.25V168.75C0 174.963 5.0368 180 11.25 180H348.75C354.963 180 360 174.963 360 168.75V11.25C360 5.0368 354.963 0 348.75 0Z" fill="#704A7B"/>
</g>
<path d="M40.0907 207.377C90.813 207.377 131.931 175.561 131.931 136.314C131.931 97.0668 90.813 65.2507 40.0907 65.2507C-10.6315 65.2507 -51.75 97.0668 -51.75 136.314C-51.75 175.561 -10.6315 207.377 40.0907 207.377Z" fill="#7B6E4A"/>
<path d="M165.663 112.195C222.362 112.195 268.326 79.0203 268.326 38.097C268.326 -2.82625 222.362 -36.0011 165.663 -36.0011C108.964 -36.0011 63.0002 -2.82625 63.0002 38.097C63.0002 79.0203 108.964 112.195 165.663 112.195Z" fill="#4A7B51"/>
<path d="M69.4406 253.844C118.975 253.844 159.131 217.167 159.131 171.922C159.131 126.678 118.975 90.001 69.4406 90.001C19.9059 90.001 -20.25 126.678 -20.25 171.922C-20.25 217.167 19.9059 253.844 69.4406 253.844Z" fill="#5F4A7B"/>
<path d="M72.7729 134.123C131.604 134.123 179.296 90.4991 179.296 36.6862C179.296 -17.1266 131.604 -60.7504 72.7729 -60.7504C13.9419 -60.7504 -33.75 -17.1266 -33.75 36.6862C-33.75 90.4991 13.9419 134.123 72.7729 134.123Z" fill="#4A7B61"/>
<path d="M16.2484 82.4751C73.6851 82.4751 120.247 48.9023 120.247 7.48802C120.247 -33.9262 73.6851 -67.499 16.2484 -67.499C-41.1883 -67.499 -87.75 -33.9262 -87.75 7.48802C-87.75 48.9023 -41.1883 82.4751 16.2484 82.4751Z" fill="#7B534A"/>
<path d="M168.75 0H11.25C5.0368 0 0 5.0368 0 11.25V168.75C0 174.963 5.0368 180 11.25 180H168.75C174.963 180 180 174.963 180 168.75V11.25C180 5.0368 174.963 0 168.75 0Z" fill="#787B4A" fill-opacity="0.01"/>
</g>
<g filter="url(#filter2_d_14_2)">
<path d="M89.7765 35.8794L68.5456 53.9137L59.8182 61.3274H44.4783C43.6301 61.32 42.7888 61.4841 42.003 61.8075C41.2173 62.1309 40.5027 62.6087 39.9005 63.2114C39.2983 63.8165 38.8203 64.5345 38.4942 65.3258C38.1678 66.1172 38 66.9674 38 67.8249V98.1238C38.0044 99.8462 38.6831 101.498 39.8877 102.715C41.0921 103.933 42.7246 104.619 44.4281 104.624H59.8182L68.5289 112.02L89.7765 130.121C90.9263 131.101 92.3294 131.73 93.8205 131.931C95.3115 132.13 96.8283 131.897 98.192 131.255C99.5557 130.613 100.709 129.589 101.517 128.308C102.324 127.024 102.752 125.534 102.75 124.013V41.9871C102.752 40.4657 102.324 38.9761 101.517 37.6923C100.709 36.411 99.5557 35.3869 98.192 34.745C96.8283 34.1031 95.3115 33.8703 93.8205 34.0688C92.3294 34.2697 90.9263 34.8994 89.7765 35.8794Z" fill="#E1F4B1"/>
</g>
<g filter="url(#filter3_d_14_2)">
<path d="M134.129 60.3693C132.991 59.1713 131.449 58.5 129.842 58.5C128.235 58.5 126.693 59.1713 125.555 60.3693C124.983 60.9573 124.529 61.6605 124.22 62.4371C123.91 63.2137 123.75 64.0467 123.75 64.8895C123.75 65.7323 123.91 66.5654 124.22 67.342C124.529 68.1187 124.983 68.8218 125.555 69.4122C128.965 73.0259 130.88 77.9161 130.88 83.0146C130.88 88.113 128.965 93.0032 125.555 96.617C124.983 97.205 124.529 97.9081 124.22 98.6847C123.91 99.4614 123.75 100.294 123.75 101.137C123.75 101.98 123.91 102.813 124.22 103.59C124.529 104.366 124.983 105.069 125.555 105.657C126.106 106.255 126.767 106.728 127.498 107.044C128.229 107.36 129.014 107.515 129.804 107.497C130.606 107.517 131.402 107.363 132.146 107.047C132.889 106.731 133.564 106.258 134.129 105.657C139.81 99.6452 143 91.5014 143 83.0146C143 74.5253 139.81 66.3841 134.129 60.3693Z" fill="#E1F4B1"/>
</g>
<defs>
<filter id="filter0_di_14_2" x="0" y="-1.5" width="180" height="184.5" filterUnits="userSpaceOnUse" color-interpolation-filters="sRGB">
<feFlood flood-opacity="0" result="BackgroundImageFix"/>
<feColorMatrix in="SourceAlpha" type="matrix" values="0 0 0 0 0 0 0 0 0 0 0 0 0 0 0 0 0 0 127 0" result="hardAlpha"/>
<feOffset dy="3"/>
<feComposite in2="hardAlpha" operator="out"/>
<feColorMatrix type="matrix" values="0 0 0 0 0 0 0 0 0 0 0 0 0 0 0 0 0 0 0.2 0"/>
<feBlend mode="normal" in2="BackgroundImageFix" result="effect1_dropShadow_14_2"/>
<feBlend mode="normal" in="SourceGraphic" in2="effect1_dropShadow_14_2" result="shape"/>
<feColorMatrix in="SourceAlpha" type="matrix" values="0 0 0 0 0 0 0 0 0 0 0 0 0 0 0 0 0 0 127 0" result="hardAlpha"/>
<feOffset dy="-1.5"/>
<feGaussianBlur stdDeviation="2.5"/>
<feComposite in2="hardAlpha" operator="arithmetic" k2="-1" k3="1"/>
<feColorMatrix type="matrix" values="0 0 0 0 0 0 0 0 0 0 0 0 0 0 0 0 0 0 0.3 0"/>
<feBlend mode="normal" in2="shape" result="effect2_innerShadow_14_2"/>
</filter>
<filter id="filter1_d_14_2" x="0" y="0" width="360" height="183" filterUnits="userSpaceOnUse" color-interpolation-filters="sRGB">
<feFlood flood-opacity="0" result="BackgroundImageFix"/>
<feColorMatrix in="SourceAlpha" type="matrix" values="0 0 0 0 0 0 0 0 0 0 0 0 0 0 0 0 0 0 127 0" result="hardAlpha"/>
<feOffset dy="3"/>
<feComposite in2="hardAlpha" operator="out"/>
<feColorMatrix type="matrix" values="0 0 0 0 0 0 0 0 0 0 0 0 0 0 0 0 0 0 0.2 0"/>
<feBlend mode="normal" in2="BackgroundImageFix" result="effect1_dropShadow_14_2"/>
<feBlend mode="normal" in="SourceGraphic" in2="effect1_dropShadow_14_2" result="shape"/>
</filter>
<filter id="filter2_d_14_2" x="38" y="34" width="64.75" height="100" filterUnits="userSpaceOnUse" color-interpolation-filters="sRGB">
<feFlood flood-opacity="0" result="BackgroundImageFix"/>
<feColorMatrix in="SourceAlpha" type="matrix" values="0 0 0 0 0 0 0 0 0 0 0 0 0 0 0 0 0 0 127 0" result="hardAlpha"/>
<feOffset dy="2"/>
<feComposite in2="hardAlpha" operator="out"/>
<feColorMatrix type="matrix" values="0 0 0 0 0.439216 0 0 0 0 0.478431 0 0 0 0 0.345098 0 0 0 1 0"/>
<feBlend mode="normal" in2="BackgroundImageFix" result="effect1_dropShadow_14_2"/>
<feBlend mode="normal" in="SourceGraphic" in2="effect1_dropShadow_14_2" result="shape"/>
</filter>
<filter id="filter3_d_14_2" x="123.75" y="58.5" width="19.2496" height="50.9992" filterUnits="userSpaceOnUse" color-interpolation-filters="sRGB">
<feFlood flood-opacity="0" result="BackgroundImageFix"/>
<feColorMatrix in="SourceAlpha" type="matrix" values="0 0 0 0 0 0 0 0 0 0 0 0 0 0 0 0 0 0 127 0" result="hardAlpha"/>
<feOffset dy="2"/>
<feComposite in2="hardAlpha" operator="out"/>
<feColorMatrix type="matrix" values="0 0 0 0 0.439216 0 0 0 0 0.478431 0 0 0 0 0.345098 0 0 0 1 0"/>
<feBlend mode="normal" in2="BackgroundImageFix" result="effect1_dropShadow_14_2"/>
<feBlend mode="normal" in="SourceGraphic" in2="effect1_dropShadow_14_2" result="shape"/>
</filter>
</defs>
</svg>
