<svg width="114" height="130" viewBox="0 0 114 130" fill="none" xmlns="http://www.w3.org/2000/svg">
<g clip-path="url(#clip0_236_3659)">
<g filter="url(#filter0_ii_236_3659)">
<path d="M20.8968 43.1243L88.8263 44.3381L87.023 118.667L19.8818 118.087L20.8968 43.1243Z" fill="url(#paint0_linear_236_3659)"/>
</g>
<g filter="url(#filter1_ddii_236_3659)">
<path d="M80.9516 39.3037C80.5936 40.4078 80.2047 41.5087 79.9143 42.2922L84.9026 46.5232L83.3427 53.6123L89 55.3655L88.2881 88.8295L83.2894 94.2218L88.0502 100.018L87.7392 114.616L35.2766 116.74L35.0252 114.898L24.3884 111.578L24.6095 107.209L19 104.325V74.1979L25.6198 71.4249L23.2072 63.7392L25.0455 59.0532L19 53.2313V38.1582L80.9516 39.3037Z" fill="#DACBAE"/>
<path d="M19.7959 38.968L79.8559 40.0793C79.6085 40.8055 79.3659 41.4848 79.1686 42.0154L78.9753 42.538L79.4001 42.8984L84.0233 46.82L82.5668 53.4413L82.4093 54.1556L83.1077 54.372L88.1923 55.9478L87.4994 88.5105L82.706 93.681L82.2343 94.1901L82.675 94.727L87.2489 100.296L86.9609 113.852L35.9675 115.916L35.8132 114.79L35.7448 114.289L35.2619 114.138L25.2145 111.002L25.4046 107.249L25.4301 106.737L24.9735 106.502L19.7959 103.84V74.7269L25.9273 72.1592L26.5962 71.8792L26.3791 71.1871L24.0508 63.7687L25.7865 59.3436L25.9806 58.8488L25.5971 58.4805L19.7959 52.8925V38.968Z" stroke="#B4A78E" stroke-opacity="0.5" stroke-width="2"/>
</g>
<g filter="url(#filter2_ddii_236_3659)">
<path d="M49.3831 42.1349L53.3794 44.5204L52.1807 41.3394V37.7607L47.7842 33.3865L45.3867 36.1698L50.1825 40.1462L49.3831 42.1349Z" fill="url(#paint1_linear_236_3659)"/>
</g>
<g filter="url(#filter3_ddii_236_3659)">
<path d="M44.1405 37.7318C42.1423 38.1296 41.7422 35.744 44.9399 32.563C49.7349 28.9834 49.7358 32.563 49.7358 33.3576C49.7358 34.1531 46.1387 37.3341 44.1405 37.7318Z" fill="url(#paint2_linear_236_3659)"/>
</g>
<g style="mix-blend-mode:multiply" opacity="0.15" filter="url(#filter4_ii_236_3659)">
<path fill-rule="evenodd" clip-rule="evenodd" d="M87.9131 106.417L87.7389 114.616L61.8691 115.664L64.6421 111.327L72.6356 109.736L74.6338 106.555L80.6284 106.952L83.8253 104.964L87.9131 106.417Z" fill="url(#paint3_linear_236_3659)"/>
</g>
<g style="mix-blend-mode:multiply" opacity="0.15" filter="url(#filter5_ii_236_3659)">
<path fill-rule="evenodd" clip-rule="evenodd" d="M80.6855 42.946L84.903 46.5232L83.3439 53.6123L89.0004 55.3655L88.625 73.0166L84.705 71.164L87.4214 67.1867L86.622 63.608L84.705 60.8247L81.0268 56.4505L79.4287 46.9066L80.6855 42.946Z" fill="url(#paint4_linear_236_3659)"/>
</g>
<g style="mix-blend-mode:multiply" opacity="0.15" filter="url(#filter6_ii_236_3659)">
<path fill-rule="evenodd" clip-rule="evenodd" d="M39.6293 38.5392L37.0672 41.7139H31.0726L29.8731 45.7134L22.2796 44.5202L19 47.4571V38.1582L39.6293 38.5392Z" fill="url(#paint5_linear_236_3659)"/>
</g>
<g style="mix-blend-mode:multiply" opacity="0.15" filter="url(#filter7_ii_236_3659)">
<path fill-rule="evenodd" clip-rule="evenodd" d="M46.0427 116.304L42.5809 112.917L37.3277 112.071L33.0704 109.339L25.7061 111.988L35.0265 114.897L35.2778 116.74L46.0427 116.304ZM25.3569 111.879L24.3896 111.578L24.4477 110.435L25.3569 111.879Z" fill="url(#paint6_linear_236_3659)"/>
</g>
<mask id="mask0_236_3659" style="mask-type:alpha" maskUnits="userSpaceOnUse" x="19" y="38" width="70" height="79">
<g style="mix-blend-mode:color" opacity="0.1">
<path d="M80.9516 39.3037C80.5936 40.4078 80.2047 41.5087 79.9143 42.2922L84.9026 46.5232L83.3427 53.6123L89 55.3655L88.2881 88.8295L83.2894 94.2218L88.0502 100.018L87.7392 114.616L35.2766 116.74L35.0252 114.898L24.3884 111.578L24.6095 107.209L19 104.325V74.1979L25.6198 71.4249L23.2072 63.7392L25.0455 59.0532L19 53.2313V38.1582L80.9516 39.3037Z" fill="#DACBAE"/>
</g>
</mask>
<g mask="url(#mask0_236_3659)">
<path d="M80.9516 39.3039C80.5936 40.408 80.2047 41.5089 79.9143 42.2924L84.9026 46.5234L83.3427 53.6125L89 55.3657L88.2881 88.8297L83.2894 94.2221L88.0502 100.019L87.7392 114.617L35.2766 116.741L35.0252 114.898L24.3884 111.578L24.6095 107.209L19 104.325V74.1981L25.6198 71.4252L23.2072 63.7395L25.0455 59.0534L19 53.2315V38.1584L80.9516 39.3039Z" fill="#D4A64D"/>
<path d="M53.9985 98.6335C68.3345 98.6335 79.956 89.149 79.956 77.4492C79.956 65.7494 68.3345 56.2649 53.9985 56.2649C39.6626 56.2649 28.041 65.7494 28.041 77.4492C28.041 89.149 39.6626 98.6335 53.9985 98.6335Z" fill="#BD8F36"/>
<path d="M22.3059 135.786C34.673 135.786 44.6986 124.906 44.6986 111.485C44.6986 98.0638 34.673 87.1838 22.3059 87.1838C9.93867 87.1838 -0.0869141 98.0638 -0.0869141 111.485C-0.0869141 124.906 9.93867 135.786 22.3059 135.786Z" fill="#745E35"/>
<path d="M32.5478 79.9947C46.1052 79.9947 57.0956 68.5207 57.0956 54.3667C57.0956 40.2128 46.1052 28.7388 32.5478 28.7388C18.9904 28.7388 8 40.2128 8 54.3667C8 68.5207 18.9904 79.9947 32.5478 79.9947Z" fill="#907135"/>
<path d="M80.5494 131.743C91.576 131.743 100.515 123.41 100.515 113.131C100.515 102.851 91.576 94.5181 80.5494 94.5181C69.5228 94.5181 60.584 102.851 60.584 113.131C60.584 123.41 69.5228 131.743 80.5494 131.743Z" fill="#51442A"/>
<path d="M74.899 78.6373C87.4907 78.6373 97.6984 66.106 97.6984 50.6479C97.6984 35.1897 87.4907 22.6584 74.899 22.6584C62.3072 22.6584 52.0996 35.1897 52.0996 50.6479C52.0996 66.106 62.3072 78.6373 74.899 78.6373Z" fill="#3A3324"/>
<path d="M80.9516 39.3039C80.5936 40.408 80.2047 41.5089 79.9143 42.2924L84.9026 46.5234L83.3427 53.6125L89 55.3657L88.2881 88.8297L83.2894 94.2221L88.0502 100.019L87.7392 114.617L35.2766 116.741L35.0252 114.898L24.3884 111.578L24.6095 107.209L19 104.325V74.1981L25.6198 71.4252L23.2072 63.7395L25.0455 59.0534L19 53.2315V38.1584L80.9516 39.3039Z" fill="#DACBAE" fill-opacity="0.01"/>
</g>
</g>
<defs>
<filter id="filter0_ii_236_3659" x="19.8818" y="37.919" width="68.9443" height="85.9533" filterUnits="userSpaceOnUse" color-interpolation-filters="sRGB">
<feFlood flood-opacity="0" result="BackgroundImageFix"/>
<feBlend mode="normal" in="SourceGraphic" in2="BackgroundImageFix" result="shape"/>
<feColorMatrix in="SourceAlpha" type="matrix" values="0 0 0 0 0 0 0 0 0 0 0 0 0 0 0 0 0 0 127 0" result="hardAlpha"/>
<feOffset dy="-5.20528"/>
<feGaussianBlur stdDeviation="2.60264"/>
<feComposite in2="hardAlpha" operator="arithmetic" k2="-1" k3="1"/>
<feColorMatrix type="matrix" values="0 0 0 0 0.796413 0 0 0 0 0.737964 0 0 0 0 0.624963 0 0 0 0.5 0"/>
<feBlend mode="normal" in2="shape" result="effect1_innerShadow_236_3659"/>
<feColorMatrix in="SourceAlpha" type="matrix" values="0 0 0 0 0 0 0 0 0 0 0 0 0 0 0 0 0 0 127 0" result="hardAlpha"/>
<feOffset dy="5.20528"/>
<feGaussianBlur stdDeviation="2.60264"/>
<feComposite in2="hardAlpha" operator="arithmetic" k2="-1" k3="1"/>
<feColorMatrix type="matrix" values="0 0 0 0 0.413233 0 0 0 0 0.382906 0 0 0 0 0.324273 0 0 0 0.5 0"/>
<feBlend mode="normal" in2="effect1_innerShadow_236_3659" result="effect2_innerShadow_236_3659"/>
</filter>
<filter id="filter1_ddii_236_3659" x="-6.27216" y="0.674562" width="120.115" height="128.705" filterUnits="userSpaceOnUse" color-interpolation-filters="sRGB">
<feFlood flood-opacity="0" result="BackgroundImageFix"/>
<feColorMatrix in="SourceAlpha" type="matrix" values="0 0 0 0 0 0 0 0 0 0 0 0 0 0 0 0 0 0 127 0" result="hardAlpha"/>
<feOffset dx="-0.216856" dy="-12.4237"/>
<feGaussianBlur stdDeviation="12.4256"/>
<feColorMatrix type="matrix" values="0 0 0 0 0.17098 0 0 0 0 0.159216 0 0 0 0 0.136471 0 0 0 0.142 0"/>
<feBlend mode="normal" in2="BackgroundImageFix" result="effect1_dropShadow_236_3659"/>
<feColorMatrix in="SourceAlpha" type="matrix" values="0 0 0 0 0 0 0 0 0 0 0 0 0 0 0 0 0 0 127 0" result="hardAlpha"/>
<feOffset dy="3"/>
<feGaussianBlur stdDeviation="2"/>
<feComposite in2="hardAlpha" operator="out"/>
<feColorMatrix type="matrix" values="0 0 0 0 0 0 0 0 0 0 0 0 0 0 0 0 0 0 0.25 0"/>
<feBlend mode="normal" in2="effect1_dropShadow_236_3659" result="effect2_dropShadow_236_3659"/>
<feBlend mode="normal" in="SourceGraphic" in2="effect2_dropShadow_236_3659" result="shape"/>
<feColorMatrix in="SourceAlpha" type="matrix" values="0 0 0 0 0 0 0 0 0 0 0 0 0 0 0 0 0 0 127 0" result="hardAlpha"/>
<feOffset dx="-0.0539731" dy="-3.09212"/>
<feGaussianBlur stdDeviation="1.54629"/>
<feComposite in2="hardAlpha" operator="arithmetic" k2="-1" k3="1"/>
<feColorMatrix type="matrix" values="0 0 0 0 0.888243 0 0 0 0 0.827125 0 0 0 0 0.708965 0 0 0 1 0"/>
<feBlend mode="normal" in2="shape" result="effect3_innerShadow_236_3659"/>
<feColorMatrix in="SourceAlpha" type="matrix" values="0 0 0 0 0 0 0 0 0 0 0 0 0 0 0 0 0 0 127 0" result="hardAlpha"/>
<feOffset dx="0.0539731" dy="3.09212"/>
<feGaussianBlur stdDeviation="1.54629"/>
<feComposite in2="hardAlpha" operator="arithmetic" k2="-1" k3="1"/>
<feColorMatrix type="matrix" values="0 0 0 0 0.813226 0 0 0 0 0.75727 0 0 0 0 0.649088 0 0 0 1 0"/>
<feBlend mode="normal" in2="effect3_innerShadow_236_3659" result="effect4_innerShadow_236_3659"/>
</filter>
<filter id="filter2_ddii_236_3659" x="41.3867" y="30.3865" width="15.9932" height="19.1338" filterUnits="userSpaceOnUse" color-interpolation-filters="sRGB">
<feFlood flood-opacity="0" result="BackgroundImageFix"/>
<feColorMatrix in="SourceAlpha" type="matrix" values="0 0 0 0 0 0 0 0 0 0 0 0 0 0 0 0 0 0 127 0" result="hardAlpha"/>
<feOffset dy="1.6"/>
<feGaussianBlur stdDeviation="1.6"/>
<feColorMatrix type="matrix" values="0 0 0 0 0.112157 0 0 0 0 0.104314 0 0 0 0 0.0964706 0 0 0 0.1665 0"/>
<feBlend mode="normal" in2="BackgroundImageFix" result="effect1_dropShadow_236_3659"/>
<feColorMatrix in="SourceAlpha" type="matrix" values="0 0 0 0 0 0 0 0 0 0 0 0 0 0 0 0 0 0 127 0" result="hardAlpha"/>
<feOffset dy="1"/>
<feGaussianBlur stdDeviation="2"/>
<feComposite in2="hardAlpha" operator="out"/>
<feColorMatrix type="matrix" values="0 0 0 0 0 0 0 0 0 0 0 0 0 0 0 0 0 0 0.25 0"/>
<feBlend mode="normal" in2="effect1_dropShadow_236_3659" result="effect2_dropShadow_236_3659"/>
<feBlend mode="normal" in="SourceGraphic" in2="effect2_dropShadow_236_3659" result="shape"/>
<feColorMatrix in="SourceAlpha" type="matrix" values="0 0 0 0 0 0 0 0 0 0 0 0 0 0 0 0 0 0 127 0" result="hardAlpha"/>
<feOffset dy="0.423111"/>
<feGaussianBlur stdDeviation="0.211556"/>
<feComposite in2="hardAlpha" operator="arithmetic" k2="-1" k3="1"/>
<feColorMatrix type="matrix" values="0 0 0 0 0.626957 0 0 0 0 0.583114 0 0 0 0 0.539271 0 0 0 1 0"/>
<feBlend mode="normal" in2="shape" result="effect3_innerShadow_236_3659"/>
<feColorMatrix in="SourceAlpha" type="matrix" values="0 0 0 0 0 0 0 0 0 0 0 0 0 0 0 0 0 0 127 0" result="hardAlpha"/>
<feOffset dy="-0.423111"/>
<feGaussianBlur stdDeviation="0.211556"/>
<feComposite in2="hardAlpha" operator="arithmetic" k2="-1" k3="1"/>
<feColorMatrix type="matrix" values="0 0 0 0 0.478069 0 0 0 0 0.444637 0 0 0 0 0.411206 0 0 0 1 0"/>
<feBlend mode="normal" in2="effect3_innerShadow_236_3659" result="effect4_innerShadow_236_3659"/>
</filter>
<filter id="filter3_ddii_236_3659" x="40.2608" y="29.836" width="11.8027" height="11.4313" filterUnits="userSpaceOnUse" color-interpolation-filters="sRGB">
<feFlood flood-opacity="0" result="BackgroundImageFix"/>
<feColorMatrix in="SourceAlpha" type="matrix" values="0 0 0 0 0 0 0 0 0 0 0 0 0 0 0 0 0 0 127 0" result="hardAlpha"/>
<feOffset dy="1.16405"/>
<feGaussianBlur stdDeviation="1.16405"/>
<feColorMatrix type="matrix" values="0 0 0 0 0.165222 0 0 0 0 0.159485 0 0 0 0 0.153748 0 0 0 0.1385 0"/>
<feBlend mode="normal" in2="BackgroundImageFix" result="effect1_dropShadow_236_3659"/>
<feColorMatrix in="SourceAlpha" type="matrix" values="0 0 0 0 0 0 0 0 0 0 0 0 0 0 0 0 0 0 127 0" result="hardAlpha"/>
<feOffset dy="2"/>
<feComposite in2="hardAlpha" operator="out"/>
<feColorMatrix type="matrix" values="0 0 0 0 0 0 0 0 0 0 0 0 0 0 0 0 0 0 0.1 0"/>
<feBlend mode="normal" in2="effect1_dropShadow_236_3659" result="effect2_dropShadow_236_3659"/>
<feBlend mode="normal" in="SourceGraphic" in2="effect2_dropShadow_236_3659" result="shape"/>
<feColorMatrix in="SourceAlpha" type="matrix" values="0 0 0 0 0 0 0 0 0 0 0 0 0 0 0 0 0 0 127 0" result="hardAlpha"/>
<feOffset dy="0.287133"/>
<feGaussianBlur stdDeviation="0.143566"/>
<feComposite in2="hardAlpha" operator="arithmetic" k2="-1" k3="1"/>
<feColorMatrix type="matrix" values="0 0 0 0 0.910374 0 0 0 0 0.878764 0 0 0 0 0.847154 0 0 0 1 0"/>
<feBlend mode="normal" in2="shape" result="effect3_innerShadow_236_3659"/>
<feColorMatrix in="SourceAlpha" type="matrix" values="0 0 0 0 0 0 0 0 0 0 0 0 0 0 0 0 0 0 127 0" result="hardAlpha"/>
<feOffset dy="-0.287133"/>
<feGaussianBlur stdDeviation="0.143566"/>
<feComposite in2="hardAlpha" operator="arithmetic" k2="-1" k3="1"/>
<feColorMatrix type="matrix" values="0 0 0 0 0.720782 0 0 0 0 0.695755 0 0 0 0 0.670728 0 0 0 1 0"/>
<feBlend mode="normal" in2="effect3_innerShadow_236_3659" result="effect4_innerShadow_236_3659"/>
</filter>
<filter id="filter4_ii_236_3659" x="61.8691" y="104.291" width="26.0439" height="12.0457" filterUnits="userSpaceOnUse" color-interpolation-filters="sRGB">
<feFlood flood-opacity="0" result="BackgroundImageFix"/>
<feBlend mode="normal" in="SourceGraphic" in2="BackgroundImageFix" result="shape"/>
<feColorMatrix in="SourceAlpha" type="matrix" values="0 0 0 0 0 0 0 0 0 0 0 0 0 0 0 0 0 0 127 0" result="hardAlpha"/>
<feOffset dy="-0.672871"/>
<feGaussianBlur stdDeviation="0.336436"/>
<feComposite in2="hardAlpha" operator="arithmetic" k2="-1" k3="1"/>
<feColorMatrix type="matrix" values="0 0 0 0 0.292776 0 0 0 0 0.250345 0 0 0 0 0.250345 0 0 0 0.5 0"/>
<feBlend mode="normal" in2="shape" result="effect1_innerShadow_236_3659"/>
<feColorMatrix in="SourceAlpha" type="matrix" values="0 0 0 0 0 0 0 0 0 0 0 0 0 0 0 0 0 0 127 0" result="hardAlpha"/>
<feOffset dy="0.672871"/>
<feGaussianBlur stdDeviation="0.336436"/>
<feComposite in2="hardAlpha" operator="arithmetic" k2="-1" k3="1"/>
<feColorMatrix type="matrix" values="0 0 0 0 0.242853 0 0 0 0 0.207657 0 0 0 0 0.207657 0 0 0 0.5 0"/>
<feBlend mode="normal" in2="effect1_innerShadow_236_3659" result="effect2_innerShadow_236_3659"/>
</filter>
<filter id="filter5_ii_236_3659" x="79.4287" y="42.2732" width="9.57129" height="31.4163" filterUnits="userSpaceOnUse" color-interpolation-filters="sRGB">
<feFlood flood-opacity="0" result="BackgroundImageFix"/>
<feBlend mode="normal" in="SourceGraphic" in2="BackgroundImageFix" result="shape"/>
<feColorMatrix in="SourceAlpha" type="matrix" values="0 0 0 0 0 0 0 0 0 0 0 0 0 0 0 0 0 0 127 0" result="hardAlpha"/>
<feOffset dy="-0.672871"/>
<feGaussianBlur stdDeviation="0.336436"/>
<feComposite in2="hardAlpha" operator="arithmetic" k2="-1" k3="1"/>
<feColorMatrix type="matrix" values="0 0 0 0 0.292776 0 0 0 0 0.250345 0 0 0 0 0.250345 0 0 0 0.5 0"/>
<feBlend mode="normal" in2="shape" result="effect1_innerShadow_236_3659"/>
<feColorMatrix in="SourceAlpha" type="matrix" values="0 0 0 0 0 0 0 0 0 0 0 0 0 0 0 0 0 0 127 0" result="hardAlpha"/>
<feOffset dy="0.672871"/>
<feGaussianBlur stdDeviation="0.336436"/>
<feComposite in2="hardAlpha" operator="arithmetic" k2="-1" k3="1"/>
<feColorMatrix type="matrix" values="0 0 0 0 0.242853 0 0 0 0 0.207657 0 0 0 0 0.207657 0 0 0 0.5 0"/>
<feBlend mode="normal" in2="effect1_innerShadow_236_3659" result="effect2_innerShadow_236_3659"/>
</filter>
<filter id="filter6_ii_236_3659" x="19" y="37.4853" width="20.6289" height="10.6446" filterUnits="userSpaceOnUse" color-interpolation-filters="sRGB">
<feFlood flood-opacity="0" result="BackgroundImageFix"/>
<feBlend mode="normal" in="SourceGraphic" in2="BackgroundImageFix" result="shape"/>
<feColorMatrix in="SourceAlpha" type="matrix" values="0 0 0 0 0 0 0 0 0 0 0 0 0 0 0 0 0 0 127 0" result="hardAlpha"/>
<feOffset dy="-0.672871"/>
<feGaussianBlur stdDeviation="0.336436"/>
<feComposite in2="hardAlpha" operator="arithmetic" k2="-1" k3="1"/>
<feColorMatrix type="matrix" values="0 0 0 0 0.292776 0 0 0 0 0.250345 0 0 0 0 0.250345 0 0 0 0.5 0"/>
<feBlend mode="normal" in2="shape" result="effect1_innerShadow_236_3659"/>
<feColorMatrix in="SourceAlpha" type="matrix" values="0 0 0 0 0 0 0 0 0 0 0 0 0 0 0 0 0 0 127 0" result="hardAlpha"/>
<feOffset dy="0.672871"/>
<feGaussianBlur stdDeviation="0.336436"/>
<feComposite in2="hardAlpha" operator="arithmetic" k2="-1" k3="1"/>
<feColorMatrix type="matrix" values="0 0 0 0 0.242853 0 0 0 0 0.207657 0 0 0 0 0.207657 0 0 0 0.5 0"/>
<feBlend mode="normal" in2="effect1_innerShadow_236_3659" result="effect2_innerShadow_236_3659"/>
</filter>
<filter id="filter7_ii_236_3659" x="24.3896" y="108.666" width="21.6533" height="8.74687" filterUnits="userSpaceOnUse" color-interpolation-filters="sRGB">
<feFlood flood-opacity="0" result="BackgroundImageFix"/>
<feBlend mode="normal" in="SourceGraphic" in2="BackgroundImageFix" result="shape"/>
<feColorMatrix in="SourceAlpha" type="matrix" values="0 0 0 0 0 0 0 0 0 0 0 0 0 0 0 0 0 0 127 0" result="hardAlpha"/>
<feOffset dy="-0.672871"/>
<feGaussianBlur stdDeviation="0.336436"/>
<feComposite in2="hardAlpha" operator="arithmetic" k2="-1" k3="1"/>
<feColorMatrix type="matrix" values="0 0 0 0 0.292776 0 0 0 0 0.250345 0 0 0 0 0.250345 0 0 0 0.5 0"/>
<feBlend mode="normal" in2="shape" result="effect1_innerShadow_236_3659"/>
<feColorMatrix in="SourceAlpha" type="matrix" values="0 0 0 0 0 0 0 0 0 0 0 0 0 0 0 0 0 0 127 0" result="hardAlpha"/>
<feOffset dy="0.672871"/>
<feGaussianBlur stdDeviation="0.336436"/>
<feComposite in2="hardAlpha" operator="arithmetic" k2="-1" k3="1"/>
<feColorMatrix type="matrix" values="0 0 0 0 0.242853 0 0 0 0 0.207657 0 0 0 0 0.207657 0 0 0 0.5 0"/>
<feBlend mode="normal" in2="effect1_innerShadow_236_3659" result="effect2_innerShadow_236_3659"/>
</filter>
<linearGradient id="paint0_linear_236_3659" x1="54.8612" y1="43.7312" x2="53.5216" y2="118.688" gradientUnits="userSpaceOnUse">
<stop stop-color="#746C5B"/>
<stop offset="0.784722" stop-color="#C0B297"/>
<stop offset="1" stop-color="#958A75"/>
</linearGradient>
<linearGradient id="paint1_linear_236_3659" x1="49.3831" y1="33.3865" x2="49.3831" y2="44.5204" gradientUnits="userSpaceOnUse">
<stop stop-color="#7E756C"/>
<stop offset="1" stop-color="#9C9186"/>
</linearGradient>
<linearGradient id="paint2_linear_236_3659" x1="46.1626" y1="30.9999" x2="46.1626" y2="37.7756" gradientUnits="userSpaceOnUse">
<stop stop-color="#E3DBD3"/>
<stop offset="1" stop-color="#BDB7B0"/>
</linearGradient>
<linearGradient id="paint3_linear_236_3659" x1="75.1437" y1="104.964" x2="75.1437" y2="114.847" gradientUnits="userSpaceOnUse">
<stop stop-color="#3F3636"/>
<stop offset="1" stop-color="#493F3F"/>
</linearGradient>
<linearGradient id="paint4_linear_236_3659" x1="84.2142" y1="42.3192" x2="84.2142" y2="73.0087" gradientUnits="userSpaceOnUse">
<stop stop-color="#3F3636"/>
<stop offset="1" stop-color="#493F3F"/>
</linearGradient>
<linearGradient id="paint5_linear_236_3659" x1="29.6312" y1="37.3627" x2="29.6312" y2="47.4571" gradientUnits="userSpaceOnUse">
<stop stop-color="#3F3636"/>
<stop offset="1" stop-color="#493F3F"/>
</linearGradient>
<linearGradient id="paint6_linear_236_3659" x1="34.8252" y1="109.339" x2="34.8252" y2="115.946" gradientUnits="userSpaceOnUse">
<stop stop-color="#3F3636"/>
<stop offset="1" stop-color="#493F3F"/>
</linearGradient>
<clipPath id="clip0_236_3659">
<rect width="114" height="130" fill="white"/>
</clipPath>
</defs>
</svg>
