<svg width="431" height="108" viewBox="0 0 431 108" fill="none" xmlns="http://www.w3.org/2000/svg">
<g filter="url(#filter0_di_29_311)">
<path d="M404.062 0H26.9375C12.0603 0 0 2.93813 0 6.5625V98.4375C0 102.062 12.0603 105 26.9375 105H404.062C418.94 105 431 102.062 431 98.4375V6.5625C431 2.93813 418.94 0 404.062 0Z" fill="#787B4A"/>
</g>
<g style="mix-blend-mode:screen">
<path d="M26.9375 0C12.0605 0 0 2.93869 0 6.5625V90.5625C0 94.1863 12.0605 97.125 26.9375 97.125H59.2625L86.2 94.5L121.219 97.125H266.681L290.925 94.5L350.188 97.125H404.062C418.937 97.125 431 94.1863 431 90.5625V6.5625C431 2.93869 418.937 0 404.062 0H26.9375Z" fill="#646736"/>
<path d="M88.5765 92.6178L85.8488 92.4145L83.1987 92.6717L57.7061 95.1562H26.9375C16.5235 95.1562 8.0813 93.0996 8.0813 90.5625V6.5625C8.0813 4.02544 16.5235 1.96875 26.9375 1.96875H404.063C414.477 1.96875 422.919 4.02544 422.919 6.5625V90.5625C422.919 93.0996 414.477 95.1562 404.063 95.1562H350.915L292.371 92.5627L289.92 92.4538L287.643 92.7006L264.966 95.1562H122.434L88.5765 92.6178Z" stroke="white" stroke-opacity="0.15" stroke-width="3"/>
</g>
<g style="mix-blend-mode:lighten" opacity="0.5">
<path fill-rule="evenodd" clip-rule="evenodd" d="M0.138991 5.89183C1.51873 2.58302 12.9903 0 26.9375 0H404.062C418.937 0 431 2.93869 431 6.5625V7.75556L414.837 7.21875L358.269 11.1562L223.581 7.21875L59.2625 13.7812L0 10.8937V6.5625C0 6.33544 0.0468648 6.11233 0.138991 5.89183Z" fill="#CACC8E"/>
</g>
<g style="mix-blend-mode:color" opacity="0.2">
<path d="M404.062 0H26.9375C12.0603 0 0 2.93813 0 6.5625V98.4375C0 102.062 12.0603 105 26.9375 105H404.062C418.94 105 431 102.062 431 98.4375V6.5625C431 2.93813 418.94 0 404.062 0Z" fill="#F8FF8E" fill-opacity="0.5"/>
</g>
<mask id="mask0_29_311" style="mask-type:alpha" maskUnits="userSpaceOnUse" x="0" y="0" width="431" height="105">
<path opacity="0.1" d="M404.062 0H26.9375C12.0603 0 0 2.93813 0 6.5625V98.4375C0 102.062 12.0603 105 26.9375 105H404.062C418.94 105 431 102.062 431 98.4375V6.5625C431 2.93813 418.94 0 404.062 0Z" fill="#5D6035"/>
</mask>
<g mask="url(#mask0_29_311)">
<g filter="url(#filter1_d_29_311)">
<path d="M835.062 0H26.9375C12.0603 0 0 2.93813 0 6.5625V98.4375C0 102.062 12.0603 105 26.9375 105H835.062C849.94 105 862 102.062 862 98.4375V6.5625C862 2.93813 849.94 0 835.062 0Z" fill="#704A7B"/>
</g>
<path d="M95.9949 120.97C217.447 120.97 315.902 102.411 315.902 79.5166C315.902 56.6224 217.447 38.063 95.9949 38.063C-25.4566 38.063 -123.913 56.6224 -123.913 79.5166C-123.913 102.411 -25.4566 120.97 95.9949 120.97Z" fill="#7B6E4A"/>
<path d="M396.671 65.4472C532.434 65.4472 642.491 46.0952 642.491 22.2233C642.491 -1.64861 532.434 -21.0006 396.671 -21.0006C260.908 -21.0006 150.851 -1.64861 150.851 22.2233C150.851 46.0952 260.908 65.4472 396.671 65.4472Z" fill="#4A7B51"/>
<path d="M166.272 148.076C284.88 148.076 381.031 126.681 381.031 100.288C381.031 73.8959 284.88 52.5007 166.272 52.5007C47.6634 52.5007 -48.4875 73.8959 -48.4875 100.288C-48.4875 126.681 47.6634 148.076 166.272 148.076Z" fill="#5F4A7B"/>
<path d="M174.25 78.2385C315.118 78.2385 429.314 52.7912 429.314 21.4004C429.314 -9.99038 315.118 -35.4376 174.25 -35.4376C33.383 -35.4376 -80.8126 -9.99038 -80.8126 21.4004C-80.8126 52.7912 33.383 78.2385 174.25 78.2385Z" fill="#4A7B61"/>
<path d="M38.9058 48.1105C176.435 48.1105 287.924 28.5264 287.924 4.36805C287.924 -19.7902 176.435 -39.3744 38.9058 -39.3744C-98.6232 -39.3744 -210.113 -19.7902 -210.113 4.36805C-210.113 28.5264 -98.6232 48.1105 38.9058 48.1105Z" fill="#7B534A"/>
<path d="M404.062 0H26.9375C12.0603 0 0 2.93813 0 6.5625V98.4375C0 102.062 12.0603 105 26.9375 105H404.062C418.94 105 431 102.062 431 98.4375V6.5625C431 2.93813 418.94 0 404.062 0Z" fill="#787B4A" fill-opacity="0.01"/>
</g>
<path d="M76.14 40.296L69.732 66H66.456L61.884 49.152C61.74 48.648 61.596 48.132 61.452 47.604C61.332 47.076 61.212 46.572 61.092 46.092C60.972 45.612 60.876 45.204 60.804 44.868C60.732 44.508 60.684 44.244 60.66 44.076C60.636 44.244 60.588 44.508 60.516 44.868C60.444 45.204 60.36 45.612 60.264 46.092C60.168 46.572 60.048 47.088 59.904 47.64C59.784 48.168 59.652 48.708 59.508 49.26L55.044 66H51.732L45.36 40.296H48.708L52.416 55.992C52.536 56.544 52.656 57.096 52.776 57.648C52.896 58.176 52.992 58.704 53.064 59.232C53.16 59.736 53.244 60.228 53.316 60.708C53.412 61.188 53.484 61.656 53.532 62.112C53.604 61.632 53.676 61.14 53.748 60.636C53.844 60.132 53.94 59.616 54.036 59.088C54.156 58.536 54.276 57.984 54.396 57.432C54.54 56.88 54.684 56.34 54.828 55.812L59.004 40.296H62.316L66.672 55.92C66.816 56.472 66.948 57.036 67.068 57.612C67.212 58.164 67.332 58.704 67.428 59.232C67.548 59.76 67.644 60.276 67.716 60.78C67.812 61.26 67.896 61.704 67.968 62.112C68.04 61.512 68.136 60.888 68.256 60.24C68.376 59.568 68.508 58.872 68.652 58.152C68.82 57.432 68.988 56.7 69.156 55.956L72.828 40.296H76.14ZM93.5601 66L90.7521 58.044H81.2121L78.4401 66H75.1641L84.5241 40.188H87.5481L96.8721 66H93.5601ZM87.1521 47.388C87.1041 47.196 86.9961 46.848 86.8281 46.344C86.6841 45.84 86.5281 45.324 86.3601 44.796C86.2161 44.244 86.0961 43.824 86.0001 43.536C85.8801 44.016 85.7481 44.508 85.6041 45.012C85.4841 45.492 85.3641 45.936 85.2441 46.344C85.1241 46.752 85.0161 47.1 84.9201 47.388L82.2561 55.164H89.8161L87.1521 47.388ZM105.552 66H102.348V43.14H94.86V40.296H112.968V43.14H105.552V66ZM126.319 42.78C125.047 42.78 123.907 43.02 122.899 43.5C121.891 43.956 121.027 44.64 120.307 45.552C119.611 46.44 119.071 47.532 118.687 48.828C118.327 50.1 118.147 51.54 118.147 53.148C118.147 55.26 118.447 57.096 119.047 58.656C119.647 60.216 120.547 61.416 121.747 62.256C122.971 63.096 124.483 63.516 126.283 63.516C127.339 63.516 128.335 63.42 129.271 63.228C130.231 63.036 131.179 62.796 132.115 62.508V65.316C131.203 65.676 130.267 65.94 129.307 66.108C128.347 66.276 127.195 66.36 125.851 66.36C123.379 66.36 121.315 65.82 119.659 64.74C118.027 63.66 116.803 62.124 115.987 60.132C115.171 58.14 114.763 55.8 114.763 53.112C114.763 51.168 115.015 49.392 115.519 47.784C116.023 46.176 116.767 44.784 117.751 43.608C118.735 42.432 119.947 41.532 121.387 40.908C122.827 40.26 124.483 39.936 126.355 39.936C127.579 39.936 128.767 40.068 129.919 40.332C131.071 40.596 132.115 40.968 133.051 41.448L131.791 44.184C131.047 43.824 130.207 43.5 129.271 43.212C128.359 42.924 127.375 42.78 126.319 42.78ZM155.938 66H152.734V54.012H140.566V66H137.362V40.296H140.566V51.168H152.734V40.296H155.938V66ZM179.099 66H175.895V43.14H168.407V40.296H186.515V43.14H179.099V66ZM210.666 53.112C210.666 55.104 210.426 56.916 209.946 58.548C209.466 60.156 208.758 61.548 207.822 62.724C206.886 63.9 205.722 64.8 204.33 65.424C202.938 66.048 201.33 66.36 199.506 66.36C197.61 66.36 195.954 66.048 194.538 65.424C193.146 64.776 191.982 63.876 191.046 62.724C190.134 61.548 189.45 60.144 188.994 58.512C188.538 56.88 188.31 55.068 188.31 53.076C188.31 50.436 188.718 48.132 189.534 46.164C190.35 44.196 191.586 42.66 193.242 41.556C194.922 40.452 197.022 39.9 199.542 39.9C201.966 39.9 204.006 40.452 205.662 41.556C207.318 42.636 208.566 44.172 209.406 46.164C210.246 48.132 210.666 50.448 210.666 53.112ZM191.694 53.112C191.694 55.272 191.97 57.132 192.522 58.692C193.074 60.252 193.926 61.452 195.078 62.292C196.254 63.132 197.73 63.552 199.506 63.552C201.306 63.552 202.782 63.132 203.934 62.292C205.086 61.452 205.926 60.252 206.454 58.692C207.006 57.132 207.282 55.272 207.282 53.112C207.282 49.872 206.658 47.34 205.41 45.516C204.186 43.668 202.23 42.744 199.542 42.744C197.742 42.744 196.254 43.164 195.078 44.004C193.926 44.82 193.074 46.008 192.522 47.568C191.97 49.104 191.694 50.952 191.694 53.112ZM243.264 56.928C243.264 58.704 242.916 60.312 242.22 61.752C241.548 63.168 240.504 64.296 239.088 65.136C237.696 65.952 235.932 66.36 233.796 66.36C230.772 66.36 228.468 65.496 226.884 63.768C225.324 62.016 224.544 59.712 224.544 56.856V40.296H227.748V56.964C227.748 59.052 228.264 60.672 229.296 61.824C230.328 62.976 231.888 63.552 233.976 63.552C235.416 63.552 236.58 63.276 237.468 62.724C238.356 62.148 239.004 61.368 239.412 60.384C239.844 59.376 240.06 58.224 240.06 56.928V40.296H243.264V56.928ZM268.948 66H265.168L252.424 44.652H252.28C252.304 45.084 252.328 45.564 252.352 46.092C252.4 46.62 252.436 47.196 252.46 47.82C252.484 48.42 252.508 49.044 252.532 49.692C252.556 50.34 252.568 50.988 252.568 51.636V66H249.616V40.296H253.36L266.068 61.572H266.212C266.188 61.284 266.164 60.888 266.14 60.384C266.116 59.856 266.092 59.28 266.068 58.656C266.044 58.008 266.02 57.348 265.996 56.676C265.972 56.004 265.96 55.38 265.96 54.804V40.296H268.948V66ZM275.491 66V40.296H278.695V63.12H289.207V66H275.491ZM313.814 53.112C313.814 55.104 313.574 56.916 313.094 58.548C312.614 60.156 311.906 61.548 310.97 62.724C310.034 63.9 308.87 64.8 307.478 65.424C306.086 66.048 304.478 66.36 302.654 66.36C300.758 66.36 299.102 66.048 297.686 65.424C296.294 64.776 295.13 63.876 294.194 62.724C293.282 61.548 292.598 60.144 292.142 58.512C291.686 56.88 291.458 55.068 291.458 53.076C291.458 50.436 291.866 48.132 292.682 46.164C293.498 44.196 294.734 42.66 296.39 41.556C298.07 40.452 300.17 39.9 302.69 39.9C305.114 39.9 307.154 40.452 308.81 41.556C310.466 42.636 311.714 44.172 312.554 46.164C313.394 48.132 313.814 50.448 313.814 53.112ZM294.842 53.112C294.842 55.272 295.118 57.132 295.67 58.692C296.222 60.252 297.074 61.452 298.226 62.292C299.402 63.132 300.878 63.552 302.654 63.552C304.454 63.552 305.93 63.132 307.082 62.292C308.234 61.452 309.074 60.252 309.602 58.692C310.154 57.132 310.43 55.272 310.43 53.112C310.43 49.872 309.806 47.34 308.558 45.516C307.334 43.668 305.378 42.744 302.69 42.744C300.89 42.744 299.402 43.164 298.226 44.004C297.074 44.82 296.222 46.008 295.67 47.568C295.118 49.104 294.842 50.952 294.842 53.112ZM329.487 42.78C328.215 42.78 327.075 43.02 326.067 43.5C325.059 43.956 324.195 44.64 323.475 45.552C322.779 46.44 322.239 47.532 321.855 48.828C321.495 50.1 321.315 51.54 321.315 53.148C321.315 55.26 321.615 57.096 322.215 58.656C322.815 60.216 323.715 61.416 324.915 62.256C326.139 63.096 327.651 63.516 329.451 63.516C330.507 63.516 331.503 63.42 332.439 63.228C333.399 63.036 334.347 62.796 335.283 62.508V65.316C334.371 65.676 333.435 65.94 332.475 66.108C331.515 66.276 330.363 66.36 329.019 66.36C326.547 66.36 324.483 65.82 322.827 64.74C321.195 63.66 319.971 62.124 319.155 60.132C318.339 58.14 317.931 55.8 317.931 53.112C317.931 51.168 318.183 49.392 318.687 47.784C319.191 46.176 319.935 44.784 320.919 43.608C321.903 42.432 323.115 41.532 324.555 40.908C325.995 40.26 327.651 39.936 329.523 39.936C330.747 39.936 331.935 40.068 333.087 40.332C334.239 40.596 335.283 40.968 336.219 41.448L334.959 44.184C334.215 43.824 333.375 43.5 332.439 43.212C331.527 42.924 330.543 42.78 329.487 42.78ZM358.314 66H354.57L346.182 53.724L343.734 56.028V66H340.53V40.296H343.734V52.968C344.382 52.152 345.042 51.336 345.714 50.52C346.386 49.704 347.058 48.888 347.73 48.072L354.246 40.296H357.99L348.486 51.492L358.314 66Z" fill="white"/>
<defs>
<filter id="filter0_di_29_311" x="0" y="-1.5" width="431" height="109.5" filterUnits="userSpaceOnUse" color-interpolation-filters="sRGB">
<feFlood flood-opacity="0" result="BackgroundImageFix"/>
<feColorMatrix in="SourceAlpha" type="matrix" values="0 0 0 0 0 0 0 0 0 0 0 0 0 0 0 0 0 0 127 0" result="hardAlpha"/>
<feOffset dy="3"/>
<feComposite in2="hardAlpha" operator="out"/>
<feColorMatrix type="matrix" values="0 0 0 0 0 0 0 0 0 0 0 0 0 0 0 0 0 0 0.2 0"/>
<feBlend mode="normal" in2="BackgroundImageFix" result="effect1_dropShadow_29_311"/>
<feBlend mode="normal" in="SourceGraphic" in2="effect1_dropShadow_29_311" result="shape"/>
<feColorMatrix in="SourceAlpha" type="matrix" values="0 0 0 0 0 0 0 0 0 0 0 0 0 0 0 0 0 0 127 0" result="hardAlpha"/>
<feOffset dy="-1.5"/>
<feGaussianBlur stdDeviation="2.5"/>
<feComposite in2="hardAlpha" operator="arithmetic" k2="-1" k3="1"/>
<feColorMatrix type="matrix" values="0 0 0 0 0 0 0 0 0 0 0 0 0 0 0 0 0 0 0.3 0"/>
<feBlend mode="normal" in2="shape" result="effect2_innerShadow_29_311"/>
</filter>
<filter id="filter1_d_29_311" x="0" y="0" width="862" height="108" filterUnits="userSpaceOnUse" color-interpolation-filters="sRGB">
<feFlood flood-opacity="0" result="BackgroundImageFix"/>
<feColorMatrix in="SourceAlpha" type="matrix" values="0 0 0 0 0 0 0 0 0 0 0 0 0 0 0 0 0 0 127 0" result="hardAlpha"/>
<feOffset dy="3"/>
<feComposite in2="hardAlpha" operator="out"/>
<feColorMatrix type="matrix" values="0 0 0 0 0 0 0 0 0 0 0 0 0 0 0 0 0 0 0.2 0"/>
<feBlend mode="normal" in2="BackgroundImageFix" result="effect1_dropShadow_29_311"/>
<feBlend mode="normal" in="SourceGraphic" in2="effect1_dropShadow_29_311" result="shape"/>
</filter>
</defs>
</svg>
