<svg width="230" height="305" viewBox="0 0 230 305" fill="none" xmlns="http://www.w3.org/2000/svg">
<path d="M114.84 305C30.6 305 0.960003 269.64 0.960003 222.84V156.28L90.92 143.28C151.24 134.44 181.4 114.68 181.4 78.8C181.4 51.24 164.24 35.12 114.84 35.12C65.96 35.12 48.28 52.8 48.28 67.88C48.28 80.36 57.12 86.08 73.76 86.08V122.48H51.92C26.44 122.48 0.960003 107.92 0.960003 73.6C0.960003 37.2 30.6 0.279987 114.84 0.279987C199.6 0.279987 229.24 35.64 229.24 77.24C229.24 133.4 184 164.6 93.52 178.12L48.8 184.88V222.84C48.8 254.04 65.96 270.16 114.84 270.16C164.24 270.16 181.4 254.04 181.4 222.84V183.32H229.24V222.84C229.24 269.64 199.6 305 114.84 305Z" fill="black" fill-opacity="0.5"/>
</svg>
