<svg width="430" height="305" viewBox="0 0 430 305" fill="none" xmlns="http://www.w3.org/2000/svg">
<path d="M35.96 222.84V52.28C35.96 39.8 24 35.12 0.0800005 35.12V0.279987H45.32C70.8 0.279987 83.8 9.12 83.8 26.28V222.84C83.8 254.04 103.56 270.16 143.6 270.16C183.64 270.16 203.92 254.04 203.92 222.84V100.12C171.16 60.08 168.04 56.44 168.04 49.68C168.04 43.96 173.24 37.2 201.32 0.279987H264.24V35.12H201.32V35.64L251.76 91.8V222.84C251.76 254.04 271 270.16 310 270.16C349.52 270.16 368.76 254.04 368.76 222.84V100.12C336 60.08 332.88 56.44 332.88 49.68C332.88 43.96 338.08 37.2 366.16 0.279987H429.08V35.12H366.16V35.64L416.6 91.8V222.84C416.6 277.44 381.24 305 310 305C273.08 305 245.52 296.68 227.84 280.04C209.64 296.68 181.56 305 143.6 305C71.84 305 35.96 277.44 35.96 222.84Z" fill="black" fill-opacity="0.5"/>
</svg>
