<svg width="255" height="351" viewBox="0 0 255 351" fill="none" xmlns="http://www.w3.org/2000/svg">
<path d="M25.44 351V217.36C25.44 206.44 17.64 202.8 0.480001 202.8V167.96H38.44C61.84 167.96 73.28 180.44 73.28 204.88V308.88L140.36 248.04L206.4 308.36V174.72C206.4 153.92 196 143.52 181.96 135.2C158.04 143.52 134.12 151.84 109.68 151.84C63.4 151.84 25.96 131.04 25.96 87.36V0.519987H73.28V87.36C73.28 104 85.76 117 109.68 117C122.16 117 132.04 115.44 148.68 110.76C138.28 103.48 133.08 92.56 133.08 79.04C133.08 60.32 147.64 39.52 179.88 39.52C210.56 39.52 226.68 58.24 226.68 80.6C226.68 93.08 223.56 101.92 214.2 110.76C241.76 123.76 254.24 138.84 254.24 173.68V351H199.12L140.36 297.44L81.08 351H25.44Z" fill="black" fill-opacity="0.5"/>
</svg>
