<svg width="254" height="305" viewBox="0 0 254 305" fill="none" xmlns="http://www.w3.org/2000/svg">
<path d="M211.2 76.72C237.72 76.72 253.84 87.12 253.84 107.4V222.84C253.84 277.44 215.88 305 139.44 305C63.52 305 25.56 277.44 25.56 222.84V105.32C7.36 82.44 0.0800005 71.52 0.0800005 62.68C0.0800005 48.64 3.72 48.64 40.12 0.279987H253.84V35.12H41.16C37 39.8 34.92 43.44 34.92 45C34.92 53.84 45.84 65.8 73.4 97V222.84C73.4 254.04 95.24 270.16 139.44 270.16C184.16 270.16 206 254.04 206 222.84V177.6C170.64 177.6 147.76 160.96 147.76 129.76C147.76 95.44 176.36 76.72 211.2 76.72ZM206 142.24V111.56C190.92 111.56 182.6 116.76 182.6 127.16C182.6 137.56 190.92 142.24 206 142.24Z" fill="black" fill-opacity="0.5"/>
</svg>
