<svg width="255" height="305" viewBox="0 0 255 305" fill="none" xmlns="http://www.w3.org/2000/svg">
<path d="M211.6 76.72C238.12 76.72 254.24 87.12 254.24 107.4V222.84C254.24 271.72 227.72 305 185.08 305C162.2 305 144.52 290.96 127.88 273.28C106.56 250.4 101.36 241.04 73.8 238.44V305H25.96C8.8 277.44 0.480001 253.52 0.480001 233.76C0.480001 214.52 8.8 204.64 25.96 203.6V105.32C7.76 82.44 0.480001 71.52 0.480001 62.68C0.480001 48.64 4.12 48.64 40.52 0.279987H254.24V35.12H41.56C37.4 39.8 35.32 43.44 35.32 45C35.32 53.84 46.24 65.8 73.8 97V203.6C111.76 206.72 123.72 214.52 140.36 232.2C153.36 246.24 166.88 270.16 184.04 270.16C203.28 270.16 206.4 243.64 206.4 222.84V177.6C171.04 177.6 148.16 160.96 148.16 129.76C148.16 95.44 176.76 76.72 211.6 76.72ZM206.4 142.24V111.56C191.32 111.56 183 116.76 183 127.16C183 137.56 191.32 142.24 206.4 142.24Z" fill="black" fill-opacity="0.5"/>
</svg>
