<svg width="255" height="351" viewBox="0 0 255 351" fill="none" xmlns="http://www.w3.org/2000/svg">
<path d="M25.96 351V151.32C7.76 128.44 0.480001 117.52 0.480001 108.68C0.480001 94.64 4.12 94.64 40.52 46.28H185.6C197.04 46.28 206.4 42.12 206.4 33.8V0.519987H254.24V33.8C254.24 65.52 237.08 81.12 190.8 81.12H41.56C37.4 85.8 35.32 89.44 35.32 91C35.32 99.84 46.24 111.8 73.8 143V308.88L140.36 248.04L206.4 308.36V116.48H254.24V351H199.12L140.36 297.44L81.08 351H25.96Z" fill="black" fill-opacity="0.5"/>
</svg>
