<svg width="563" height="305" viewBox="0 0 563 305" fill="none" xmlns="http://www.w3.org/2000/svg">
<path d="M108.6 35.12C68.56 35.12 48.8 51.24 48.8 82.44V191.12C80.52 191.12 103.92 207.76 103.92 246.24C103.92 282.12 80 305 49.84 305H35.28C16.56 305 0.960003 294.6 0.960003 273.8V82.44C0.960003 27.84 36.84 0.279987 108.6 0.279987C180.36 0.279987 216.76 27.84 216.76 82.44V222.84C216.76 254.04 236.52 270.16 276.56 270.16C317.12 270.16 336.88 254.04 336.88 222.84V100.12C304.12 60.08 301 56.44 301 49.68C301 43.96 306.2 37.2 334.28 0.279987H397.2V35.12H334.28V35.64L384.72 91.8V222.84C384.72 254.04 404.48 270.16 443.48 270.16C482.48 270.16 502.24 254.04 502.24 222.84V100.12C469.48 60.08 466.36 56.44 466.36 49.68C466.36 43.96 471.56 37.2 499.64 0.279987H562.56V35.12H499.64V35.64L550.08 91.8V222.84C550.08 277.44 514.2 305 443.48 305C406.04 305 379 296.68 360.8 280.04C342.6 296.68 315.04 305 276.56 305C204.8 305 168.92 277.44 168.92 222.84V82.44C168.92 51.24 148.64 35.12 108.6 35.12ZM48.8 270.16C64.4 270.16 71.68 261.32 71.68 246.76C71.68 234.28 64.4 227 48.8 226.48V270.16Z" fill="black" fill-opacity="0.5"/>
</svg>
