<svg width="395" height="435" viewBox="0 0 395 435" fill="none" xmlns="http://www.w3.org/2000/svg">
<path d="M67 41.24C54.52 41.24 48.8 52.16 48.8 73.48V194.12C80.52 194.12 103.92 210.76 103.92 249.24C103.92 285.12 80 308 49.84 308H35.28C16.56 308 0.960003 297.6 0.960003 276.8V73.48C0.960003 35.52 16.56 3.27999 61.28 3.27999C78.96 3.27999 96.12 13.68 114.84 35H115.88C135.12 14.2 151.76 3.27999 177.24 3.27999C197 3.27999 210 11.6 218.32 25.12C234.96 12.12 258.36 0.679989 292.68 0.679989C373.28 0.679989 394.08 38.64 394.08 85.44V308H346.24V85.44C346.24 54.24 326.48 35.52 288 35.52C257.84 35.52 244.32 44.36 228.2 57.88C228.72 62.56 229.24 68.28 229.24 73.48V308H181.4V73.48C181.4 52.16 175.68 41.24 163.2 41.24C141.88 41.24 132 72.96 114.84 72.96C98.72 72.96 86.24 41.24 67 41.24ZM48.8 273.16C64.4 273.16 71.68 264.32 71.68 249.76C71.68 237.28 64.4 230 48.8 229.48V273.16ZM305.16 434.88C265.12 434.88 238.6 420.32 211.04 403.16C184 386.52 142.92 383.92 102.36 383.92H0.960003V353.76H102.36C156.96 353.76 201.16 362.08 229.24 378.72C257.32 395.36 281.24 404.72 305.16 404.72C336.88 404.72 347.8 390.16 349.36 363.64H310.88V333.48H394.08V344.4C394.08 400.56 360.8 434.88 305.16 434.88Z" fill="black" fill-opacity="0.5"/>
</svg>
