<svg width="265" height="351" viewBox="0 0 265 351" fill="none" xmlns="http://www.w3.org/2000/svg">
<path d="M144.84 351C68.92 351 30.96 323.44 30.96 268.84V98.28C30.96 85.28 20.56 81.12 0.28 81.12V46.28H40.32C65.8 46.28 78.8 55.12 78.8 72.28V268.84C78.8 300.04 100.64 316.16 144.84 316.16C189.56 316.16 211.4 300.04 211.4 268.84V161.72C142.24 106.6 136 101.4 136 94.12C136 88.4 137.56 85.8 168.24 46.28H198.92C210.88 46.28 216.6 42.12 216.6 30.68V0.519987H264.44V42.12C264.44 69.16 257.16 81.12 231.68 81.12H183.32L182.8 82.16L259.24 141.44V268.84C259.24 323.44 221.28 351 144.84 351Z" fill="black" fill-opacity="0.5"/>
</svg>
