<svg width="230" height="311" viewBox="0 0 230 311" fill="none" xmlns="http://www.w3.org/2000/svg">
<path d="M181.4 310.2V266H180.88C147.08 288.36 119 305 82.08 305C30.6 305 0.960003 269.64 0.960003 222.84V156.28L90.92 143.28C151.24 134.44 181.4 116.76 181.4 72.04C181.4 51.76 174.12 38.24 159.56 38.24C149.16 38.24 142.4 45.52 136.16 53.32C129.92 61.64 123.68 69.96 113.8 69.96C98.72 69.96 83.12 38.24 66.48 38.24C55.04 38.24 48.28 49.16 48.28 62.68C48.28 79.84 57.12 85.04 73.76 87.64V122.48H54.52C26.96 122.48 0.440001 105.84 0.440001 64.76C0.440001 26.28 30.6 0.279987 62.84 0.279987C84.68 0.279987 96.12 10.68 114.84 32H115.88C131.48 11.2 150.2 0.279987 171.52 0.279987C208.96 0.279987 229.24 34.08 229.24 66.84C229.24 133.4 184 164.6 93.52 178.12L48.8 184.88V222.84C48.8 254.04 62.84 270.16 87.8 270.16C122.64 270.16 181.4 229.6 181.4 208.28V183.32H229.24V310.2H181.4Z" fill="black" fill-opacity="0.5"/>
</svg>
