<svg width="395" height="305" viewBox="0 0 395 305" fill="none" xmlns="http://www.w3.org/2000/svg">
<path d="M67 38.24C54.52 38.24 48.8 49.16 48.8 70.48V191.12C80.52 191.12 103.92 207.76 103.92 246.24C103.92 282.12 80 305 49.84 305H35.28C16.56 305 0.960003 294.6 0.960003 273.8V70.48C0.960003 32.52 16.56 0.279987 61.28 0.279987C78.96 0.279987 96.12 10.68 114.84 32H115.88C135.12 11.2 151.76 0.279987 177.24 0.279987C215.72 0.279987 229.24 32.52 229.24 70.48V209.32H256.8C266.68 257.16 286.96 271.72 305.16 271.72C324.4 271.72 333.76 249.88 333.76 229.6V100.12C301 60.08 297.88 56.44 297.88 49.68C297.88 43.96 303.08 37.2 331.16 0.279987H394.08V35.12H331.16V35.64L381.6 91.8V222.84C381.6 269.64 353.52 305 309.84 305C268.76 305 247.44 279 232.88 244.16H229.24V305H181.4V70.48C181.4 49.16 175.68 38.24 163.2 38.24C141.88 38.24 132 69.96 114.84 69.96C98.72 69.96 86.24 38.24 67 38.24ZM48.8 270.16C64.4 270.16 71.68 261.32 71.68 246.76C71.68 234.28 64.4 227 48.8 226.48V270.16Z" fill="black" fill-opacity="0.5"/>
</svg>
