<svg width="544" height="305" viewBox="0 0 544 305" fill="none" xmlns="http://www.w3.org/2000/svg">
<path d="M107.04 35.12C68.04 35.12 48.8 51.24 48.8 82.44V191.12C80.52 191.12 103.92 207.76 103.92 246.24C103.92 282.12 80 305 49.84 305H35.28C16.56 305 0.960003 294.6 0.960003 273.8V82.44C0.960003 27.84 36.32 0.279987 107.04 0.279987C177.76 0.279987 213.64 27.84 213.64 82.44V262.88L272.4 209.32L330.64 262.36V82.44C330.64 27.84 366.52 0.279987 437.24 0.279987C507.96 0.279987 543.84 27.84 543.84 82.44V305H496V82.44C496 51.24 476.24 35.12 437.24 35.12C398.24 35.12 378.48 51.24 378.48 82.44V305H323.36L272.4 258.72L220.92 305H165.8V82.44C165.8 51.24 146.04 35.12 107.04 35.12ZM48.8 270.16C64.4 270.16 71.68 261.32 71.68 246.76C71.68 234.28 64.4 227 48.8 226.48V270.16Z" fill="black" fill-opacity="0.5"/>
</svg>
