<svg width="230" height="305" viewBox="0 0 230 305" fill="none" xmlns="http://www.w3.org/2000/svg">
<path d="M0.960003 35.12V0.279987H229.24V35.12H0.960003ZM114.84 105.84C70.64 105.84 48.8 121.44 48.8 152.64V191.12C80.52 191.12 103.92 207.76 103.92 246.24C103.92 282.12 80 305 49.84 305H35.28C16.56 305 0.960003 294.6 0.960003 273.8V152.64C0.960003 98.04 38.92 70.48 114.84 70.48C191.28 70.48 229.24 98.04 229.24 152.64V305H181.4V152.64C181.4 121.44 159.56 105.84 114.84 105.84ZM48.8 270.16C64.4 270.16 71.68 261.32 71.68 246.76C71.68 234.28 64.4 227 48.8 226.48V270.16Z" fill="black" fill-opacity="0.5"/>
</svg>
