<svg width="255" height="351" viewBox="0 0 255 351" fill="none" xmlns="http://www.w3.org/2000/svg">
<path d="M211.6 122.72C238.12 122.72 254.24 133.12 254.24 153.4V268.84C254.24 323.44 216.28 351 139.84 351C63.92 351 25.96 323.44 25.96 268.84V151.32C7.76 128.44 0.480001 117.52 0.480001 108.68C0.480001 94.64 4.12 94.64 40.52 46.28H187.68C201.72 46.28 206.4 42.12 206.4 33.8V0.519987H254.24V33.8C254.24 65.52 236.04 81.12 201.72 81.12H41.56C36.88 87.36 35.32 89.44 35.32 91C35.32 99.84 46.24 111.8 73.8 143V268.84C73.8 300.04 95.64 316.16 139.84 316.16C184.56 316.16 206.4 300.04 206.4 268.84V223.6C171.04 223.6 148.16 206.96 148.16 175.76C148.16 141.44 176.76 122.72 211.6 122.72ZM206.4 188.24V157.56C191.32 157.56 183 162.76 183 173.16C183 183.56 191.32 188.24 206.4 188.24Z" fill="black" fill-opacity="0.5"/>
</svg>
