<svg width="229" height="305" viewBox="0 0 229 305" fill="none" xmlns="http://www.w3.org/2000/svg">
<path d="M112.92 305C46.36 305 13.08 277.44 13.08 222.84V183.32H60.92V222.84C60.92 254.04 78.6 270.16 112.92 270.16C147.76 270.16 165.44 254.04 165.44 222.84V182.8C48.44 165.64 0.600003 139.64 0.600003 82.44C0.600003 35.64 30.24 0.279987 114.48 0.279987C199.24 0.279987 228.88 37.2 228.88 77.24V89.72H181.04V77.24C181.04 52.8 163.88 35.12 114.48 35.12C65.6 35.12 47.92 51.24 47.92 82.44C47.92 120.92 82.76 135.48 167.52 147.44C171.68 133.92 182.6 126.64 197.16 126.64C216.4 126.64 228.88 141.72 228.88 156.28C228.88 171.36 221.08 182.28 213.28 185.4V222.84C213.28 277.44 180 305 112.92 305Z" fill="black" fill-opacity="0.5"/>
</svg>
