<svg width="235" height="305" viewBox="0 0 235 305" fill="none" xmlns="http://www.w3.org/2000/svg">
<path d="M0.440001 305V177.08H48.28V216.08C87.8 216.08 105.48 232.2 120.04 245.2C130.96 255.08 143.44 270.16 157.48 270.16C170.48 270.16 186.6 258.2 186.6 227.52C186.6 199.44 171 183.84 136.16 178.12C46.72 163.56 0.960003 133.4 0.960003 82.44C0.960003 35.64 30.6 0.279987 114.84 0.279987C199.6 0.279987 229.24 32 229.24 67.88C229.24 95.96 211.04 122.48 159.56 122.48H155.92V91.28C173.08 91.28 181.4 80.88 181.4 66.32C181.4 50.72 164.24 35.12 117.96 35.12C65.96 35.12 48.28 51.24 48.28 82.44C48.28 114.68 78.96 133.4 138.76 143.28C207.4 154.72 234.44 183.32 234.44 228.56C234.44 276.4 198.56 305 157.48 305C132.52 305 117.96 292.52 100.28 276.4C83.12 260.8 72.2 250.92 48.28 250.92V305H0.440001Z" fill="black" fill-opacity="0.5"/>
</svg>
