<svg width="275" height="302" viewBox="0 0 275 302" fill="none" xmlns="http://www.w3.org/2000/svg">
<path d="M212.6 35.23L262.555 90.85V220.63C262.555 274.705 224.96 302 149.255 302C74.065 302 36.47 274.705 36.47 220.63V99.09C4.025 59.435 0.935001 55.83 0.935001 49.135C0.935001 43.47 6.085 36.775 33.895 0.209987H96.21V34.715H33.895V35.23L83.85 90.85V220.63C83.85 251.53 105.48 267.495 149.255 267.495C193.545 267.495 215.175 251.53 215.175 220.63V99.09C182.73 59.435 179.64 55.83 179.64 49.135C179.64 43.47 184.79 36.775 212.6 0.209987H274.915V34.715H212.6V35.23Z" fill="black" fill-opacity="0.5"/>
</svg>
