<svg width="252" height="348" viewBox="0 0 252 348" fill="none" xmlns="http://www.w3.org/2000/svg">
<path d="M209.325 121.915C235.59 121.915 251.555 132.215 251.555 152.3V348H196.965L138.77 294.955L80.06 348H25.47V150.24C7.445 127.58 0.235001 116.765 0.235001 108.01C0.235001 94.105 3.84 94.105 39.89 46.21H188.725C199.025 46.21 204.175 42.09 204.175 32.305V0.889987H251.555V33.85C251.555 65.265 235.075 80.715 190.785 80.715H40.92C36.285 86.895 34.74 88.955 34.74 90.5C34.74 99.255 45.555 111.1 72.85 142V306.285L138.77 246.03L204.175 305.77V221.825C169.155 221.825 146.495 205.345 146.495 174.445C146.495 140.455 174.82 121.915 209.325 121.915ZM204.175 186.805V156.42C189.24 156.42 181 161.57 181 171.87C181 182.17 189.24 186.805 204.175 186.805Z" fill="black" fill-opacity="0.5"/>
</svg>
