<svg width="270" height="308" viewBox="0 0 270 308" fill="none" xmlns="http://www.w3.org/2000/svg">
<path d="M40.96 35.12V0.279987H269.24V35.12H40.96ZM54.48 307.08C24.84 307.08 7.16 288.36 0.400001 250.4L27.44 240C33.16 255.08 39.4 262.88 48.76 262.88C54.48 262.88 58.64 258.72 58.64 249.88C58.64 226.48 40.96 193.2 40.96 159.92C40.96 105.32 78.92 70.48 154.84 70.48C231.28 70.48 269.24 98.04 269.24 152.64V305H221.4V152.64C221.4 121.44 199.56 105.84 154.84 105.84C110.64 105.84 88.28 128.72 88.28 159.92C88.28 190.6 106.48 208.28 106.48 250.4C106.48 290.44 83.6 307.08 54.48 307.08Z" fill="black" fill-opacity="0.5"/>
</svg>
