<svg width="277" height="305" viewBox="0 0 277 305" fill="none" xmlns="http://www.w3.org/2000/svg">
<path d="M213.8 35.64L264.24 91.8V222.84C264.24 277.44 226.28 305 149.84 305C73.92 305 35.96 277.44 35.96 222.84V100.12C3.2 60.08 0.0800005 56.44 0.0800005 49.68C0.0800005 43.96 5.28 37.2 33.36 0.279987H96.28V35.12H33.36V35.64L83.8 91.8V135.48H216.4V100.12C183.64 60.08 180.52 56.44 180.52 49.68C180.52 43.96 185.72 37.2 213.8 0.279987H276.72V35.12H213.8V35.64ZM83.8 222.84C83.8 254.04 105.64 270.16 149.84 270.16C194.56 270.16 216.4 254.04 216.4 222.84V170.32H83.8V222.84Z" fill="black" fill-opacity="0.5"/>
</svg>
