<svg width="408" height="305" viewBox="0 0 408 305" fill="none" xmlns="http://www.w3.org/2000/svg">
<path d="M344.16 35.64L394.6 91.8V222.84C394.6 269.64 361.84 305 288 305C251.08 305 224.04 295.64 206.88 280.04H205.32C186.6 297.72 158 304.48 117.44 305H114.84C30.6 305 0.440001 269.64 0.440001 222.84V26.28C0.440001 9.12 13.44 0.279987 38.92 0.279987H84.16V35.12C60.24 35.12 48.28 39.28 48.28 47.08V222.84C48.28 254.04 65.96 270.16 114.84 270.16C164.24 270.16 181.4 254.04 181.4 222.84V100.12C148.64 60.08 145.52 56.44 145.52 49.68C145.52 43.96 150.72 37.2 178.8 0.279987H241.72V35.12H178.8V35.64L229.24 91.8V222.84C229.24 254.04 249.52 270.16 288 270.16C326.48 270.16 346.76 254.04 346.76 222.84V100.12C314 60.08 310.88 56.44 310.88 49.68C310.88 43.96 316.08 37.2 344.16 0.279987H407.08V35.12H344.16V35.64Z" fill="black" fill-opacity="0.5"/>
</svg>
