<svg width="119" height="305" viewBox="0 0 119 305" fill="none" xmlns="http://www.w3.org/2000/svg">
<path d="M55.64 35.64L106.08 91.8V269.12C106.08 294.6 93.08 305 70.2 305H60.84C32.24 305 1.93715e-07 294.6 1.93715e-07 248.84C1.93715e-07 207.76 32.76 193.2 58.24 191.12V100.12C25.48 60.08 22.36 56.44 22.36 49.68C22.36 43.96 27.56 37.2 55.64 0.279987H118.56V35.12H55.64V35.64ZM58.24 270.16V226.48C48.36 226.48 34.84 231.68 34.84 248.32C34.84 264.96 47.32 270.16 58.24 270.16Z" fill="black" fill-opacity="0.5"/>
</svg>
