<svg width="395" height="305" viewBox="0 0 395 305" fill="none" xmlns="http://www.w3.org/2000/svg">
<path d="M108.6 35.12C68.56 35.12 48.8 51.24 48.8 82.44V191.12C80.52 191.12 103.92 207.76 103.92 246.24C103.92 282.12 80 305 49.84 305H35.28C16.56 305 0.960003 294.6 0.960003 273.8V82.44C0.960003 27.84 36.84 0.279987 108.6 0.279987C180.36 0.279987 216.76 27.84 216.76 82.44V222.84C216.76 254.04 236 270.16 275 270.16C314.52 270.16 333.76 254.04 333.76 222.84V100.12C301 60.08 297.88 56.44 297.88 49.68C297.88 43.96 303.08 37.2 331.16 0.279987H394.08V35.12H331.16V35.64L381.6 91.8V222.84C381.6 277.44 346.24 305 275 305C204.28 305 168.92 277.44 168.92 222.84V82.44C168.92 51.24 148.64 35.12 108.6 35.12ZM48.8 270.16C64.4 270.16 71.68 261.32 71.68 246.76C71.68 234.28 64.4 227 48.8 226.48V270.16Z" fill="black" fill-opacity="0.5"/>
</svg>
