<svg width="135" height="351" viewBox="0 0 135 351" fill="none" xmlns="http://www.w3.org/2000/svg">
<path d="M42.64 81.64L106.08 137.8V315.12C106.08 340.6 93.08 351 70.2 351H60.84C32.24 351 1.93715e-07 340.6 1.93715e-07 294.84C1.93715e-07 253.76 32.76 239.2 58.24 237.12V146.12C14.56 104.52 10.4 100.36 10.4 94.12C10.4 88.4 15.6 81.64 42.64 46.28H68.12C80.6 46.28 86.32 42.12 86.32 33.8V0.519987H134.16V33.8C134.16 65.52 112.32 81.12 68.12 81.12H42.64V81.64ZM58.24 316.16V272.48C48.36 272.48 34.84 277.68 34.84 294.32C34.84 310.96 47.32 316.16 58.24 316.16Z" fill="black" fill-opacity="0.5"/>
</svg>
