<svg width="395" height="305" viewBox="0 0 395 305" fill="none" xmlns="http://www.w3.org/2000/svg">
<path d="M108.6 105.84C68.56 105.84 48.8 121.44 48.8 152.64V191.12C80.52 191.12 103.92 207.76 103.92 246.24C103.92 282.12 80 305 49.84 305H35.28C16.56 305 0.960003 294.6 0.960003 273.8V152.64C0.960003 119.36 12.4 97.52 35.8 84.52C16.04 59.56 13.44 56.44 13.44 49.68C13.44 43.96 18.64 37.2 46.72 0.279987H191.28V35.12H46.72V35.64L78.96 72.04C87.8 71 97.68 70.48 108.6 70.48C180.36 70.48 216.76 98.04 216.76 152.64V222.84C216.76 254.04 236 270.16 275 270.16C314.52 270.16 333.76 254.04 333.76 222.84V100.12C301 60.08 297.88 56.44 297.88 49.68C297.88 43.96 303.08 37.2 331.16 0.279987H394.08V35.12H331.16V35.64L381.6 91.8V222.84C381.6 277.44 346.24 305 275 305C204.28 305 168.92 277.44 168.92 222.84V152.64C168.92 121.44 148.64 105.84 108.6 105.84ZM48.8 270.16C64.4 270.16 71.68 261.32 71.68 246.76C71.68 234.28 64.4 227 48.8 226.48V270.16Z" fill="black" fill-opacity="0.5"/>
</svg>
