<svg width="417" height="305" viewBox="0 0 417 305" fill="none" xmlns="http://www.w3.org/2000/svg">
<path d="M33.36 35.64L83.8 91.8V222.84C83.8 254.04 103.04 270.16 143.6 270.16C184.16 270.16 203.92 254.04 203.92 222.84V82.44C203.92 35.64 236.68 0.279987 308.96 0.279987C380.72 0.279987 416.6 27.84 416.6 82.44V305H368.76V82.44C368.76 51.24 349 35.12 310 35.12C271.52 35.12 251.76 51.24 251.76 82.44V222.84C251.76 269.64 220.04 305 143.6 305C67.68 305 35.96 269.64 35.96 222.84V100.12C3.2 60.08 0.0800005 56.44 0.0800005 49.68C0.0800005 43.96 5.28 37.2 33.36 0.279987H96.28V35.12H33.36V35.64Z" fill="black" fill-opacity="0.5"/>
</svg>
