<svg width="361" height="430" viewBox="0 0 361 430" fill="none" xmlns="http://www.w3.org/2000/svg">
<path d="M112.92 305C46.36 305 13.08 277.44 13.08 222.84V183.32H60.92V222.84C60.92 254.04 78.6 270.16 112.92 270.16C147.76 270.16 165.44 254.04 165.44 222.84V182.8C48.44 165.64 0.600003 139.64 0.600003 82.44C0.600003 35.64 30.24 0.279987 114.48 0.279987C199.24 0.279987 228.88 37.2 228.88 77.24V89.72H181.04V77.24C181.04 52.8 163.88 35.12 114.48 35.12C65.6 35.12 47.92 51.24 47.92 82.44C47.92 120.92 82.76 135.48 167.52 147.44C171.68 133.92 182.6 126.64 197.16 126.64C216.4 126.64 228.88 141.72 228.88 156.28C228.88 171.36 221.08 182.28 213.28 185.4V222.84C213.28 277.44 180 305 112.92 305ZM297.52 35.64L347.96 91.8V429.28H292.84L237.72 381.96L182.6 429.28H132.16V380.4C132.16 371.04 123.84 367.4 106.68 367.4V330.48H139.44C162.84 330.48 174.8 342.96 174.8 367.4V387.16L237.72 332.56L300.12 387.16V100.12C267.36 60.08 264.24 56.44 264.24 49.68C264.24 43.96 269.44 37.2 297.52 0.279987H360.44V35.12H297.52V35.64Z" fill="black" fill-opacity="0.5"/>
</svg>
