<svg width="278" height="305" viewBox="0 0 278 305" fill="none" xmlns="http://www.w3.org/2000/svg">
<path d="M214.52 35.64L264.96 91.8V279C264.96 296.16 252.48 305 227 305H181.24V270.16C205.16 270.16 217.12 266 217.12 255.6V170.32H84.52V279C84.52 296.16 71.52 305 46.04 305H0.800001V270.16C24.72 270.16 36.68 266 36.68 255.6V100.12C3.92 60.08 0.800001 56.44 0.800001 49.68C0.800001 43.96 6 37.2 34.08 0.279987H97V35.12H34.08V35.64L84.52 91.8V134.96H217.12V100.12C184.36 60.08 181.24 56.44 181.24 49.68C181.24 43.96 186.44 37.2 214.52 0.279987H277.44V35.12H214.52V35.64Z" fill="black" fill-opacity="0.5"/>
</svg>
